<?xml version="1.0" encoding="UTF-8"?><svg id="_レイヤー_1" xmlns="http://www.w3.org/2000/svg" viewBox="0 0 68.87 68.87"><path d="m28.07,37.12c-1.44,1.78-2.83,3.5-4.27,5.33-.19.29-.29.62-.29,1.01-.14.62-.19,1.3-.19,1.97s-.14,1.3-.38,1.87c-.34.96-.72,1.92-1.06,2.83-.14.19-.34.34-.58.38-.67.1-1.34.05-1.92-.24s-1.1-.72-1.54-1.25c-.38-.48-.77-.96-1.1-1.44-.1-.1-.1-.19-.1-.34.14-1.15.24-2.3.34-3.41.34-2.74.86-5.42,1.63-8.06.62-1.92,1.15-3.84,1.63-5.76.82-1.78,1.25-3.6,1.39-5.47-.1-.29-.14-.53-.14-.77.14-.38.38-.72.72-1.01.29-.24.62-.53.96-.77.24-.24.53-.34.82-.38.77.19,1.49.48,2.16.86.67.34,1.3.82,1.87,1.39.53.58.91,1.2,1.1,1.97.1.48,0,.86-.29,1.2-.34.34-.67.53-1.1.58-1.34,0-2.59.38-3.7,1.1-1.54,1.1-2.45,2.59-2.74,4.42-.24.86-.48,1.78-.86,2.64-.19.91-.29,1.87-.34,2.83-.19,1.1-.38,2.16-.48,3.26,0,.53.14,1.06.34,1.58.1.34.24.34.38.05,1.15-.96,2.3-1.92,3.46-2.93,1.39-1.15,2.78-2.35,4.13-3.55l.24-.24c-.05.14-.1.24-.1.34h.01Zm23.71.62c.38,1.3.38,2.59.14,3.89-.48,2.54-1.01,5.14-1.54,7.68-.53,1.92-1.63,3.46-3.36,4.61-.19.05-.38.1-.67.19-.1-.05-.24-.05-.34,0-.48.38-.91.48-1.44.29-.48-.19-.91-.48-1.25-.77-2.98-1.92-5.47-4.32-7.44-7.15-.24-.38-.48-.72-.72-1.06-.24-.14-.43-.19-.67-.19-.43.24-.86.48-1.3.72-.38.1-.72.1-1.06,0-.82-.34-1.34-.91-1.54-1.73-.19-.82.05-1.58.62-2.21.53-.53,1.1-1.01,1.68-1.44.29-.05.53,0,.77.14l.48,1.06c.05.14.19.29.29.43.1-.14.19-.29.24-.38.1-.86.14-1.78.19-2.69.05-.34-.05-.38-.34-.14l-.72.48c-.14.05-.24.1-.29.14,0-.14.05-.24.14-.38.05-.1.14-.14.24-.24.58-.38.91-.86.91-1.49.05-.67,0-1.3-.14-1.87-.05-.05-.14-.1-.24-.1-.53.48-1.1,1.01-1.63,1.54-.34.43-.72.82-1.2,1.2-.43.34-.96.53-1.58.53-.62.05-.86.38-.82.96-.05.53-.24,1.01-.48,1.49-.67,1.15-.96,2.35-.77,3.6.1.53.14,1.01.19,1.49,0,.05.05.1.1.1.19.43.53.72.96.91.48.19.96.19,1.39,0,.38-.1.77-.29,1.1-.48-.05.34-.1.62-.19.91l-.58,1.78c-.14.19-.19.38-.19.62,0,.1-.05.14-.14.24-.34-.1-.62-.19-.91-.38-1.82-1.87-2.64-4.13-2.45-6.77,0-.05,0-.1.05-.19-.05,0-.1,0-.14-.05.1-1.15.24-2.3.38-3.41.1-.48.24-.91.53-1.25.34-.53.67-.53,1.06-.1.14.1.34.1.58.1,1.82-1.49,3.65-2.98,5.42-4.42l.1-.19c-.1-.05-.19-.05-.34,0-.38.14-.86.19-1.34.29-.48.05-.96-.05-1.39-.29-.19-.05-.34-.14-.43-.19-.19-.1-.34-.24-.48-.38-.1-.14-.1-.29,0-.48.14-.19.29-.29.43-.38.38-.34.38-.67.1-1.01-.43-.67-.82-1.39-1.1-2.11-.1-.34-.34-.43-.58-.24-1.34.82-2.74,1.58-4.08,2.35-.29.05-.53.05-.82.1.1-.19.19-.43.34-.67.53-.62,1.1-1.2,1.78-1.68.67-.48,1.39-.96,2.11-1.39.67-.34.96-.82.86-1.49-.1-1.82-.1-3.65-.05-5.57,0-.34.05-.62.24-.91s.48-.43.86-.38c.1,0,.14-.05.19-.14-.05-.24.05-.43.29-.62.19-.19.38-.34.53-.48.24-.24.48-.43.82-.53.38.05.72.14,1.01.38,1.78,1.34,2.69,3.17,2.64,5.42v.53c0,.48.14.58.58.38.1-.1.14-.14.24-.14.62-.05,1.15-.29,1.54-.72.34-.43.53-.96.53-1.54.38-1.68.72-3.36,1.1-5.04.05-.53.34-.96.77-1.25.58-.43,1.15-.82,1.78-1.15.29-.1.53-.05.82.14.67.91,1.34,1.92,1.97,2.98.43.72.82,1.49,1.15,2.26.1.48.05.91-.14,1.34-.19.53-.05.72.48.62.77-.05,1.54-.1,2.3-.05,1.06.1,1.78.62,2.26,1.54.14.48,0,.77-.48.96-1.06.29-2.06.24-3.02-.14,0-.05-.1-.1-.19-.1-.29-.14-.58-.24-.96-.34-.38-.05-.67.05-.86.38-.19.34-.34.67-.43.96-.24.82-.53,1.58-.82,2.35-.34.43-.58.82-.82,1.25-.1.43-.14.82-.14,1.25.05.29,0,.58-.19.72-.58.48-1.2.91-1.82,1.3-.62.38-1.3.67-2.02.77-.19.1-.29.29-.38.48-.1.19-.14.38-.14.58.1.86.48,1.06,1.25.72,1.2-.58,2.45-1.15,3.74-1.73.19-.1.38-.14.62-.1,1.54.29,2.93.96,4.13,2.02,1.1.82,1.82,1.87,2.16,3.17,0,0-.02-.02-.02-.02Zm-13.39,9.79s-.1-.1-.1-.19c-.77-.77-1.54-1.58-2.3-2.4l-.29-.29c-.1.1-.14.14-.24.19,0,.1,0,.19.05.29.48.38.86.82,1.25,1.3.38.48.86.82,1.44,1.06.1,0,.14,0,.19.05h0Zm5.95-12.48c-.62-.1-1.3-.1-1.92,0-.62.14-1.2.38-1.73.72-.1.05-.14.1-.14.24-.24,1.01-.43,1.97-.62,2.98.05.24.1.43.19.62.38-.34.77-.62,1.15-.96.05-.05.05-.14,0-.24,0-.1.05-.19.1-.29.19-.1.43-.24.62-.34.19-.14.38-.1.62.05.72.53,1.34,1.1,1.97,1.68.19.24.24.43.24.72-.14.77-.43,1.54-.77,2.26-.29.48-.58.91-1.01,1.34-.38.38-.86.67-1.44.72-.82.05-1.58.29-2.26.77-.14.05-.29.05-.38.1,0-.14.05-.29.14-.43.29-.72.58-1.39.96-2.11,0-.24,0-.48-.1-.67-.24,0-.43.1-.62.24-.91.53-1.78,1.1-2.64,1.73-.29.14-.29.34-.05.48l4.9,3.79c.48.38.96.29,1.39-.24,1.15-1.15,1.82-2.54,2.02-4.13.29-2.06.53-4.18.77-6.24.14-1.25-.29-2.16-1.39-2.78h0Zm-6.91-9.46c-.24.1-.38.29-.43.58s-.1.58-.1.77c.05.43.1.82.1,1.25,0,.1.05.14.14.24.24,0,.48-.1.67-.24.19-.19.38-.34.48-.58.1-.67.19-1.3.29-1.92.1-.34-.05-.48-.38-.34-.24.05-.48.14-.77.24Z"/><path d="m34.43,0C15.42,0,0,15.42,0,34.43s15.42,34.43,34.43,34.43,34.43-15.42,34.43-34.43S53.45,0,34.43,0Zm0,66.17c-17.53,0-31.73-14.21-31.73-31.73S16.91,2.7,34.43,2.7s31.73,14.21,31.73,31.73-14.21,31.73-31.73,31.73Z"/></svg>