<?xml version="1.0" encoding="UTF-8"?><svg id="_レイヤー_1" xmlns="http://www.w3.org/2000/svg" viewBox="0 0 102.44 54.25"><path d="m94.74,31.03c-6.44,2.14-12.72,4.74-18.8,7.77-3.12,1.63-6.09,3.52-8.89,5.64.27-.54.5-1.12.67-1.73.59-2.86,1.19-5.78,1.73-8.64.27-1.46.27-2.92-.16-4.37-.38-1.46-1.19-2.65-2.43-3.56-1.35-1.19-2.92-1.94-4.64-2.27-.27-.05-.49,0-.7.11-1.46.65-2.86,1.3-4.21,1.94-.86.38-1.3.16-1.4-.81,0-.22.05-.43.16-.65.11-.22.22-.43.43-.54.81-.11,1.57-.43,2.27-.86s1.4-.92,2.05-1.46c.22-.16.27-.49.22-.81,0-.49.05-.92.16-1.4.27-.49.54-.92.92-1.4.32-.86.65-1.73.92-2.65.11-.32.27-.7.49-1.08s.54-.49.97-.43c.43.11.76.22,1.08.38.11,0,.22.05.22.11,1.08.43,2.21.49,3.4.16.54-.22.7-.54.54-1.08-.54-1.03-1.35-1.62-2.54-1.73-.86-.05-1.73,0-2.59.05-.59.11-.76-.11-.54-.7.22-.49.27-.97.16-1.51-.38-.86-.81-1.73-1.3-2.54-.27-.46-.56-.9-.84-1.35,4.16,3.88,8.82,7.2,13.87,9.83,6.08,3.03,12.36,5.63,18.8,7.77,0,0,8.23-1.78,7.67-3.96-.19-.75-11.48-1.9-23.14-7.52S62.31,0,62.31,0c-.08.01-.15.02-.23.03-.01-.02-.03-.03-.03-.03-3.59.5-7.21.78-10.84.83-3.63-.05-7.24-.32-10.84-.83,0,0-.01.02-.03.03-.08-.01-.15-.02-.23-.03,0,0-5.3,6.11-16.96,11.73C11.51,17.36.22,18.5.03,19.26c-.56,2.18,7.67,3.96,7.67,3.96,6.44-2.14,12.72-4.74,18.8-7.77,5.47-2.86,10.5-6.5,14.92-10.82,3.21.46,6.44.71,9.68.73.04,0,.08,0,.13,0,.04,0,.08,0,.13,0,2.03-.02,4.06-.13,6.08-.32-.28.3-.47.67-.51,1.1-.43,1.89-.81,3.78-1.24,5.67,0,.65-.22,1.24-.59,1.73-.43.49-1.03.76-1.73.81-.11,0-.16.05-.27.16-.49.22-.65.11-.65-.43v-.59c.05-2.54-.97-4.59-2.97-6.1-.32-.27-.7-.38-1.13-.43-.38.11-.65.32-.92.59-.16.16-.38.32-.59.54-.27.22-.38.43-.32.7-.05.11-.11.16-.22.16-.43-.05-.76.11-.97.43-.22.32-.27.65-.27,1.03-.05,2.16-.05,4.21.05,6.26.11.76-.22,1.3-.97,1.67-.81.49-1.62,1.03-2.38,1.57-.76.54-1.4,1.19-2,1.89-.16.27-.27.54-.38.76.32-.05.59-.05.92-.11,1.51-.86,3.08-1.73,4.59-2.65.27-.22.54-.11.65.27.32.81.76,1.62,1.24,2.38.32.38.32.76-.11,1.13-.16.11-.32.22-.49.43-.11.22-.11.38,0,.54.16.16.32.32.54.43.11.05.27.16.49.22.49.27,1.03.38,1.57.32.54-.11,1.08-.16,1.51-.32.16-.05.27-.05.38,0l-.11.22c-2,1.62-4.05,3.29-6.1,4.97-.27,0-.49,0-.65-.11-.43-.49-.81-.49-1.19.11-.32.38-.49.86-.59,1.4-.16,1.24-.32,2.54-.43,3.83.05.05.11.05.16.05-.05.11-.05.16-.05.22-.22,2.97.7,5.51,2.75,7.61.32.22.65.32,1.03.43.11-.11.16-.16.16-.27,0-.27.05-.49.22-.7l.65-2c.11-.32.16-.65.22-1.03-.38.22-.81.43-1.24.54-.49.22-1.03.22-1.57,0-.49-.22-.86-.54-1.08-1.03-.05,0-.11-.05-.11-.11-.05-.54-.11-1.08-.22-1.67-.22-1.4.11-2.75.86-4.05.27-.54.49-1.08.54-1.67-.05-.65.22-1.03.92-1.08.7,0,1.3-.22,1.78-.59.54-.43.97-.86,1.35-1.35.59-.59,1.24-1.19,1.84-1.73.11,0,.22.05.27.11.16.65.22,1.35.16,2.11,0,.7-.38,1.24-1.03,1.67-.11.11-.22.16-.27.27-.11.16-.16.27-.16.43.05-.05.16-.11.32-.16l.81-.54c.32-.27.43-.22.38.16-.05,1.03-.11,2.05-.22,3.02-.05.11-.16.27-.27.43-.11-.16-.27-.32-.32-.49l-.54-1.19c-.27-.16-.54-.22-.86-.16-.65.49-1.3,1.03-1.89,1.62-.65.7-.92,1.57-.7,2.48s.81,1.57,1.73,1.94c.38.11.76.11,1.19,0,.49-.27.97-.54,1.46-.81.27,0,.49.05.76.22.27.38.54.76.81,1.19,2.22,3.19,5.02,5.89,8.37,8.05.38.32.86.65,1.4.86.41.15.76.13,1.12-.02-.43.4-.86.79-1.28,1.2-3.21-.46-6.44-.71-9.68-.73-.04,0-.08,0-.13,0-.04,0-.08,0-.13,0-3.24.03-6.47.27-9.68.73-2.05-2-4.23-3.85-6.52-5.55.03,0,.06,0,.1,0,.27-.05.49-.22.65-.43.38-1.03.81-2.11,1.19-3.19.27-.65.43-1.35.43-2.11s.05-1.51.22-2.21c0-.43.11-.81.32-1.13,1.62-2.05,3.19-4,4.81-5.99,0-.11.05-.22.11-.38l-.27.27c-1.51,1.35-3.08,2.7-4.64,4-1.3,1.13-2.59,2.21-3.89,3.29-.16.32-.32.32-.43-.05-.22-.59-.38-1.19-.38-1.78.11-1.24.32-2.43.54-3.67.05-1.08.16-2.16.38-3.19.43-.97.7-2,.97-2.97.32-2.05,1.35-3.73,3.08-4.97,1.24-.81,2.65-1.24,4.16-1.24.49-.05.86-.27,1.24-.65.32-.38.43-.81.32-1.35-.22-.86-.65-1.57-1.24-2.21-.65-.65-1.35-1.19-2.11-1.57-.76-.43-1.57-.76-2.43-.97-.32.05-.65.16-.92.43-.38.27-.76.59-1.08.86-.38.32-.65.7-.81,1.13,0,.27.05.54.16.86-.16,2.11-.65,4.16-1.57,6.16-.54,2.16-1.13,4.32-1.84,6.48-.86,2.97-1.46,5.99-1.84,9.07-.11,1.24-.22,2.54-.38,3.83,0,.11.01.2.05.27-1.08-.65-2.18-1.28-3.3-1.86-6.08-3.03-12.36-5.63-18.8-7.77,0,0-8.23,1.78-7.67,3.96.19.75,11.48,1.9,23.14,7.52,11.66,5.62,16.96,11.73,16.96,11.73.08-.01.15-.02.23-.03.01.02.03.03.03.03,3.59-.5,7.21-.78,10.84-.83,3.63.05,7.24.32,10.84.83,0,0,.01-.02.03-.03.08.01.15.02.23.03,0,0,5.3-6.11,16.96-11.73s22.95-6.77,23.14-7.52c.56-2.18-7.67-3.96-7.67-3.96Zm-42.09-14.35c.05-.32.22-.54.49-.65.32-.11.59-.22.86-.27.38-.16.54,0,.43.38-.11.7-.22,1.4-.32,2.16-.11.27-.32.43-.54.65-.22.16-.49.27-.76.27-.11-.11-.16-.16-.16-.27,0-.49-.05-.92-.11-1.4,0-.22.05-.54.11-.86Zm1.35,23.98c-.65-.27-1.19-.65-1.62-1.19-.43-.54-.86-1.03-1.4-1.46-.05-.11-.05-.22-.05-.32.11-.05.16-.11.27-.22l.32.32c.86.92,1.73,1.84,2.59,2.7,0,.11.05.16.11.22-.05-.05-.11-.05-.22-.05Zm5.35.81c-.49.59-1.03.7-1.57.27l-5.51-4.27c-.27-.16-.27-.38.05-.54.97-.7,1.94-1.35,2.97-1.94.22-.16.43-.27.7-.27.11.22.11.49.11.76-.43.81-.76,1.57-1.08,2.38-.11.16-.16.32-.16.49.11-.05.27-.05.43-.11.76-.54,1.62-.81,2.54-.86.65-.05,1.19-.38,1.62-.81.49-.49.81-.97,1.13-1.51.38-.81.7-1.67.86-2.54,0-.32-.05-.54-.27-.81-.7-.65-1.4-1.3-2.21-1.89-.27-.16-.49-.22-.7-.05-.22.11-.49.27-.7.38-.05.11-.11.22-.11.32.05.11.05.22,0,.27-.43.38-.86.7-1.3,1.08-.11-.22-.16-.43-.22-.7.22-1.13.43-2.21.7-3.35,0-.16.05-.22.16-.27.59-.38,1.24-.65,1.94-.81.7-.11,1.46-.11,2.16,0,1.24.7,1.73,1.73,1.57,3.13-.27,2.32-.54,4.7-.86,7.02-.22,1.78-.97,3.35-2.27,4.64Z" fill="#fff" fill-rule="evenodd"/></svg>