<svg xmlns="http://www.w3.org/2000/svg" width="39.382" height="32" viewBox="0 0 39.382 32">
  <g id="Logo_1_" transform="translate(-1 -1.498)">
    <path id="white_background" d="M36.35,9.464c.024.347.024.694.024,1.045,0,10.676-8.127,22.989-22.989,22.989v-.006A22.873,22.873,0,0,1,1,29.869a16.435,16.435,0,0,0,1.923.117A16.224,16.224,0,0,0,12.958,26.52a8.09,8.09,0,0,1-7.548-5.611,8.054,8.054,0,0,0,3.648-.139,8.08,8.08,0,0,1-6.481-7.919v-.1a8.028,8.028,0,0,0,3.667,1.011,8.09,8.09,0,0,1-2.5-10.788,22.932,22.932,0,0,0,16.652,8.441A8.087,8.087,0,0,1,34.163,4.043a16.213,16.213,0,0,0,5.131-1.961A8.11,8.11,0,0,1,35.742,6.55a16.069,16.069,0,0,0,4.64-1.272A16.414,16.414,0,0,1,36.35,9.464Z" fill="#fff"/>
  </g>
</svg>
