<svg width="506" height="97" viewBox="0 0 506 97" fill="none" xmlns="http://www.w3.org/2000/svg">
<path d="M69.0625 1.02734C68.737 1.22266 68.4766 1.9388 68.2812 3.17578C68.151 4.34766 68.0534 5.64974 67.9883 7.08203C67.9883 8.44922 67.9883 9.78385 67.9883 11.0859C67.9883 12.388 67.9883 13.2344 67.9883 13.625C67.9883 18.8984 68.0208 24.2044 68.0859 29.543C68.151 34.8164 68.1836 40.0898 68.1836 45.3633C68.1836 50.9622 67.0443 55.6172 64.7656 59.3281C62.5521 63.0391 59.6224 66.0013 55.9766 68.2148C52.3307 70.3633 48.1966 71.8932 43.5742 72.8047C38.9518 73.7161 34.2643 74.1719 29.5117 74.1719C26.3867 74.1719 23.1315 73.8789 19.7461 73.293C16.3607 72.707 13.2682 71.6979 10.4688 70.2656C7.73438 68.7682 5.48828 66.7826 3.73047 64.3086C1.90755 61.7695 0.996094 58.5794 0.996094 54.7383C0.996094 53.5013 1.1263 52.2318 1.38672 50.9297C1.64714 49.6276 2.10286 48.4232 2.75391 47.3164L17.0117 49.6602C15.9049 51.5482 15.3516 53.5664 15.3516 55.7148C15.3516 57.9935 15.8724 59.8815 16.9141 61.3789C18.0208 62.8763 19.4206 64.0807 21.1133 64.9922C22.806 65.8385 24.6289 66.457 26.582 66.8477C28.6003 67.1732 30.5534 67.3359 32.4414 67.3359C39.1471 67.3359 44.2253 65.7734 47.6758 62.6484C51.1263 59.5234 52.8516 54.543 52.8516 47.707V35.6953C52.8516 35.2396 52.8516 34.1003 52.8516 32.2773C52.9167 30.4544 52.9492 28.306 52.9492 25.832C52.9492 23.293 52.9167 20.6237 52.8516 17.8242C52.8516 15.0247 52.7865 12.4206 52.6562 10.0117C52.5911 7.60286 52.4284 5.58464 52.168 3.95703C51.9727 2.26432 51.7122 1.28776 51.3867 1.02734H69.0625Z" fill="white"/>
<path d="M108.613 25.9297C112.194 25.9297 115.97 26.4505 119.941 27.4922C123.913 28.4688 127.526 29.9987 130.781 32.082C134.036 34.1003 136.738 36.6719 138.887 39.7969C141.035 42.9219 142.109 46.6003 142.109 50.832C142.109 53.6315 141.589 56.1706 140.547 58.4492C139.505 60.6628 138.105 62.6484 136.348 64.4062C134.655 66.099 132.669 67.5964 130.391 68.8984C128.112 70.1354 125.703 71.1771 123.164 72.0234C120.69 72.8047 118.151 73.3906 115.547 73.7812C112.943 74.1719 110.501 74.3672 108.223 74.3672C104.512 74.3672 100.703 73.944 96.7969 73.0977C92.8906 72.2513 89.3099 70.8841 86.0547 68.9961C82.8646 67.1081 80.2279 64.6667 78.1445 61.6719C76.1263 58.612 75.1172 54.8685 75.1172 50.4414C75.1172 46.0794 76.1589 42.3685 78.2422 39.3086C80.3906 36.1836 83.0924 33.6445 86.3477 31.6914C89.6029 29.6732 93.1836 28.2083 97.0898 27.2969C101.061 26.3854 104.902 25.9297 108.613 25.9297ZM89.7656 50.3438C89.7656 52.8828 90.319 55.0312 91.4258 56.7891C92.5977 58.5469 94.0625 59.9792 95.8203 61.0859C97.6432 62.1927 99.6615 63.0065 101.875 63.5273C104.089 63.9831 106.27 64.2109 108.418 64.2109C110.436 64.2109 112.552 63.9505 114.766 63.4297C116.979 62.9089 119.03 62.0951 120.918 60.9883C122.806 59.8815 124.368 58.4818 125.605 56.7891C126.842 55.0312 127.461 52.9479 127.461 50.5391C127.461 48.1302 126.875 46.0469 125.703 44.2891C124.531 42.4661 123.034 40.9688 121.211 39.7969C119.388 38.5599 117.337 37.6484 115.059 37.0625C112.845 36.4766 110.697 36.1836 108.613 36.1836C106.465 36.1836 104.284 36.4766 102.07 37.0625C99.8568 37.5833 97.8385 38.4297 96.0156 39.6016C94.1927 40.7083 92.6953 42.1732 91.5234 43.9961C90.3516 45.7539 89.7656 47.8698 89.7656 50.3438Z" fill="white"/>
<path d="M184.98 23.8789C188.496 23.8789 191.947 24.3672 195.332 25.3438C198.783 26.2552 201.875 27.6549 204.609 29.543C207.344 31.431 209.557 33.8398 211.25 36.7695C212.943 39.6992 213.789 43.1172 213.789 47.0234C213.789 49.6927 213.236 52.1992 212.129 54.543C211.022 56.8216 209.557 58.9049 207.734 60.793C205.911 62.681 203.861 64.3411 201.582 65.7734C199.368 67.2057 197.155 68.3451 194.941 69.1914C190.319 70.9492 185.566 71.8281 180.684 71.8281C177.949 71.8281 175.247 71.5352 172.578 70.9492C169.974 70.3633 167.467 69.3867 165.059 68.0195C165.124 68.7357 165.189 69.582 165.254 70.5586C165.319 71.4701 165.514 72.2839 165.84 73H148.652C148.978 72.4792 149.271 70.9492 149.531 68.4102C149.857 65.8711 150.15 62.8112 150.41 59.2305C150.671 55.6497 150.898 51.776 151.094 47.6094C151.289 43.4427 151.452 39.4388 151.582 35.5977C151.777 31.7565 151.908 28.306 151.973 25.2461C152.038 22.1862 152.07 19.9727 152.07 18.6055C152.07 17.8893 152.07 16.6523 152.07 14.8945C152.07 13.0716 152.005 11.1836 151.875 9.23047C151.745 7.27734 151.549 5.48698 151.289 3.85938C151.029 2.23177 150.671 1.25521 150.215 0.929688L168.77 1.02734C168.314 1.22266 167.923 1.97135 167.598 3.27344C167.272 4.57552 166.979 6.20312 166.719 8.15625C166.458 10.0443 166.23 12.1276 166.035 14.4062C165.905 16.6849 165.775 18.8659 165.645 20.9492C165.514 22.9674 165.417 24.7904 165.352 26.418C165.286 28.0456 165.254 29.1849 165.254 29.8359C168.118 27.8828 171.243 26.418 174.629 25.4414C178.014 24.3997 181.465 23.8789 184.98 23.8789ZM180.586 62.0625C182.865 62.0625 185.111 61.737 187.324 61.0859C189.603 60.4349 191.654 59.4583 193.477 58.1562C195.299 56.8542 196.764 55.2591 197.871 53.3711C198.978 51.418 199.531 49.1719 199.531 46.6328C199.531 44.2891 199.01 42.2708 197.969 40.5781C196.992 38.8203 195.69 37.388 194.062 36.2812C192.435 35.1094 190.579 34.263 188.496 33.7422C186.478 33.2214 184.427 32.9609 182.344 32.9609C180.456 32.9609 178.503 33.2539 176.484 33.8398C174.466 34.4258 172.578 35.2721 170.82 36.3789C169.128 37.4857 167.728 38.8529 166.621 40.4805C165.514 42.1081 164.928 43.9961 164.863 46.1445V49.9531C164.863 52.0365 165.319 53.8594 166.23 55.4219C167.207 56.9193 168.444 58.1562 169.941 59.1328C171.504 60.1094 173.197 60.8581 175.02 61.3789C176.908 61.8346 178.763 62.0625 180.586 62.0625Z" fill="white"/>
<path d="M321.113 11.0859C320.853 10.9557 319.974 10.8581 318.477 10.793C317.044 10.7279 315.286 10.6953 313.203 10.6953C311.185 10.6302 308.971 10.5977 306.562 10.5977C304.219 10.5326 301.973 10.5 299.824 10.5C297.741 10.5 295.885 10.5 294.258 10.5C292.695 10.5 291.654 10.5 291.133 10.5C290.612 15.3828 290.319 20.2656 290.254 25.1484C290.254 30.0312 290.254 34.9141 290.254 39.7969C290.254 42.9219 290.221 46.0143 290.156 49.0742C290.091 52.1341 290.059 55.2266 290.059 58.3516C290.059 58.8724 290.059 59.8815 290.059 61.3789C290.059 62.8112 290.091 64.3411 290.156 65.9688C290.221 67.5964 290.352 69.0938 290.547 70.4609C290.807 71.8281 291.133 72.6745 291.523 73H274.434C274.889 72.6094 275.215 71.3724 275.41 69.2891C275.671 67.1406 275.866 64.569 275.996 61.5742C276.191 58.5794 276.289 55.3242 276.289 51.8086C276.354 48.293 276.387 44.9401 276.387 41.75C276.387 38.5599 276.354 35.7604 276.289 33.3516C276.289 30.8776 276.289 29.1523 276.289 28.1758C276.289 25.2461 276.257 22.3164 276.191 19.3867C276.191 16.457 276.094 13.5273 275.898 10.5977C271.667 10.5977 267.467 10.6302 263.301 10.6953C259.134 10.6953 254.935 10.7279 250.703 10.793C250.052 10.793 249.238 10.8255 248.262 10.8906C247.22 10.8906 246.146 10.8906 245.039 10.8906C243.932 10.8906 242.891 10.9232 241.914 10.9883C240.872 11.0534 240.059 11.151 239.473 11.2812L239.18 1.125L321.211 0.636719L321.113 11.0859Z" fill="white"/>
<path d="M370.723 23.9766C370.462 24.3672 370.267 25.2786 370.137 26.7109C370.007 28.1432 369.909 29.7057 369.844 31.3984C369.779 33.026 369.746 34.6211 369.746 36.1836C369.746 37.681 369.746 38.7227 369.746 39.3086C369.746 44.6471 369.779 49.9857 369.844 55.3242C369.909 60.5977 369.941 65.8711 369.941 71.1445C369.941 75.181 369.03 78.6966 367.207 81.6914C365.449 84.7513 363.138 87.2578 360.273 89.2109C357.409 91.2292 354.186 92.7266 350.605 93.7031C347.025 94.6797 343.444 95.168 339.863 95.168C335.892 95.168 331.921 95.1354 327.949 95.0703C324.043 95.0052 320.137 94.9401 316.23 94.875L317.207 83.5469C318.184 83.9375 319.551 84.2956 321.309 84.6211C323.132 85.0117 325.02 85.3047 326.973 85.5C328.926 85.7604 330.814 85.9557 332.637 86.0859C334.46 86.2161 335.957 86.2812 337.129 86.2812C340.189 86.2812 342.923 86.0208 345.332 85.5C347.741 84.9792 349.792 84.0677 351.484 82.7656C353.177 81.5286 354.479 79.8034 355.391 77.5898C356.302 75.3763 356.758 72.6094 356.758 69.2891C356.758 68.7031 356.725 68.1172 356.66 67.5312C356.66 66.8802 356.628 66.2617 356.562 65.6758C353.958 67.5638 351.094 68.9635 347.969 69.875C344.844 70.7865 341.686 71.2422 338.496 71.2422C333.809 71.2422 329.902 70.526 326.777 69.0938C323.717 67.5964 321.276 65.5781 319.453 63.0391C317.63 60.4349 316.328 57.375 315.547 53.8594C314.831 50.2786 314.473 46.4049 314.473 42.2383C314.473 40.2201 314.538 38.2018 314.668 36.1836C314.798 34.1654 314.863 32.1471 314.863 30.1289C314.863 29.2174 314.798 28.2409 314.668 27.1992C314.603 26.0924 314.277 25.181 313.691 24.4648L331.465 24.5625C330.944 25.4089 330.456 26.6458 330 28.2734C329.609 29.901 329.284 31.6263 329.023 33.4492C328.763 35.2721 328.568 37.0625 328.438 38.8203C328.307 40.513 328.242 41.8802 328.242 42.9219C328.242 45.526 328.405 47.9349 328.73 50.1484C329.121 52.362 329.837 54.3151 330.879 56.0078C331.921 57.6354 333.32 58.9375 335.078 59.9141C336.901 60.8255 339.245 61.2812 342.109 61.2812C343.281 61.2812 344.616 61.1836 346.113 60.9883C347.611 60.793 349.043 60.4349 350.41 59.9141C351.777 59.3281 352.982 58.5794 354.023 57.668C355.065 56.7565 355.684 55.5846 355.879 54.1523C356.074 52.9805 356.172 51.8086 356.172 50.6367C356.172 49.3997 356.172 48.2279 356.172 47.1211C356.172 46.1445 356.107 44.5169 355.977 42.2383C355.911 39.8945 355.781 37.5182 355.586 35.1094C355.391 32.6354 355.098 30.3568 354.707 28.2734C354.382 26.125 353.958 24.7578 353.438 24.1719L370.723 23.9766Z" fill="white"/>
<path d="M415.059 23.8789C418.574 23.8789 422.025 24.3672 425.41 25.3438C428.861 26.2552 431.953 27.6875 434.688 29.6406C437.422 31.5286 439.635 33.9375 441.328 36.8672C443.021 39.7969 443.867 43.2148 443.867 47.1211C443.867 51.0273 442.793 54.5104 440.645 57.5703C438.496 60.6302 435.762 63.2344 432.441 65.3828C429.186 67.4661 425.605 69.0612 421.699 70.168C417.858 71.2747 414.212 71.8281 410.762 71.8281C408.027 71.8281 405.326 71.5352 402.656 70.9492C399.987 70.3633 397.448 69.3542 395.039 67.9219C394.974 69.9401 394.941 71.9258 394.941 73.8789C394.941 75.8971 394.941 77.9154 394.941 79.9336C394.941 80.6497 394.941 81.8216 394.941 83.4492C394.941 85.1419 394.974 86.8997 395.039 88.7227C395.104 90.5456 395.202 92.2057 395.332 93.7031C395.462 95.2656 395.658 96.2422 395.918 96.6328H378.73C379.056 96.112 379.349 94.582 379.609 92.043C379.935 89.5039 380.228 86.4115 380.488 82.7656C380.749 79.1849 380.977 75.3112 381.172 71.1445C381.367 66.9128 381.53 62.8763 381.66 59.0352C381.855 55.194 381.986 51.7435 382.051 48.6836C382.116 45.5586 382.148 43.3125 382.148 41.9453C382.148 41.2292 382.148 39.9596 382.148 38.1367C382.148 36.3138 382.083 34.4258 381.953 32.4727C381.823 30.4544 381.628 28.6315 381.367 27.0039C381.107 25.3763 380.749 24.3997 380.293 24.0742L398.848 24.2695C398.392 24.7253 398.066 25.4089 397.871 26.3203C397.741 27.1667 397.611 27.9154 397.48 28.5664C400.15 27.069 402.949 25.9297 405.879 25.1484C408.874 24.3021 411.934 23.8789 415.059 23.8789ZM410.664 62.0625C412.943 62.0625 415.189 61.737 417.402 61.0859C419.681 60.4349 421.732 59.4583 423.555 58.1562C425.378 56.8542 426.842 55.2591 427.949 53.3711C429.056 51.418 429.609 49.1719 429.609 46.6328C429.609 44.2891 429.089 42.2708 428.047 40.5781C427.07 38.8203 425.768 37.388 424.141 36.2812C422.513 35.1094 420.658 34.263 418.574 33.7422C416.556 33.2214 414.505 32.9609 412.422 32.9609C409.036 32.9609 405.846 33.6771 402.852 35.1094C399.922 36.5417 397.708 38.8203 396.211 41.9453C396.081 43.8333 395.951 45.6888 395.82 47.5117C395.755 49.3346 395.658 51.1901 395.527 53.0781C396.048 54.7708 396.829 56.2031 397.871 57.375C398.913 58.5469 400.085 59.4909 401.387 60.207C402.754 60.8581 404.219 61.3464 405.781 61.6719C407.409 61.9323 409.036 62.0625 410.664 62.0625Z" fill="white"/>
<path d="M479.414 74.4648C476.224 74.4648 472.839 74.0417 469.258 73.1953C465.677 72.349 462.357 71.0469 459.297 69.2891C456.302 67.4661 453.796 65.1875 451.777 62.4531C449.824 59.7188 448.848 56.4635 448.848 52.6875C448.848 48.0651 449.759 43.931 451.582 40.2852C453.405 36.6393 455.846 33.5794 458.906 31.1055C461.966 28.5664 465.514 26.6458 469.551 25.3438C473.587 23.9766 477.819 23.293 482.246 23.293C485.762 23.293 488.887 23.8789 491.621 25.0508C494.355 26.1576 496.634 27.7526 498.457 29.8359C500.28 31.8542 501.647 34.263 502.559 37.0625C503.535 39.862 504.023 42.9544 504.023 46.3398C504.023 49.5951 503.535 52.7201 502.559 55.7148H461.836C462.487 57.668 463.496 59.263 464.863 60.5C466.296 61.737 467.891 62.7135 469.648 63.4297C471.471 64.0807 473.359 64.5365 475.312 64.7969C477.331 65.0573 479.219 65.1875 480.977 65.1875C482.083 65.1875 483.548 65.1224 485.371 64.9922C487.259 64.7969 489.18 64.5365 491.133 64.2109C493.086 63.8203 494.909 63.3646 496.602 62.8438C498.359 62.3229 499.661 61.6719 500.508 60.8906L505.293 69.2891C500.996 70.9167 496.764 72.1862 492.598 73.0977C488.431 74.0091 484.036 74.4648 479.414 74.4648ZM479.414 32.4727C477.461 32.4727 475.508 32.8633 473.555 33.6445C471.667 34.4258 469.941 35.4674 468.379 36.7695C466.816 38.0065 465.449 39.5039 464.277 41.2617C463.105 42.9544 462.259 44.7122 461.738 46.5352H489.668C489.863 44.582 489.863 42.7591 489.668 41.0664C489.538 39.3086 489.115 37.8112 488.398 36.5742C487.682 35.2721 486.608 34.263 485.176 33.5469C483.743 32.8307 481.823 32.4727 479.414 32.4727Z" fill="white"/>
</svg>
