<svg width="495" height="93" viewBox="0 0 495 93" fill="none" xmlns="http://www.w3.org/2000/svg">
<path d="M96.7305 72C96.9909 71.6745 97.1211 71.1211 97.1211 70.3398C97.1211 69.5586 97.1211 68.9727 97.1211 68.582C97.1211 64.5456 96.8932 60.5091 96.4375 56.4727C96.0469 52.4362 95.5911 48.4323 95.0703 44.4609C94.6797 40.8151 94.224 37.0391 93.7031 33.1328C93.2474 29.2266 92.6615 25.5156 91.9453 22C88.625 26.6875 85.5 31.4727 82.5703 36.3555C79.7057 41.2383 76.8086 46.1536 73.8789 51.1016L68.8984 59.6953C68.3776 60.5417 67.8568 61.4206 67.3359 62.332C66.8802 63.1784 66.3594 63.9922 65.7734 64.7734C64.4062 64.8385 63.0391 64.8711 61.6719 64.8711C60.3047 64.8711 58.9375 64.8711 57.5703 64.8711C56.2031 64.8711 54.8034 64.9036 53.3711 64.9688C52.0039 64.9688 50.6367 64.9036 49.2695 64.7734C48.7487 63.9922 48.2279 63.1784 47.707 62.332C47.2513 61.4206 46.763 60.5091 46.2422 59.5977L41.1641 51.0039C38.2344 46.1211 35.3047 41.2383 32.375 36.3555C29.5104 31.4727 26.418 26.6875 23.0977 22C22.3815 25.5156 21.7956 29.2266 21.3398 33.1328C20.8841 37.0391 20.4284 40.8151 19.9727 44.4609C19.4518 48.4323 18.9635 52.4362 18.5078 56.4727C18.1172 60.5091 17.9219 64.5456 17.9219 68.582C17.9219 68.9727 17.9219 69.5586 17.9219 70.3398C17.9219 71.1211 18.0846 71.6745 18.4102 72H0.539062C0.929688 71.6094 1.32031 70.6328 1.71094 69.0703C2.10156 67.4427 2.45964 65.5221 2.78516 63.3086C3.17578 61.0951 3.5013 58.7188 3.76172 56.1797C4.08724 53.6406 4.34766 51.2318 4.54297 48.9531C4.80339 46.6094 4.9987 44.5586 5.12891 42.8008C5.32422 41.043 5.45443 39.8385 5.51953 39.1875C5.97526 34.1094 6.46354 28.9661 6.98438 23.7578C7.57031 18.5495 7.86328 13.4062 7.86328 8.32812C7.86328 7.9375 7.86328 7.31901 7.86328 6.47266C7.86328 5.5612 7.79818 4.68229 7.66797 3.83594C7.53776 2.92448 7.3099 2.11068 6.98438 1.39453C6.72396 0.678385 6.33333 0.222656 5.8125 0.0273438H29.6406C29.3151 0.222656 29.1523 0.548177 29.1523 1.00391C29.1523 2.17578 29.7383 4.0638 30.9102 6.66797C32.082 9.27214 33.5794 12.2669 35.4023 15.6523C37.2253 18.9727 39.2435 22.4883 41.457 26.1992C43.7357 29.8451 45.9167 33.3607 48 36.7461C50.0833 40.0664 51.9714 43.0612 53.6641 45.7305C55.4219 48.3997 56.724 50.3529 57.5703 51.5898C58.3516 50.3529 59.5885 48.3997 61.2812 45.7305C63.0391 43.0612 64.9596 40.0664 67.043 36.7461C69.1914 33.3607 71.3724 29.8125 73.5859 26.1016C75.7995 22.3906 77.8177 18.875 79.6406 15.5547C81.4635 12.2344 82.9609 9.27214 84.1328 6.66797C85.3047 4.0638 85.8906 2.17578 85.8906 1.00391C85.8906 0.548177 85.7604 0.222656 85.5 0.0273438H109.328C108.742 0.222656 108.286 0.678385 107.961 1.39453C107.701 2.11068 107.505 2.92448 107.375 3.83594C107.245 4.68229 107.18 5.5612 107.18 6.47266C107.18 7.31901 107.18 7.9375 107.18 8.32812C107.18 13.4062 107.44 18.5495 107.961 23.7578C108.547 28.9661 109.1 34.1094 109.621 39.1875C109.686 39.8385 109.784 41.043 109.914 42.8008C110.044 44.5586 110.207 46.6094 110.402 48.9531C110.663 51.2318 110.923 53.6406 111.184 56.1797C111.509 58.7188 111.835 61.0951 112.16 63.3086C112.551 65.5221 112.941 67.4427 113.332 69.0703C113.723 70.6328 114.146 71.6094 114.602 72H96.7305Z" fill="white"/>
<path d="M151.711 73.4648C148.521 73.4648 145.135 73.0417 141.555 72.1953C137.974 71.349 134.654 70.0469 131.594 68.2891C128.599 66.4661 126.092 64.1875 124.074 61.4531C122.121 58.7188 121.145 55.4635 121.145 51.6875C121.145 47.0651 122.056 42.931 123.879 39.2852C125.702 35.6393 128.143 32.5794 131.203 30.1055C134.263 27.5664 137.811 25.6458 141.848 24.3438C145.884 22.9766 150.116 22.293 154.543 22.293C158.059 22.293 161.184 22.8789 163.918 24.0508C166.652 25.1576 168.931 26.7526 170.754 28.8359C172.577 30.8542 173.944 33.263 174.855 36.0625C175.832 38.862 176.32 41.9544 176.32 45.3398C176.32 48.5951 175.832 51.7201 174.855 54.7148H134.133C134.784 56.668 135.793 58.263 137.16 59.5C138.592 60.737 140.188 61.7135 141.945 62.4297C143.768 63.0807 145.656 63.5365 147.609 63.7969C149.628 64.0573 151.516 64.1875 153.273 64.1875C154.38 64.1875 155.845 64.1224 157.668 63.9922C159.556 63.7969 161.477 63.5365 163.43 63.2109C165.383 62.8203 167.206 62.3646 168.898 61.8438C170.656 61.3229 171.958 60.6719 172.805 59.8906L177.59 68.2891C173.293 69.9167 169.061 71.1862 164.895 72.0977C160.728 73.0091 156.333 73.4648 151.711 73.4648ZM151.711 31.4727C149.758 31.4727 147.805 31.8633 145.852 32.6445C143.964 33.4258 142.238 34.4674 140.676 35.7695C139.113 37.0065 137.746 38.5039 136.574 40.2617C135.402 41.9544 134.556 43.7122 134.035 45.5352H161.965C162.16 43.582 162.16 41.7591 161.965 40.0664C161.835 38.3086 161.411 36.8112 160.695 35.5742C159.979 34.2721 158.905 33.263 157.473 32.5469C156.04 31.8307 154.12 31.4727 151.711 31.4727Z" fill="white"/>
<path d="M224.758 43.1914C225.148 42.0846 225.474 40.9453 225.734 39.7734C225.995 38.5365 226.125 37.2995 226.125 36.0625C226.125 33.3281 225.376 31.3099 223.879 30.0078C222.447 28.6406 220.363 27.957 217.629 27.957C216.066 27.957 214.211 28.1523 212.062 28.543C209.979 28.8685 207.993 29.4544 206.105 30.3008C204.217 31.1471 202.59 32.2539 201.223 33.6211C199.921 34.9883 199.27 36.681 199.27 38.6992C199.27 40.1966 199.986 41.4661 201.418 42.5078C202.915 43.4844 204.641 44.2982 206.594 44.9492C208.547 45.5352 210.5 45.9909 212.453 46.3164C214.471 46.6419 216.001 46.9023 217.043 47.0977C218.671 47.4232 220.721 47.8464 223.195 48.3672C225.734 48.8229 228.176 49.5391 230.52 50.5156C232.863 51.4271 234.882 52.599 236.574 54.0312C238.267 55.3984 239.113 57.1562 239.113 59.3047C239.113 61.7135 238.169 63.7318 236.281 65.3594C234.393 66.987 232.115 68.2891 229.445 69.2656C226.841 70.2422 224.107 70.9583 221.242 71.4141C218.378 71.8047 216.001 72 214.113 72C210.207 72 206.333 71.7396 202.492 71.2188C198.651 70.6328 194.875 69.6888 191.164 68.3867C190.708 68.1914 189.96 67.8984 188.918 67.5078C187.876 67.0521 186.77 66.5964 185.598 66.1406C184.491 65.6198 183.449 65.1641 182.473 64.7734C181.496 64.3828 180.878 64.1875 180.617 64.1875C180.747 64.1224 181.203 63.7318 181.984 63.0156C182.766 62.2995 183.579 61.5182 184.426 60.6719C185.337 59.7604 186.151 58.9141 186.867 58.1328C187.583 57.3516 187.974 56.8633 188.039 56.668C191.359 59.1419 195.038 60.9648 199.074 62.1367C203.176 63.3086 207.277 63.8945 211.379 63.8945C211.835 63.8945 212.714 63.862 214.016 63.7969C215.318 63.6667 216.652 63.4714 218.02 63.2109C219.452 62.9505 220.721 62.5924 221.828 62.1367C222.935 61.681 223.488 61.0951 223.488 60.3789C223.488 59.3372 222.577 58.4909 220.754 57.8398C218.931 57.1888 216.62 56.5703 213.82 55.9844C211.086 55.3984 208.124 54.7474 204.934 54.0312C201.743 53.3151 198.749 52.4036 195.949 51.2969C193.215 50.125 190.936 48.6927 189.113 47C187.29 45.3073 186.379 43.1263 186.379 40.457C186.379 36.5508 187.421 33.2305 189.504 30.4961C191.652 27.6966 194.322 25.4505 197.512 23.7578C200.702 22 204.152 20.7305 207.863 19.9492C211.574 19.168 215.057 18.7773 218.312 18.7773C220.982 18.7773 223.553 19.0052 226.027 19.4609C228.501 19.8516 230.682 20.6003 232.57 21.707C234.458 22.8138 235.956 24.3438 237.062 26.2969C238.234 28.25 238.82 30.7891 238.82 33.9141C238.82 35.4766 238.69 37.0391 238.43 38.6016C238.234 40.1641 237.974 41.694 237.648 43.1914H224.758Z" fill="white"/>
<path d="M287.258 43.1914C287.648 42.0846 287.974 40.9453 288.234 39.7734C288.495 38.5365 288.625 37.2995 288.625 36.0625C288.625 33.3281 287.876 31.3099 286.379 30.0078C284.947 28.6406 282.863 27.957 280.129 27.957C278.566 27.957 276.711 28.1523 274.562 28.543C272.479 28.8685 270.493 29.4544 268.605 30.3008C266.717 31.1471 265.09 32.2539 263.723 33.6211C262.421 34.9883 261.77 36.681 261.77 38.6992C261.77 40.1966 262.486 41.4661 263.918 42.5078C265.415 43.4844 267.141 44.2982 269.094 44.9492C271.047 45.5352 273 45.9909 274.953 46.3164C276.971 46.6419 278.501 46.9023 279.543 47.0977C281.171 47.4232 283.221 47.8464 285.695 48.3672C288.234 48.8229 290.676 49.5391 293.02 50.5156C295.363 51.4271 297.382 52.599 299.074 54.0312C300.767 55.3984 301.613 57.1562 301.613 59.3047C301.613 61.7135 300.669 63.7318 298.781 65.3594C296.893 66.987 294.615 68.2891 291.945 69.2656C289.341 70.2422 286.607 70.9583 283.742 71.4141C280.878 71.8047 278.501 72 276.613 72C272.707 72 268.833 71.7396 264.992 71.2188C261.151 70.6328 257.375 69.6888 253.664 68.3867C253.208 68.1914 252.46 67.8984 251.418 67.5078C250.376 67.0521 249.27 66.5964 248.098 66.1406C246.991 65.6198 245.949 65.1641 244.973 64.7734C243.996 64.3828 243.378 64.1875 243.117 64.1875C243.247 64.1224 243.703 63.7318 244.484 63.0156C245.266 62.2995 246.079 61.5182 246.926 60.6719C247.837 59.7604 248.651 58.9141 249.367 58.1328C250.083 57.3516 250.474 56.8633 250.539 56.668C253.859 59.1419 257.538 60.9648 261.574 62.1367C265.676 63.3086 269.777 63.8945 273.879 63.8945C274.335 63.8945 275.214 63.862 276.516 63.7969C277.818 63.6667 279.152 63.4714 280.52 63.2109C281.952 62.9505 283.221 62.5924 284.328 62.1367C285.435 61.681 285.988 61.0951 285.988 60.3789C285.988 59.3372 285.077 58.4909 283.254 57.8398C281.431 57.1888 279.12 56.5703 276.32 55.9844C273.586 55.3984 270.624 54.7474 267.434 54.0312C264.243 53.3151 261.249 52.4036 258.449 51.2969C255.715 50.125 253.436 48.6927 251.613 47C249.79 45.3073 248.879 43.1263 248.879 40.457C248.879 36.5508 249.921 33.2305 252.004 30.4961C254.152 27.6966 256.822 25.4505 260.012 23.7578C263.202 22 266.652 20.7305 270.363 19.9492C274.074 19.168 277.557 18.7773 280.812 18.7773C283.482 18.7773 286.053 19.0052 288.527 19.4609C291.001 19.8516 293.182 20.6003 295.07 21.707C296.958 22.8138 298.456 24.3438 299.562 26.2969C300.734 28.25 301.32 30.7891 301.32 33.9141C301.32 35.4766 301.19 37.0391 300.93 38.6016C300.734 40.1641 300.474 41.694 300.148 43.1914H287.258Z" fill="white"/>
<path d="M346.438 73.1719C347.544 72.8464 348.228 72.1302 348.488 71.0234C348.749 69.8516 348.911 68.8099 348.977 67.8984C346.047 68.8099 343.085 69.4935 340.09 69.9492C337.095 70.4049 334.1 70.6328 331.105 70.6328C329.152 70.6328 326.809 70.4701 324.074 70.1445C321.405 69.819 318.833 69.2005 316.359 68.2891C313.951 67.3776 311.867 66.1081 310.109 64.4805C308.417 62.8529 307.57 60.7044 307.57 58.0352C307.57 55.7565 308.384 53.8034 310.012 52.1758C311.704 50.5482 313.853 49.2135 316.457 48.1719C319.061 47.0651 321.991 46.2188 325.246 45.6328C328.501 45.0469 331.691 44.5911 334.816 44.2656C337.941 43.9401 340.871 43.7448 343.605 43.6797C346.34 43.6146 348.488 43.5495 350.051 43.4844C350.051 42.5729 350.051 41.694 350.051 40.8477C350.116 40.0013 350.148 39.1224 350.148 38.2109C350.148 36.5833 349.855 35.1836 349.27 34.0117C348.684 32.7747 347.87 31.7656 346.828 30.9844C345.852 30.2031 344.68 29.6497 343.312 29.3242C341.945 28.9336 340.513 28.7383 339.016 28.7383C337.583 28.7383 336.021 28.9336 334.328 29.3242C332.701 29.7148 331.138 30.3008 329.641 31.082C328.143 31.8633 326.841 32.8724 325.734 34.1094C324.628 35.2812 323.944 36.6484 323.684 38.2109L311.379 36.5508C312.551 33.556 314.178 31.0169 316.262 28.9336C318.345 26.8503 320.689 25.1576 323.293 23.8555C325.962 22.5534 328.794 21.6094 331.789 21.0234C334.784 20.3724 337.779 20.0469 340.773 20.0469C343.638 20.0469 346.405 20.4049 349.074 21.1211C351.809 21.8372 354.217 22.944 356.301 24.4414C358.449 25.8737 360.142 27.7292 361.379 30.0078C362.681 32.2865 363.332 34.9883 363.332 38.1133C363.332 41.4336 363.267 44.7539 363.137 48.0742C363.072 51.3294 363.039 54.6172 363.039 57.9375C363.039 58.5234 363.039 59.5977 363.039 61.1602C363.039 62.6576 363.072 64.2526 363.137 65.9453C363.267 67.5729 363.43 69.1029 363.625 70.5352C363.82 71.9023 364.113 72.7812 364.504 73.1719H346.438ZM320.852 58.0352C320.852 59.0117 321.372 59.7604 322.414 60.2812C323.456 60.8021 324.66 61.2253 326.027 61.5508C327.46 61.8112 328.859 61.974 330.227 62.0391C331.594 62.1042 332.57 62.1367 333.156 62.1367C335.891 62.1367 338.658 61.9414 341.457 61.5508C344.257 61.1602 346.958 60.5417 349.562 59.6953C349.628 58.5234 349.66 57.3516 349.66 56.1797C349.725 55.0078 349.758 53.8685 349.758 52.7617L347.219 52.6641C346.633 52.6641 345.559 52.6966 343.996 52.7617C342.499 52.7617 340.773 52.8268 338.82 52.957C336.867 53.0221 334.816 53.1849 332.668 53.4453C330.585 53.6406 328.664 53.9336 326.906 54.3242C325.148 54.7148 323.684 55.2357 322.512 55.8867C321.405 56.4727 320.852 57.1888 320.852 58.0352Z" fill="white"/>
<path d="M431.789 23.9531C431.464 24.3438 431.171 25.7109 430.91 28.0547C430.715 30.3333 430.52 33.1654 430.324 36.5508C430.194 39.8711 430.064 43.4844 429.934 47.3906C429.868 51.2318 429.803 54.9427 429.738 58.5234C429.673 62.0391 429.608 65.1641 429.543 67.8984C429.543 70.5677 429.543 72.3581 429.543 73.2695C429.543 79.1289 426.939 83.7513 421.73 87.1367C416.522 90.5221 409.133 92.3776 399.562 92.7031C396.828 92.8333 394.094 92.8659 391.359 92.8008C388.625 92.8008 385.891 92.8333 383.156 92.8984V81.9609C384.133 82.4167 385.337 82.7747 386.77 83.0352C388.202 83.2956 389.699 83.4909 391.262 83.6211C392.824 83.8164 394.322 83.9141 395.754 83.9141C397.251 83.9792 398.521 84.0117 399.562 84.0117C403.143 84.0117 405.975 83.6536 408.059 82.9375C410.207 82.2214 411.835 81.082 412.941 79.5195C414.048 78.0221 414.797 76.0365 415.188 73.5625C415.578 71.1536 415.839 68.224 415.969 64.7734C413.299 66.8568 410.305 68.4518 406.984 69.5586C403.664 70.6654 400.344 71.2188 397.023 71.2188C393.703 71.2188 390.415 70.7305 387.16 69.7539C383.97 68.7773 381.105 67.3451 378.566 65.457C376.027 63.5039 373.944 61.1276 372.316 58.3281C370.754 55.4635 369.973 52.2083 369.973 48.5625C369.973 44.9818 370.949 41.694 372.902 38.6992C374.921 35.7044 377.427 33.1654 380.422 31.082C383.482 28.9987 386.835 27.3711 390.48 26.1992C394.126 25.0273 397.577 24.4414 400.832 24.4414C403.501 24.4414 406.105 24.7669 408.645 25.418C411.184 26.069 413.56 27.1432 415.773 28.6406C415.708 28.1198 415.643 27.3385 415.578 26.2969C415.578 25.2552 415.415 24.474 415.09 23.9531H431.789ZM399.367 62.4297C400.995 62.4297 402.72 62.1693 404.543 61.6484C406.366 61.0625 408.059 60.2812 409.621 59.3047C411.184 58.263 412.486 57.026 413.527 55.5938C414.634 54.0964 415.285 52.4362 415.48 50.6133C415.611 49.832 415.676 49.0182 415.676 48.1719C415.676 47.2604 415.676 46.3815 415.676 45.5352C415.676 43.6471 415.22 41.987 414.309 40.5547C413.397 39.1224 412.225 37.918 410.793 36.9414C409.361 35.9648 407.766 35.2487 406.008 34.793C404.25 34.2721 402.557 34.0117 400.93 34.0117C398.716 34.0117 396.503 34.3372 394.289 34.9883C392.141 35.5742 390.188 36.4857 388.43 37.7227C386.672 38.9596 385.24 40.5221 384.133 42.4102C383.026 44.2982 382.473 46.4792 382.473 48.9531C382.473 51.2969 382.961 53.3151 383.938 55.0078C384.914 56.7005 386.216 58.1003 387.844 59.207C389.471 60.3138 391.262 61.1276 393.215 61.6484C395.233 62.1693 397.284 62.4297 399.367 62.4297Z" fill="white"/>
<path d="M468.41 73.4648C465.22 73.4648 461.835 73.0417 458.254 72.1953C454.673 71.349 451.353 70.0469 448.293 68.2891C445.298 66.4661 442.792 64.1875 440.773 61.4531C438.82 58.7188 437.844 55.4635 437.844 51.6875C437.844 47.0651 438.755 42.931 440.578 39.2852C442.401 35.6393 444.842 32.5794 447.902 30.1055C450.962 27.5664 454.51 25.6458 458.547 24.3438C462.583 22.9766 466.815 22.293 471.242 22.293C474.758 22.293 477.883 22.8789 480.617 24.0508C483.352 25.1576 485.63 26.7526 487.453 28.8359C489.276 30.8542 490.643 33.263 491.555 36.0625C492.531 38.862 493.02 41.9544 493.02 45.3398C493.02 48.5951 492.531 51.7201 491.555 54.7148H450.832C451.483 56.668 452.492 58.263 453.859 59.5C455.292 60.737 456.887 61.7135 458.645 62.4297C460.467 63.0807 462.355 63.5365 464.309 63.7969C466.327 64.0573 468.215 64.1875 469.973 64.1875C471.079 64.1875 472.544 64.1224 474.367 63.9922C476.255 63.7969 478.176 63.5365 480.129 63.2109C482.082 62.8203 483.905 62.3646 485.598 61.8438C487.355 61.3229 488.658 60.6719 489.504 59.8906L494.289 68.2891C489.992 69.9167 485.76 71.1862 481.594 72.0977C477.427 73.0091 473.033 73.4648 468.41 73.4648ZM468.41 31.4727C466.457 31.4727 464.504 31.8633 462.551 32.6445C460.663 33.4258 458.938 34.4674 457.375 35.7695C455.812 37.0065 454.445 38.5039 453.273 40.2617C452.102 41.9544 451.255 43.7122 450.734 45.5352H478.664C478.859 43.582 478.859 41.7591 478.664 40.0664C478.534 38.3086 478.111 36.8112 477.395 35.5742C476.678 34.2721 475.604 33.263 474.172 32.5469C472.74 31.8307 470.819 31.4727 468.41 31.4727Z" fill="white"/>
</svg>
