<svg width="499" height="96" viewBox="0 0 499 96" fill="none" xmlns="http://www.w3.org/2000/svg">
<path d="M63.1426 56.9297C63.9043 57.6068 65.4277 59.0033 67.7129 61.1191C69.998 63.235 72.6217 65.6471 75.584 68.3555C78.6309 71.0638 81.8047 73.8991 85.1055 76.8613C88.4909 79.8236 91.6224 82.5742 94.5 85.1133C97.4622 87.5677 100.001 89.6413 102.117 91.334C104.233 93.0267 105.587 93.9154 106.18 94H79.9004C79.3926 93.3229 78.6732 92.5189 77.7422 91.5879C76.8112 90.5723 75.8379 89.599 74.8223 88.668C73.8066 87.6523 72.791 86.679 71.7754 85.748C70.8444 84.8171 70.0404 84.0553 69.3633 83.4629C65.2161 79.4004 61.0267 75.4648 56.7949 71.6562C52.6478 67.763 48.3737 63.9121 43.9727 60.1035C40.5026 60.5267 37.0749 60.8229 33.6895 60.9922C30.304 61.0768 26.8763 61.2038 23.4062 61.373C23.3216 63.6582 23.2793 65.9434 23.2793 68.2285C23.2793 70.429 23.2793 72.6719 23.2793 74.957C23.2793 75.7188 23.2793 77.0306 23.2793 78.8926C23.2793 80.7546 23.3216 82.7435 23.4062 84.8594C23.4909 86.9753 23.6602 88.9219 23.9141 90.6992C24.2526 92.3919 24.6758 93.4922 25.1836 94H2.9668C3.47461 93.4922 3.89779 91.8841 4.23633 89.1758C4.57487 86.3828 4.82878 83.0397 4.99805 79.1465C5.16732 75.2533 5.29427 71.0638 5.37891 66.5781C5.46354 62.0078 5.50586 57.6491 5.50586 53.502C5.50586 49.3548 5.46354 45.6732 5.37891 42.457C5.37891 39.2409 5.37891 36.998 5.37891 35.7285C5.37891 34.9668 5.37891 33.6126 5.37891 31.666C5.46354 29.7194 5.46354 27.4766 5.37891 24.9375C5.37891 22.3984 5.29427 19.7324 5.125 16.9395C5.04036 14.1465 4.82878 11.5651 4.49023 9.19531C4.15169 6.82552 3.6862 4.83659 3.09375 3.22852C2.5013 1.62044 1.7819 0.689453 0.935547 0.435547C1.18945 0.435547 1.99349 0.435547 3.34766 0.435547C4.78646 0.435547 6.47917 0.435547 8.42578 0.435547C10.457 0.435547 12.5729 0.435547 14.7734 0.435547C17.0586 0.435547 19.1745 0.435547 21.1211 0.435547C23.1523 0.435547 24.8451 0.477865 26.1992 0.5625C27.5534 0.5625 28.3574 0.5625 28.6113 0.5625C31.6582 0.5625 35.5091 0.647135 40.1641 0.816406C44.9036 0.901042 49.8971 1.23958 55.1445 1.83203C60.4766 2.42448 65.8086 3.31315 71.1406 4.49805C76.4727 5.59831 81.2546 7.20638 85.4863 9.32227C89.8027 11.4382 93.3151 14.1042 96.0234 17.3203C98.7318 20.4518 100.086 24.3027 100.086 28.873C100.086 33.2741 98.8164 37.0827 96.2773 40.2988C93.7383 43.4303 90.5645 46.0964 86.7559 48.2969C83.0319 50.4974 79.0117 52.3171 74.6953 53.7559C70.4635 55.11 66.6126 56.168 63.1426 56.9297ZM77.1074 28.6191C77.1074 26.0801 76.0495 23.9642 73.9336 22.2715C71.8177 20.4941 69.0671 19.0977 65.6816 18.082C62.3809 16.9818 58.6569 16.1777 54.5098 15.6699C50.4473 15.1621 46.4694 14.8236 42.5762 14.6543C38.6829 14.4004 35.0859 14.2734 31.7852 14.2734C28.569 14.2734 26.1146 14.2734 24.4219 14.2734C23.9987 19.013 23.7025 23.7526 23.5332 28.4922C23.4486 33.1471 23.4062 37.8444 23.4062 42.584V46.0117C26.707 45.9271 30.0078 45.8424 33.3086 45.7578C36.6094 45.6732 39.8678 45.5039 43.084 45.25C44.6921 45.1654 46.6387 44.9961 48.9238 44.7422C51.209 44.4883 53.6211 44.1497 56.1602 43.7266C58.6992 43.2188 61.196 42.584 63.6504 41.8223C66.1895 41.0605 68.4323 40.0872 70.3789 38.9023C72.4102 37.7174 74.0182 36.2786 75.2031 34.5859C76.4727 32.8932 77.1074 30.9043 77.1074 28.6191Z" fill="white"/>
<path d="M144.012 95.9043C139.865 95.9043 135.464 95.3542 130.809 94.2539C126.154 93.1536 121.837 91.4609 117.859 89.1758C113.966 86.806 110.708 83.8438 108.084 80.2891C105.545 76.7344 104.275 72.5026 104.275 67.5938C104.275 61.5846 105.46 56.2103 107.83 51.4707C110.2 46.7311 113.374 42.7533 117.352 39.5371C121.329 36.2363 125.942 33.7396 131.189 32.0469C136.437 30.2695 141.938 29.3809 147.693 29.3809C152.264 29.3809 156.326 30.1426 159.881 31.666C163.436 33.1048 166.398 35.1784 168.768 37.8867C171.137 40.5104 172.915 43.6419 174.1 47.2812C175.369 50.9206 176.004 54.9408 176.004 59.3418C176.004 63.5736 175.369 67.6361 174.1 71.5293H121.16C122.007 74.0684 123.318 76.1419 125.096 77.75C126.958 79.3581 129.031 80.6276 131.316 81.5586C133.686 82.4049 136.141 82.9974 138.68 83.3359C141.303 83.6745 143.758 83.8438 146.043 83.8438C147.482 83.8438 149.386 83.7591 151.756 83.5898C154.21 83.3359 156.707 82.9974 159.246 82.5742C161.785 82.0664 164.155 81.474 166.355 80.7969C168.641 80.1198 170.333 79.2734 171.434 78.2578L177.654 89.1758C172.068 91.2917 166.567 92.9421 161.15 94.127C155.734 95.3118 150.021 95.9043 144.012 95.9043ZM144.012 41.3145C141.473 41.3145 138.934 41.8223 136.395 42.8379C133.94 43.8535 131.697 45.2077 129.666 46.9004C127.635 48.5085 125.857 50.4551 124.334 52.7402C122.811 54.9408 121.71 57.2259 121.033 59.5957H157.342C157.596 57.0566 157.596 54.6868 157.342 52.4863C157.173 50.2012 156.622 48.2546 155.691 46.6465C154.76 44.9538 153.364 43.6419 151.502 42.7109C149.64 41.7799 147.143 41.3145 144.012 41.3145Z" fill="white"/>
<path d="M238.211 58.0723C239.311 56.8874 240.411 55.4909 241.512 53.8828C242.612 52.2747 243.162 50.6667 243.162 49.0586C243.162 47.5352 242.612 46.3079 241.512 45.377C240.411 44.3613 239.1 43.5996 237.576 43.0918C236.053 42.584 234.445 42.2454 232.752 42.0762C231.144 41.8223 229.79 41.6953 228.689 41.6953C225.219 41.6953 221.961 42.3301 218.914 43.5996C215.867 44.7845 213.201 46.4772 210.916 48.6777C208.631 50.7936 206.811 53.3327 205.457 56.2949C204.188 59.2572 203.553 62.5156 203.553 66.0703C203.553 69.3711 204.23 71.9948 205.584 73.9414C207.023 75.888 208.8 77.3691 210.916 78.3848C213.117 79.3158 215.571 79.9082 218.279 80.1621C220.988 80.416 223.696 80.543 226.404 80.543C230.551 80.543 234.868 80.2044 239.354 79.5273C243.839 78.8503 248.071 77.9193 252.049 76.7344L255.477 88.0332C251.414 89.5566 246.886 90.6992 241.893 91.4609C236.899 92.138 232.202 92.4766 227.801 92.4766C225.177 92.4766 222.299 92.3496 219.168 92.0957C216.121 91.7572 213.032 91.2493 209.9 90.5723C206.769 89.8105 203.722 88.8372 200.76 87.6523C197.882 86.4674 195.301 84.944 193.016 83.082C190.73 81.2201 188.911 79.0195 187.557 76.4805C186.202 73.8568 185.525 70.8522 185.525 67.4668C185.525 61.2884 187.007 55.8717 189.969 51.2168C193.016 46.4772 196.867 42.5417 201.521 39.4102C206.261 36.194 211.466 33.7819 217.137 32.1738C222.892 30.5658 228.52 29.7617 234.021 29.7617C237.068 29.7617 240.115 30.0156 243.162 30.5234C246.209 30.9466 248.96 31.793 251.414 33.0625C253.868 34.332 255.857 36.1094 257.381 38.3945C258.904 40.6797 259.666 43.6419 259.666 47.2812C259.666 49.1432 259.497 50.9629 259.158 52.7402C258.82 54.5176 258.396 56.2949 257.889 58.0723H238.211Z" fill="white"/>
<path d="M288.865 45.7578C290.896 44.0651 293.224 42.457 295.848 40.9336C298.556 39.4102 301.349 38.0983 304.227 36.998C307.189 35.8132 310.151 34.8822 313.113 34.2051C316.16 33.528 318.995 33.1895 321.619 33.1895V44.1074C318.911 44.1074 315.906 44.6999 312.605 45.8848C309.305 47.0697 306.046 48.5931 302.83 50.4551C299.699 52.3171 296.863 54.4329 294.324 56.8027C291.785 59.1725 289.923 61.5846 288.738 64.0391C288.738 64.6315 288.738 65.7318 288.738 67.3398C288.823 68.9479 288.865 70.8099 288.865 72.9258C288.95 75.0417 289.035 77.2845 289.119 79.6543C289.204 81.9395 289.331 84.0977 289.5 86.1289C289.669 88.1602 289.839 89.8952 290.008 91.334C290.177 92.7728 290.389 93.6615 290.643 94H270.076C270.415 93.8307 270.711 92.9421 270.965 91.334C271.219 89.6413 271.388 87.61 271.473 85.2402C271.642 82.8704 271.769 80.3314 271.854 77.623C272.023 74.8301 272.107 72.1641 272.107 69.625C272.192 67.0859 272.234 64.8854 272.234 63.0234C272.234 61.1615 272.234 59.9342 272.234 59.3418C272.234 58.5801 272.234 56.972 272.234 54.5176C272.234 52.0632 272.192 49.4818 272.107 46.7734C272.023 44.0651 271.896 41.5684 271.727 39.2832C271.557 36.9134 271.303 35.4746 270.965 34.9668H289.754C289.585 35.4746 289.458 36.2363 289.373 37.252C289.288 38.1829 289.204 39.1986 289.119 40.2988C289.035 41.3991 288.95 42.457 288.865 43.4727C288.865 44.4883 288.865 45.25 288.865 45.7578Z" fill="white"/>
<path d="M401.6 32.1738C401.261 32.7663 400.923 34.0358 400.584 35.9824C400.33 37.929 400.076 40.2565 399.822 42.9648C399.568 45.5885 399.357 48.4661 399.188 51.5977C399.018 54.7292 398.849 57.7337 398.68 60.6113C398.595 63.4043 398.51 65.9434 398.426 68.2285C398.426 70.429 398.426 72.0371 398.426 73.0527C398.426 73.8991 398.426 75.4225 398.426 77.623C398.426 79.7389 398.51 81.9395 398.68 84.2246C398.934 86.5098 399.23 88.5833 399.568 90.4453C399.992 92.3073 400.584 93.4076 401.346 93.7461L379.002 93.6191L379.51 87.5254C376.294 89.8105 372.781 91.7148 368.973 93.2383C365.164 94.6771 361.271 95.3965 357.293 95.3965C353.315 95.3965 349.464 94.931 345.74 94C342.101 92.9844 338.885 91.4609 336.092 89.4297C333.299 87.3984 331.056 84.8171 329.363 81.6855C327.671 78.4694 326.824 74.6185 326.824 70.1328C326.824 64.4622 327.078 58.834 327.586 53.248C328.178 47.6621 328.475 42.0339 328.475 36.3633C328.475 35.4323 328.432 34.5013 328.348 33.5703C328.348 32.6393 328.263 31.7083 328.094 30.7773H349.549C348.702 32.2161 348.068 34.5013 347.645 37.6328C347.221 40.7643 346.883 44.1074 346.629 47.6621C346.46 51.2168 346.333 54.6868 346.248 58.0723C346.248 61.373 346.248 63.9544 346.248 65.8164C346.248 69.0326 346.502 71.6986 347.01 73.8145C347.518 75.9303 348.364 77.623 349.549 78.8926C350.818 80.1621 352.511 81.0508 354.627 81.5586C356.743 82.0664 359.409 82.3203 362.625 82.3203C364.402 82.3203 366.095 82.0241 367.703 81.4316C369.396 80.7546 371.004 79.9082 372.527 78.8926C374.051 77.877 375.447 76.7344 376.717 75.4648C377.986 74.1953 379.129 72.9258 380.145 71.6562C380.314 67.9323 380.441 64.2507 380.525 60.6113C380.61 56.972 380.652 53.2904 380.652 49.5664C380.652 48.8047 380.652 47.5775 380.652 45.8848C380.652 44.1074 380.61 42.2878 380.525 40.4258C380.441 38.5638 380.271 36.8711 380.018 35.3477C379.848 33.7396 379.594 32.6816 379.256 32.1738H401.6Z" fill="white"/>
<path d="M415.311 34.5859L437.654 34.7129C437.231 34.7975 436.893 35.1784 436.639 35.8555C436.469 36.4479 436.3 36.9134 436.131 37.252C435.538 39.3678 435.073 41.9492 434.734 44.9961C434.48 47.9583 434.269 51.0898 434.1 54.3906C434.015 57.6068 433.93 60.7383 433.846 63.7852C433.846 66.832 433.846 69.498 433.846 71.7832C433.846 72.5449 433.846 74.1107 433.846 76.4805C433.846 78.7656 433.888 81.2201 433.973 83.8438C434.142 86.4674 434.354 88.8796 434.607 91.0801C434.861 93.196 435.242 94.5078 435.75 95.0156H413.279C413.702 94.4232 414.126 93.0267 414.549 90.8262C414.972 88.6257 415.311 86.002 415.564 82.9551C415.903 79.9082 416.199 76.6497 416.453 73.1797C416.707 69.625 416.919 66.2819 417.088 63.1504C417.342 59.9342 417.511 57.099 417.596 54.6445C417.68 52.1055 417.723 50.3704 417.723 49.4395C417.723 48.9316 417.723 47.916 417.723 46.3926C417.723 44.8691 417.638 43.3034 417.469 41.6953C417.299 40.0026 417.046 38.4792 416.707 37.125C416.368 35.6862 415.903 34.8398 415.311 34.5859ZM426.355 3.86328C427.456 3.86328 428.683 4.03255 430.037 4.37109C431.391 4.70964 432.618 5.21745 433.719 5.89453C434.904 6.48698 435.877 7.33333 436.639 8.43359C437.4 9.44922 437.781 10.6341 437.781 11.9883C437.781 13.3424 437.4 14.5273 436.639 15.543C435.877 16.5586 434.904 17.4049 433.719 18.082C432.618 18.6745 431.391 19.14 430.037 19.4785C428.683 19.8171 427.456 19.9863 426.355 19.9863C425.171 19.9863 423.901 19.8171 422.547 19.4785C421.277 19.14 420.05 18.6745 418.865 18.082C417.765 17.4049 416.834 16.5586 416.072 15.543C415.311 14.5273 414.93 13.3424 414.93 11.9883C414.93 10.6341 415.311 9.44922 416.072 8.43359C416.834 7.33333 417.765 6.48698 418.865 5.89453C420.05 5.21745 421.277 4.70964 422.547 4.37109C423.901 4.03255 425.171 3.86328 426.355 3.86328Z" fill="white"/>
<path d="M479.295 48.1699C479.126 52.4863 478.956 56.8451 478.787 61.2461C478.618 65.5625 478.533 69.8789 478.533 74.1953C478.533 75.6341 478.829 76.8613 479.422 77.877C480.014 78.8926 480.776 79.7389 481.707 80.416C482.723 81.0085 483.823 81.4316 485.008 81.6855C486.277 81.9395 487.547 82.0664 488.816 82.0664C490.424 82.0664 491.99 81.9395 493.514 81.6855C495.122 81.4316 496.688 81.0931 498.211 80.6699L496.18 94.2539C491.271 94.2539 486.658 94.127 482.342 93.873C478.025 93.5345 474.259 92.6035 471.043 91.0801C467.827 89.5566 465.288 87.1445 463.426 83.8438C461.564 80.4583 460.633 75.7188 460.633 69.625C460.633 66.0703 460.717 62.5156 460.887 58.9609C461.141 55.3216 461.437 51.7246 461.775 48.1699L442.986 48.2969L443.875 35.8555C446.922 36.1094 450.011 36.2786 453.143 36.3633C456.274 36.3633 459.406 36.3633 462.537 36.3633C462.706 33.9089 462.833 31.5391 462.918 29.2539C463.003 26.8841 463.045 24.472 463.045 22.0176C463.045 21.5098 463.045 20.4941 463.045 18.9707C463.045 17.4473 462.96 15.8815 462.791 14.2734C462.622 12.5807 462.368 11.0573 462.029 9.70312C461.691 8.34896 461.225 7.54492 460.633 7.29102L483.992 7.67188C483.654 7.67188 483.4 7.92578 483.23 8.43359C483.061 8.94141 482.892 9.32227 482.723 9.57617C482.215 11.1842 481.792 13.1309 481.453 15.416C481.199 17.7012 480.945 20.1133 480.691 22.6523C480.522 25.1068 480.353 27.5189 480.184 29.8887C480.099 32.1738 480.014 34.2051 479.93 35.9824C482.807 35.8132 485.727 35.6862 488.689 35.6016C491.652 35.4323 494.572 35.0091 497.449 34.332V48.043L479.295 48.1699Z" fill="white"/>
</svg>
