<svg width="250" height="42" viewBox="0 0 250 42" fill="none" xmlns="http://www.w3.org/2000/svg">
<path d="M39.5234 18.6875C40.1432 17.849 40.7448 16.8828 41.3281 15.7891C41.9479 14.6589 42.2578 13.5286 42.2578 12.3984C42.2578 11.1224 41.8203 10.0833 40.9453 9.28125C40.1068 8.44271 39.0859 7.78646 37.8828 7.3125C36.6797 6.83854 35.4036 6.51042 34.0547 6.32812C32.7422 6.14583 31.5938 6.05469 30.6094 6.05469C28.2396 6.05469 25.8333 6.49219 23.3906 7.36719C20.9844 8.24219 18.7969 9.46354 16.8281 11.0312C14.8594 12.599 13.237 14.4583 11.9609 16.6094C10.7214 18.7604 10.1016 21.112 10.1016 23.6641C10.1016 25.1953 10.375 26.5443 10.9219 27.7109C11.5052 28.8776 12.2708 29.8802 13.2188 30.7188C14.2031 31.5573 15.3151 32.2682 16.5547 32.8516C17.7943 33.4349 19.0885 33.8906 20.4375 34.2188C21.8229 34.5469 23.2083 34.7839 24.5938 34.9297C25.9792 35.0755 27.2734 35.1484 28.4766 35.1484C31.4661 35.1484 34.4375 34.8932 37.3906 34.3828C40.3438 33.8724 43.2786 33.2161 46.1953 32.4141L48.3281 38.1016C46.7604 38.612 45.1016 39.0495 43.3516 39.4141C41.638 39.7786 39.888 40.0703 38.1016 40.2891C36.3516 40.5078 34.5833 40.6719 32.7969 40.7812C31.0469 40.8906 29.3516 40.9453 27.7109 40.9453C26.1068 40.9453 24.3021 40.8359 22.2969 40.6172C20.3281 40.3984 18.3411 40.0521 16.3359 39.5781C14.3307 39.0677 12.362 38.4115 10.4297 37.6094C8.53385 36.8073 6.83854 35.8047 5.34375 34.6016C3.84896 33.3984 2.64583 31.9948 1.73438 30.3906C0.859375 28.7865 0.421875 26.9453 0.421875 24.8672C0.421875 22.3516 0.895833 20 1.84375 17.8125C2.82812 15.5885 4.1224 13.5833 5.72656 11.7969C7.33073 9.97396 9.20833 8.36979 11.3594 6.98438C13.5104 5.5625 15.7708 4.3776 18.1406 3.42969C20.5104 2.44531 22.9167 1.71615 25.3594 1.24219C27.8021 0.731771 30.1536 0.476562 32.4141 0.476562C34.5286 0.476562 36.6797 0.640625 38.8672 0.96875C41.0911 1.29688 43.0964 1.9349 44.8828 2.88281C46.7057 3.79427 48.1823 5.07031 49.3125 6.71094C50.4792 8.3151 51.0625 10.4297 51.0625 13.0547C51.0625 14.0026 50.9896 14.9505 50.8438 15.8984C50.6979 16.8464 50.4792 17.776 50.1875 18.6875H39.5234Z" fill="white"/>
<path d="M72.1172 14.6406C74.1224 14.6406 76.237 14.9323 78.4609 15.5156C80.6849 16.0625 82.7083 16.9193 84.5312 18.0859C86.3542 19.2161 87.8672 20.6562 89.0703 22.4062C90.2734 24.1562 90.875 26.2161 90.875 28.5859C90.875 30.1536 90.5833 31.5755 90 32.8516C89.4167 34.0911 88.6328 35.2031 87.6484 36.1875C86.7005 37.1354 85.5885 37.974 84.3125 38.7031C83.0365 39.3958 81.6875 39.9792 80.2656 40.4531C78.8802 40.8906 77.4583 41.2188 76 41.4375C74.5417 41.6562 73.1745 41.7656 71.8984 41.7656C69.8203 41.7656 67.6875 41.5286 65.5 41.0547C63.3125 40.5807 61.3073 39.8151 59.4844 38.7578C57.6979 37.7005 56.2214 36.3333 55.0547 34.6562C53.9245 32.9427 53.3594 30.8464 53.3594 28.3672C53.3594 25.9245 53.9427 23.8464 55.1094 22.1328C56.3125 20.3828 57.8255 18.9609 59.6484 17.8672C61.4714 16.737 63.4766 15.9167 65.6641 15.4062C67.888 14.8958 70.0391 14.6406 72.1172 14.6406ZM61.5625 28.3125C61.5625 29.7344 61.8724 30.9375 62.4922 31.9219C63.1484 32.9062 63.9688 33.7083 64.9531 34.3281C65.974 34.9479 67.1042 35.4036 68.3438 35.6953C69.5833 35.9505 70.8047 36.0781 72.0078 36.0781C73.138 36.0781 74.3229 35.9323 75.5625 35.6406C76.8021 35.349 77.9505 34.8932 79.0078 34.2734C80.0651 33.6536 80.9401 32.8698 81.6328 31.9219C82.3255 30.9375 82.6719 29.7708 82.6719 28.4219C82.6719 27.0729 82.3438 25.9062 81.6875 24.9219C81.0312 23.901 80.1927 23.0625 79.1719 22.4062C78.151 21.7135 77.0026 21.2031 75.7266 20.875C74.487 20.5469 73.2839 20.3828 72.1172 20.3828C70.9141 20.3828 69.6927 20.5469 68.4531 20.875C67.2135 21.1667 66.0833 21.6406 65.0625 22.2969C64.0417 22.9167 63.2031 23.737 62.5469 24.7578C61.8906 25.7422 61.5625 26.9271 61.5625 28.3125Z" fill="white"/>
<path d="M127.297 24.1562C127.297 26.6719 127.169 29.1693 126.914 31.6484C126.695 34.1276 126.586 36.625 126.586 39.1406C126.586 39.9792 126.641 40.7995 126.75 41.6016H117.18C117.544 41.0182 117.818 40.0521 118 38.7031C118.182 37.3177 118.31 35.8594 118.383 34.3281C118.492 32.7604 118.547 31.2656 118.547 29.8438C118.583 28.3854 118.602 27.2734 118.602 26.5078C118.602 24.2839 118.055 22.5521 116.961 21.3125C115.867 20.0365 114.172 19.3984 111.875 19.3984C111.109 19.3984 110.362 19.5443 109.633 19.8359C108.94 20.0911 108.266 20.4375 107.609 20.875C106.99 21.3125 106.388 21.8047 105.805 22.3516C105.258 22.8984 104.766 23.4453 104.328 23.9922C104.219 27.1641 104.164 30.3359 104.164 33.5078C104.164 33.763 104.164 34.2734 104.164 35.0391C104.164 35.7682 104.182 36.5521 104.219 37.3906C104.255 38.2292 104.31 39.013 104.383 39.7422C104.456 40.4349 104.583 40.8542 104.766 41H95.0859C95.2318 40.7812 95.3776 40.2526 95.5234 39.4141C95.6693 38.5391 95.7969 37.5182 95.9062 36.3516C96.0156 35.1484 96.1068 33.8724 96.1797 32.5234C96.2526 31.1745 96.3073 29.8802 96.3438 28.6406C96.4167 27.401 96.4531 26.3073 96.4531 25.3594C96.4896 24.4115 96.5078 23.7552 96.5078 23.3906C96.5078 23.099 96.4896 22.4974 96.4531 21.5859C96.4531 20.638 96.4167 19.6719 96.3438 18.6875C96.2708 17.6667 96.1432 16.737 95.9609 15.8984C95.8151 15.0599 95.5781 14.5859 95.25 14.4766L104.82 14.5312L104.656 17.1562C106.005 16.1719 107.5 15.3698 109.141 14.75C110.818 14.0938 112.513 13.7656 114.227 13.7656C115.904 13.7656 117.526 13.9479 119.094 14.3125C120.698 14.6406 122.102 15.224 123.305 16.0625C124.508 16.8646 125.474 17.9219 126.203 19.2344C126.932 20.5469 127.297 22.1875 127.297 24.1562Z" fill="white"/>
<path d="M145.727 21.2578C145.654 23.1172 145.581 24.9948 145.508 26.8906C145.435 28.75 145.398 30.6094 145.398 32.4688C145.398 33.0885 145.526 33.6172 145.781 34.0547C146.036 34.4922 146.365 34.8568 146.766 35.1484C147.203 35.4036 147.677 35.5859 148.188 35.6953C148.734 35.8047 149.281 35.8594 149.828 35.8594C150.521 35.8594 151.195 35.8047 151.852 35.6953C152.544 35.5859 153.219 35.4401 153.875 35.2578L153 41.1094C150.885 41.1094 148.898 41.0547 147.039 40.9453C145.18 40.7995 143.557 40.3984 142.172 39.7422C140.786 39.0859 139.693 38.0469 138.891 36.625C138.089 35.1667 137.688 33.125 137.688 30.5C137.688 28.9688 137.724 27.4375 137.797 25.9062C137.906 24.3385 138.034 22.7891 138.18 21.2578L130.086 21.3125L130.469 15.9531C131.781 16.0625 133.112 16.1354 134.461 16.1719C135.81 16.1719 137.159 16.1719 138.508 16.1719C138.581 15.1146 138.635 14.0938 138.672 13.1094C138.708 12.0885 138.727 11.0495 138.727 9.99219C138.727 9.77344 138.727 9.33594 138.727 8.67969C138.727 8.02344 138.69 7.34896 138.617 6.65625C138.544 5.92708 138.435 5.27083 138.289 4.6875C138.143 4.10417 137.943 3.75781 137.688 3.64844L147.75 3.8125C147.604 3.8125 147.495 3.92188 147.422 4.14062C147.349 4.35938 147.276 4.52344 147.203 4.63281C146.984 5.32552 146.802 6.16406 146.656 7.14844C146.547 8.13281 146.438 9.17188 146.328 10.2656C146.255 11.3229 146.182 12.362 146.109 13.3828C146.073 14.3672 146.036 15.2422 146 16.0078C147.24 15.9349 148.497 15.8802 149.773 15.8438C151.049 15.7708 152.307 15.5885 153.547 15.2969V21.2031L145.727 21.2578Z" fill="white"/>
<path d="M178.703 41.6562C179.323 41.474 179.706 41.0729 179.852 40.4531C179.997 39.7969 180.089 39.2135 180.125 38.7031C178.484 39.2135 176.826 39.5964 175.148 39.8516C173.471 40.1068 171.794 40.2344 170.117 40.2344C169.023 40.2344 167.711 40.1432 166.18 39.9609C164.685 39.7786 163.245 39.4323 161.859 38.9219C160.51 38.4115 159.344 37.7005 158.359 36.7891C157.411 35.8776 156.938 34.6745 156.938 33.1797C156.938 31.9036 157.393 30.8099 158.305 29.8984C159.253 28.987 160.456 28.2396 161.914 27.6562C163.372 27.0365 165.013 26.5625 166.836 26.2344C168.659 25.9062 170.445 25.651 172.195 25.4688C173.945 25.2865 175.586 25.1771 177.117 25.1406C178.648 25.1042 179.852 25.0677 180.727 25.0312C180.727 24.5208 180.727 24.0286 180.727 23.5547C180.763 23.0807 180.781 22.5885 180.781 22.0781C180.781 21.1667 180.617 20.3828 180.289 19.7266C179.961 19.0339 179.505 18.4688 178.922 18.0312C178.375 17.5938 177.719 17.2839 176.953 17.1016C176.188 16.8828 175.385 16.7734 174.547 16.7734C173.745 16.7734 172.87 16.8828 171.922 17.1016C171.01 17.3203 170.135 17.6484 169.297 18.0859C168.458 18.5234 167.729 19.0885 167.109 19.7812C166.49 20.4375 166.107 21.2031 165.961 22.0781L159.07 21.1484C159.727 19.4714 160.638 18.0495 161.805 16.8828C162.971 15.7161 164.284 14.7682 165.742 14.0391C167.237 13.3099 168.823 12.7812 170.5 12.4531C172.177 12.0885 173.854 11.9062 175.531 11.9062C177.135 11.9062 178.685 12.1068 180.18 12.5078C181.711 12.9089 183.06 13.5286 184.227 14.3672C185.43 15.1693 186.378 16.2083 187.07 17.4844C187.799 18.7604 188.164 20.2734 188.164 22.0234C188.164 23.8828 188.128 25.7422 188.055 27.6016C188.018 29.4245 188 31.2656 188 33.125C188 33.4531 188 34.0547 188 34.9297C188 35.7682 188.018 36.6615 188.055 37.6094C188.128 38.5208 188.219 39.3776 188.328 40.1797C188.438 40.9453 188.602 41.4375 188.82 41.6562H178.703ZM164.375 33.1797C164.375 33.7266 164.667 34.1458 165.25 34.4375C165.833 34.7292 166.508 34.9661 167.273 35.1484C168.076 35.2943 168.859 35.3854 169.625 35.4219C170.391 35.4583 170.938 35.4766 171.266 35.4766C172.797 35.4766 174.346 35.3672 175.914 35.1484C177.482 34.9297 178.995 34.5833 180.453 34.1094C180.49 33.4531 180.508 32.7969 180.508 32.1406C180.544 31.4844 180.562 30.8464 180.562 30.2266L179.141 30.1719C178.812 30.1719 178.211 30.1901 177.336 30.2266C176.497 30.2266 175.531 30.263 174.438 30.3359C173.344 30.3724 172.195 30.4635 170.992 30.6094C169.826 30.7188 168.75 30.8828 167.766 31.1016C166.781 31.3203 165.961 31.612 165.305 31.9766C164.685 32.3047 164.375 32.7057 164.375 33.1797Z" fill="white"/>
<path d="M215.18 25.5234C215.654 25.013 216.128 24.4115 216.602 23.7188C217.076 23.026 217.312 22.3333 217.312 21.6406C217.312 20.9844 217.076 20.4557 216.602 20.0547C216.128 19.6172 215.562 19.2891 214.906 19.0703C214.25 18.8516 213.557 18.7057 212.828 18.6328C212.135 18.5234 211.552 18.4688 211.078 18.4688C209.583 18.4688 208.18 18.7422 206.867 19.2891C205.555 19.7995 204.406 20.5286 203.422 21.4766C202.438 22.388 201.654 23.4818 201.07 24.7578C200.523 26.0339 200.25 27.4375 200.25 28.9688C200.25 30.3906 200.542 31.5208 201.125 32.3594C201.745 33.1979 202.51 33.8359 203.422 34.2734C204.37 34.6745 205.427 34.9297 206.594 35.0391C207.76 35.1484 208.927 35.2031 210.094 35.2031C211.88 35.2031 213.74 35.0573 215.672 34.7656C217.604 34.474 219.427 34.0729 221.141 33.5625L222.617 38.4297C220.867 39.0859 218.917 39.5781 216.766 39.9062C214.615 40.1979 212.591 40.3438 210.695 40.3438C209.565 40.3438 208.326 40.2891 206.977 40.1797C205.664 40.0339 204.333 39.8151 202.984 39.5234C201.635 39.1953 200.323 38.776 199.047 38.2656C197.807 37.7552 196.695 37.099 195.711 36.2969C194.727 35.4948 193.943 34.5469 193.359 33.4531C192.776 32.3229 192.484 31.0286 192.484 29.5703C192.484 26.9089 193.122 24.5755 194.398 22.5703C195.711 20.5286 197.37 18.8333 199.375 17.4844C201.417 16.099 203.659 15.0599 206.102 14.3672C208.581 13.6745 211.005 13.3281 213.375 13.3281C214.688 13.3281 216 13.4375 217.312 13.6562C218.625 13.8385 219.81 14.2031 220.867 14.75C221.924 15.2969 222.781 16.0625 223.438 17.0469C224.094 18.0312 224.422 19.3073 224.422 20.875C224.422 21.6771 224.349 22.4609 224.203 23.2266C224.057 23.9922 223.875 24.7578 223.656 25.5234H215.18Z" fill="white"/>
<path d="M241.758 21.2578C241.685 23.1172 241.612 24.9948 241.539 26.8906C241.466 28.75 241.43 30.6094 241.43 32.4688C241.43 33.0885 241.557 33.6172 241.812 34.0547C242.068 34.4922 242.396 34.8568 242.797 35.1484C243.234 35.4036 243.708 35.5859 244.219 35.6953C244.766 35.8047 245.312 35.8594 245.859 35.8594C246.552 35.8594 247.227 35.8047 247.883 35.6953C248.576 35.5859 249.25 35.4401 249.906 35.2578L249.031 41.1094C246.917 41.1094 244.93 41.0547 243.07 40.9453C241.211 40.7995 239.589 40.3984 238.203 39.7422C236.818 39.0859 235.724 38.0469 234.922 36.625C234.12 35.1667 233.719 33.125 233.719 30.5C233.719 28.9688 233.755 27.4375 233.828 25.9062C233.938 24.3385 234.065 22.7891 234.211 21.2578L226.117 21.3125L226.5 15.9531C227.812 16.0625 229.143 16.1354 230.492 16.1719C231.841 16.1719 233.19 16.1719 234.539 16.1719C234.612 15.1146 234.667 14.0938 234.703 13.1094C234.74 12.0885 234.758 11.0495 234.758 9.99219C234.758 9.77344 234.758 9.33594 234.758 8.67969C234.758 8.02344 234.721 7.34896 234.648 6.65625C234.576 5.92708 234.466 5.27083 234.32 4.6875C234.174 4.10417 233.974 3.75781 233.719 3.64844L243.781 3.8125C243.635 3.8125 243.526 3.92188 243.453 4.14062C243.38 4.35938 243.307 4.52344 243.234 4.63281C243.016 5.32552 242.833 6.16406 242.688 7.14844C242.578 8.13281 242.469 9.17188 242.359 10.2656C242.286 11.3229 242.214 12.362 242.141 13.3828C242.104 14.3672 242.068 15.2422 242.031 16.0078C243.271 15.9349 244.529 15.8802 245.805 15.8438C247.081 15.7708 248.339 15.5885 249.578 15.2969V21.2031L241.758 21.2578Z" fill="white"/>
</svg>
