<svg width="191" height="98" viewBox="0 0 191 98" fill="none" xmlns="http://www.w3.org/2000/svg">
<path d="M24.0469 0.367188C27.0365 0.367188 29.9531 0.859375 32.7969 1.84375C35.6406 2.82812 38.1562 4.25 40.3438 6.10938C42.5677 7.93229 44.3359 10.1562 45.6484 12.7812C46.9974 15.3698 47.6719 18.2865 47.6719 21.5312C47.6719 24.7396 46.9609 27.5833 45.5391 30.0625C44.1536 32.5417 42.3307 34.638 40.0703 36.3516C37.8099 38.0286 35.2578 39.3047 32.4141 40.1797C29.5703 41.0547 26.7083 41.4922 23.8281 41.4922C20.6927 41.4922 17.7031 41.0729 14.8594 40.2344C12.0521 39.3594 9.57292 38.0833 7.42188 36.4062C5.30729 34.6927 3.61198 32.5781 2.33594 30.0625C1.0599 27.5104 0.421875 24.5391 0.421875 21.1484C0.421875 17.7943 1.07812 14.8229 2.39062 12.2344C3.73958 9.64583 5.50781 7.47656 7.69531 5.72656C9.88281 3.97656 12.3984 2.64583 15.2422 1.73438C18.0859 0.822917 21.0208 0.367188 24.0469 0.367188ZM9.60938 21.0938C9.60938 23.1354 9.95573 25.0677 10.6484 26.8906C11.3776 28.7135 12.3802 30.3177 13.6562 31.7031C14.9323 33.0521 16.4271 34.1276 18.1406 34.9297C19.8906 35.7318 21.8047 36.1328 23.8828 36.1328C25.8151 36.1328 27.6562 35.7318 29.4062 34.9297C31.1927 34.0911 32.7422 32.9974 34.0547 31.6484C35.4036 30.263 36.4792 28.6953 37.2812 26.9453C38.0833 25.1589 38.4844 23.2995 38.4844 21.3672C38.4844 18.7057 38.1016 16.4089 37.3359 14.4766C36.5703 12.5078 35.5312 10.8854 34.2188 9.60938C32.9062 8.29688 31.375 7.33073 29.625 6.71094C27.875 6.05469 26.0156 5.72656 24.0469 5.72656C22.0052 5.72656 20.1094 6.16406 18.3594 7.03906C16.6094 7.8776 15.0781 9.00781 13.7656 10.4297C12.4896 11.8516 11.4688 13.4922 10.7031 15.3516C9.97396 17.1745 9.60938 19.0885 9.60938 21.0938Z" fill="white"/>
<path d="M84.3672 24.1562C84.3672 26.6719 84.2396 29.1693 83.9844 31.6484C83.7656 34.1276 83.6562 36.625 83.6562 39.1406C83.6562 39.9792 83.7109 40.7995 83.8203 41.6016H74.25C74.6146 41.0182 74.888 40.0521 75.0703 38.7031C75.2526 37.3177 75.3802 35.8594 75.4531 34.3281C75.5625 32.7604 75.6172 31.2656 75.6172 29.8438C75.6536 28.3854 75.6719 27.2734 75.6719 26.5078C75.6719 24.2839 75.125 22.5521 74.0312 21.3125C72.9375 20.0365 71.2422 19.3984 68.9453 19.3984C68.1797 19.3984 67.4323 19.5443 66.7031 19.8359C66.0104 20.0911 65.3359 20.4375 64.6797 20.875C64.0599 21.3125 63.4583 21.8047 62.875 22.3516C62.3281 22.8984 61.8359 23.4453 61.3984 23.9922C61.2891 27.1641 61.2344 30.3359 61.2344 33.5078C61.2344 33.763 61.2344 34.2734 61.2344 35.0391C61.2344 35.7682 61.2526 36.5521 61.2891 37.3906C61.3255 38.2292 61.3802 39.013 61.4531 39.7422C61.526 40.4349 61.6536 40.8542 61.8359 41H52.1562C52.3021 40.7812 52.4479 40.2526 52.5938 39.4141C52.7396 38.5391 52.8672 37.5182 52.9766 36.3516C53.0859 35.1484 53.1771 33.8724 53.25 32.5234C53.3229 31.1745 53.3776 29.8802 53.4141 28.6406C53.487 27.401 53.5234 26.3073 53.5234 25.3594C53.5599 24.4115 53.5781 23.7552 53.5781 23.3906C53.5781 23.099 53.5599 22.4974 53.5234 21.5859C53.5234 20.638 53.487 19.6719 53.4141 18.6875C53.3411 17.6667 53.2135 16.737 53.0312 15.8984C52.8854 15.0599 52.6484 14.5859 52.3203 14.4766L61.8906 14.5312L61.7266 17.1562C63.0755 16.1719 64.5703 15.3698 66.2109 14.75C67.888 14.0938 69.5833 13.7656 71.2969 13.7656C72.974 13.7656 74.5964 13.9479 76.1641 14.3125C77.7682 14.6406 79.1719 15.224 80.375 16.0625C81.5781 16.8646 82.5443 17.9219 83.2734 19.2344C84.0026 20.5469 84.3672 22.1875 84.3672 24.1562Z" fill="white"/>
<path d="M90.4922 41.4922C90.6745 41.2005 90.8568 40.3255 91.0391 38.8672C91.2214 37.3724 91.3672 35.6042 91.4766 33.5625C91.6224 31.4844 91.75 29.2604 91.8594 26.8906C91.9688 24.4844 92.0599 22.2057 92.1328 20.0547C92.2422 17.9036 92.3151 16.0078 92.3516 14.3672C92.388 12.7266 92.4062 11.6146 92.4062 11.0312C92.4062 10.7031 92.4062 10.0469 92.4062 9.0625C92.4062 8.04167 92.3698 6.96615 92.2969 5.83594C92.2604 4.70573 92.1693 3.6849 92.0234 2.77344C91.8776 1.82552 91.6589 1.26042 91.3672 1.07812L101.812 1.1875C101.63 1.22396 101.484 1.44271 101.375 1.84375C101.302 2.24479 101.247 2.51823 101.211 2.66406C100.81 4.48698 100.555 6.34635 100.445 8.24219C100.336 10.1016 100.227 11.9609 100.117 13.8203C99.9349 16.9193 99.7891 19.9818 99.6797 23.0078C99.6068 26.0339 99.5703 29.0964 99.5703 32.1953C99.5703 32.487 99.5703 33.1068 99.5703 34.0547C99.5703 34.9661 99.5885 35.9323 99.625 36.9531C99.6615 37.974 99.7161 38.9401 99.7891 39.8516C99.862 40.7266 99.9896 41.2734 100.172 41.4922H90.4922Z" fill="white"/>
<path d="M107.445 15.4062L117.07 15.4609C116.888 15.4974 116.742 15.6615 116.633 15.9531C116.56 16.2083 116.487 16.4089 116.414 16.5547C116.159 17.4661 115.958 18.5781 115.812 19.8906C115.703 21.1667 115.612 22.5156 115.539 23.9375C115.503 25.3229 115.466 26.6719 115.43 27.9844C115.43 29.2969 115.43 30.4453 115.43 31.4297C115.43 31.7578 115.43 32.4323 115.43 33.4531C115.43 34.4375 115.448 35.4948 115.484 36.625C115.557 37.7552 115.648 38.7943 115.758 39.7422C115.867 40.6536 116.031 41.2188 116.25 41.4375H106.57C106.753 41.1823 106.935 40.5807 107.117 39.6328C107.299 38.6849 107.445 37.5547 107.555 36.2422C107.701 34.9297 107.828 33.526 107.938 32.0312C108.047 30.5 108.138 29.0599 108.211 27.7109C108.32 26.3255 108.393 25.1042 108.43 24.0469C108.466 22.9531 108.484 22.2057 108.484 21.8047C108.484 21.5859 108.484 21.1484 108.484 20.4922C108.484 19.8359 108.448 19.1615 108.375 18.4688C108.302 17.7396 108.193 17.0833 108.047 16.5C107.901 15.8802 107.701 15.5156 107.445 15.4062ZM112.203 2.17188C112.677 2.17188 113.206 2.24479 113.789 2.39062C114.372 2.53646 114.901 2.75521 115.375 3.04688C115.885 3.30208 116.305 3.66667 116.633 4.14062C116.961 4.57812 117.125 5.08854 117.125 5.67188C117.125 6.25521 116.961 6.76562 116.633 7.20312C116.305 7.64062 115.885 8.00521 115.375 8.29688C114.901 8.55208 114.372 8.7526 113.789 8.89844C113.206 9.04427 112.677 9.11719 112.203 9.11719C111.693 9.11719 111.146 9.04427 110.562 8.89844C110.016 8.7526 109.487 8.55208 108.977 8.29688C108.503 8.00521 108.102 7.64062 107.773 7.20312C107.445 6.76562 107.281 6.25521 107.281 5.67188C107.281 5.08854 107.445 4.57812 107.773 4.14062C108.102 3.66667 108.503 3.30208 108.977 3.04688C109.487 2.75521 110.016 2.53646 110.562 2.39062C111.146 2.24479 111.693 2.17188 112.203 2.17188Z" fill="white"/>
<path d="M154.641 24.1562C154.641 26.6719 154.513 29.1693 154.258 31.6484C154.039 34.1276 153.93 36.625 153.93 39.1406C153.93 39.9792 153.984 40.7995 154.094 41.6016H144.523C144.888 41.0182 145.161 40.0521 145.344 38.7031C145.526 37.3177 145.654 35.8594 145.727 34.3281C145.836 32.7604 145.891 31.2656 145.891 29.8438C145.927 28.3854 145.945 27.2734 145.945 26.5078C145.945 24.2839 145.398 22.5521 144.305 21.3125C143.211 20.0365 141.516 19.3984 139.219 19.3984C138.453 19.3984 137.706 19.5443 136.977 19.8359C136.284 20.0911 135.609 20.4375 134.953 20.875C134.333 21.3125 133.732 21.8047 133.148 22.3516C132.602 22.8984 132.109 23.4453 131.672 23.9922C131.562 27.1641 131.508 30.3359 131.508 33.5078C131.508 33.763 131.508 34.2734 131.508 35.0391C131.508 35.7682 131.526 36.5521 131.562 37.3906C131.599 38.2292 131.654 39.013 131.727 39.7422C131.799 40.4349 131.927 40.8542 132.109 41H122.43C122.576 40.7812 122.721 40.2526 122.867 39.4141C123.013 38.5391 123.141 37.5182 123.25 36.3516C123.359 35.1484 123.451 33.8724 123.523 32.5234C123.596 31.1745 123.651 29.8802 123.688 28.6406C123.76 27.401 123.797 26.3073 123.797 25.3594C123.833 24.4115 123.852 23.7552 123.852 23.3906C123.852 23.099 123.833 22.4974 123.797 21.5859C123.797 20.638 123.76 19.6719 123.688 18.6875C123.615 17.6667 123.487 16.737 123.305 15.8984C123.159 15.0599 122.922 14.5859 122.594 14.4766L132.164 14.5312L132 17.1562C133.349 16.1719 134.844 15.3698 136.484 14.75C138.161 14.0938 139.857 13.7656 141.57 13.7656C143.247 13.7656 144.87 13.9479 146.438 14.3125C148.042 14.6406 149.445 15.224 150.648 16.0625C151.852 16.8646 152.818 17.9219 153.547 19.2344C154.276 20.5469 154.641 22.1875 154.641 24.1562Z" fill="white"/>
<path d="M175.969 41.8203C174.182 41.8203 172.286 41.5833 170.281 41.1094C168.276 40.6354 166.417 39.9062 164.703 38.9219C163.026 37.901 161.622 36.625 160.492 35.0938C159.398 33.5625 158.852 31.7396 158.852 29.625C158.852 27.0365 159.362 24.7214 160.383 22.6797C161.404 20.638 162.771 18.9245 164.484 17.5391C166.198 16.1172 168.185 15.0417 170.445 14.3125C172.706 13.5469 175.076 13.1641 177.555 13.1641C179.523 13.1641 181.273 13.4922 182.805 14.1484C184.336 14.7682 185.612 15.6615 186.633 16.8281C187.654 17.9583 188.419 19.3073 188.93 20.875C189.477 22.4427 189.75 24.1745 189.75 26.0703C189.75 27.8932 189.477 29.6432 188.93 31.3203H166.125C166.49 32.4141 167.055 33.3073 167.82 34C168.622 34.6927 169.516 35.2396 170.5 35.6406C171.521 36.0052 172.578 36.2604 173.672 36.4062C174.802 36.5521 175.859 36.625 176.844 36.625C177.464 36.625 178.284 36.5885 179.305 36.5156C180.362 36.4062 181.438 36.2604 182.531 36.0781C183.625 35.8594 184.646 35.6042 185.594 35.3125C186.578 35.0208 187.307 34.6562 187.781 34.2188L190.461 38.9219C188.055 39.8333 185.685 40.5443 183.352 41.0547C181.018 41.5651 178.557 41.8203 175.969 41.8203ZM175.969 18.3047C174.875 18.3047 173.781 18.5234 172.688 18.9609C171.63 19.3984 170.664 19.9818 169.789 20.7109C168.914 21.4036 168.148 22.2422 167.492 23.2266C166.836 24.1745 166.362 25.1589 166.07 26.1797H181.711C181.82 25.0859 181.82 24.0651 181.711 23.1172C181.638 22.1328 181.401 21.2943 181 20.6016C180.599 19.8724 179.997 19.3073 179.195 18.9062C178.393 18.5052 177.318 18.3047 175.969 18.3047Z" fill="white"/>
<path d="M36.6797 75.0703C36.862 74.2682 37.026 73.4844 37.1719 72.7188C37.3177 71.9167 37.3906 71.0964 37.3906 70.2578C37.3906 68.6172 37.099 67.2682 36.5156 66.2109C35.9323 65.1172 35.1302 64.2604 34.1094 63.6406C33.125 62.9844 31.9766 62.5469 30.6641 62.3281C29.388 62.0729 28.0391 61.9453 26.6172 61.9453C25.7422 61.9453 24.7396 62.0182 23.6094 62.1641C22.4792 62.2734 21.3125 62.474 20.1094 62.7656C18.9427 63.0208 17.776 63.3672 16.6094 63.8047C15.4427 64.2422 14.4036 64.7891 13.4922 65.4453C12.6172 66.1016 11.888 66.8854 11.3047 67.7969C10.7578 68.6719 10.4844 69.6745 10.4844 70.8047C10.4844 71.7891 10.8307 72.6458 11.5234 73.375C12.2526 74.0677 13.1641 74.6693 14.2578 75.1797C15.388 75.6901 16.6458 76.1094 18.0312 76.4375C19.4167 76.7656 20.7839 77.0573 22.1328 77.3125C23.4818 77.5312 24.7396 77.7135 25.9062 77.8594C27.0729 77.9688 28.0026 78.0781 28.6953 78.1875C29.5703 78.3333 30.6276 78.5156 31.8672 78.7344C33.1432 78.9167 34.4557 79.1719 35.8047 79.5C37.1536 79.8281 38.4844 80.2292 39.7969 80.7031C41.1458 81.1771 42.349 81.7604 43.4062 82.4531C44.4635 83.1094 45.3203 83.8932 45.9766 84.8047C46.6328 85.6797 46.9609 86.7005 46.9609 87.8672C46.9609 89.1068 46.6146 90.2005 45.9219 91.1484C45.2656 92.0964 44.3724 92.9349 43.2422 93.6641C42.1484 94.3568 40.9089 94.9401 39.5234 95.4141C38.1745 95.8516 36.7891 96.2161 35.3672 96.5078C33.9818 96.7995 32.651 97 31.375 97.1094C30.099 97.2188 29.0234 97.2734 28.1484 97.2734C24.2839 97.2734 20.4557 96.9635 16.6641 96.3438C12.8724 95.6875 9.17188 94.6484 5.5625 93.2266C5.19792 93.0807 4.77865 92.9167 4.30469 92.7344C3.83073 92.5156 3.33854 92.2969 2.82812 92.0781C2.31771 91.8594 1.82552 91.6771 1.35156 91.5312C0.877604 91.3854 0.458333 91.2943 0.09375 91.2578C0.3125 91.0391 0.640625 90.7292 1.07812 90.3281C1.55208 89.9271 2.00781 89.4896 2.44531 89.0156C2.91927 88.5417 3.33854 88.1042 3.70312 87.7031C4.10417 87.2656 4.34115 86.9375 4.41406 86.7188C7.6224 88.6875 11.1224 90.1458 14.9141 91.0938C18.7422 92.0417 22.5339 92.5156 26.2891 92.5156C26.9089 92.5156 27.875 92.4792 29.1875 92.4062C30.5365 92.2969 31.8672 92.0964 33.1797 91.8047C34.5286 91.513 35.6953 91.112 36.6797 90.6016C37.7005 90.0547 38.2109 89.3438 38.2109 88.4688C38.2109 87.3021 37.6823 86.3724 36.625 85.6797C35.6042 84.987 34.237 84.4219 32.5234 83.9844C30.8099 83.5104 28.8594 83.1458 26.6719 82.8906C24.4844 82.599 22.2422 82.2891 19.9453 81.9609C17.6849 81.6328 15.4609 81.25 13.2734 80.8125C11.0859 80.3385 9.13542 79.7188 7.42188 78.9531C5.70833 78.151 4.32292 77.1484 3.26562 75.9453C2.24479 74.7422 1.73438 73.2292 1.73438 71.4062C1.73438 69.474 2.11719 67.7604 2.88281 66.2656C3.6849 64.7708 4.74219 63.4583 6.05469 62.3281C7.40365 61.1979 8.91667 60.25 10.5938 59.4844C12.3073 58.7188 14.0755 58.099 15.8984 57.625C17.7578 57.151 19.599 56.8047 21.4219 56.5859C23.2448 56.3672 24.9219 56.2578 26.4531 56.2578C29.0052 56.2578 31.4297 56.4583 33.7266 56.8594C36.0234 57.2604 38.0104 57.9896 39.6875 59.0469C41.401 60.1042 42.75 61.5807 43.7344 63.4766C44.7552 65.3724 45.2656 67.8151 45.2656 70.8047C45.2656 71.5339 45.2292 72.2448 45.1562 72.9375C45.1198 73.6302 45.0651 74.3411 44.9922 75.0703H36.6797Z" fill="white"/>
<path d="M64.2969 77.2578C64.224 79.1172 64.151 80.9948 64.0781 82.8906C64.0052 84.75 63.9688 86.6094 63.9688 88.4688C63.9688 89.0885 64.0964 89.6172 64.3516 90.0547C64.6068 90.4922 64.9349 90.8568 65.3359 91.1484C65.7734 91.4036 66.2474 91.5859 66.7578 91.6953C67.3047 91.8047 67.8516 91.8594 68.3984 91.8594C69.0911 91.8594 69.7656 91.8047 70.4219 91.6953C71.1146 91.5859 71.7891 91.4401 72.4453 91.2578L71.5703 97.1094C69.4557 97.1094 67.4688 97.0547 65.6094 96.9453C63.75 96.7995 62.1276 96.3984 60.7422 95.7422C59.3568 95.0859 58.263 94.0469 57.4609 92.625C56.6589 91.1667 56.2578 89.125 56.2578 86.5C56.2578 84.9688 56.2943 83.4375 56.3672 81.9062C56.4766 80.3385 56.6042 78.7891 56.75 77.2578L48.6562 77.3125L49.0391 71.9531C50.3516 72.0625 51.6823 72.1354 53.0312 72.1719C54.3802 72.1719 55.7292 72.1719 57.0781 72.1719C57.151 71.1146 57.2057 70.0938 57.2422 69.1094C57.2786 68.0885 57.2969 67.0495 57.2969 65.9922C57.2969 65.7734 57.2969 65.3359 57.2969 64.6797C57.2969 64.0234 57.2604 63.349 57.1875 62.6562C57.1146 61.9271 57.0052 61.2708 56.8594 60.6875C56.7135 60.1042 56.513 59.7578 56.2578 59.6484L66.3203 59.8125C66.1745 59.8125 66.0651 59.9219 65.9922 60.1406C65.9193 60.3594 65.8464 60.5234 65.7734 60.6328C65.5547 61.3255 65.3724 62.1641 65.2266 63.1484C65.1172 64.1328 65.0078 65.1719 64.8984 66.2656C64.8255 67.3229 64.7526 68.362 64.6797 69.3828C64.6432 70.3672 64.6068 71.2422 64.5703 72.0078C65.8099 71.9349 67.0677 71.8802 68.3438 71.8438C69.6198 71.7708 70.8776 71.5885 72.1172 71.2969V77.2031L64.2969 77.2578Z" fill="white"/>
<path d="M94.8672 70.6406C96.8724 70.6406 98.987 70.9323 101.211 71.5156C103.435 72.0625 105.458 72.9193 107.281 74.0859C109.104 75.2161 110.617 76.6562 111.82 78.4062C113.023 80.1562 113.625 82.2161 113.625 84.5859C113.625 86.1536 113.333 87.5755 112.75 88.8516C112.167 90.0911 111.383 91.2031 110.398 92.1875C109.451 93.1354 108.339 93.974 107.062 94.7031C105.786 95.3958 104.438 95.9792 103.016 96.4531C101.63 96.8906 100.208 97.2188 98.75 97.4375C97.2917 97.6562 95.9245 97.7656 94.6484 97.7656C92.5703 97.7656 90.4375 97.5286 88.25 97.0547C86.0625 96.5807 84.0573 95.8151 82.2344 94.7578C80.4479 93.7005 78.9714 92.3333 77.8047 90.6562C76.6745 88.9427 76.1094 86.8464 76.1094 84.3672C76.1094 81.9245 76.6927 79.8464 77.8594 78.1328C79.0625 76.3828 80.5755 74.9609 82.3984 73.8672C84.2214 72.737 86.2266 71.9167 88.4141 71.4062C90.638 70.8958 92.7891 70.6406 94.8672 70.6406ZM84.3125 84.3125C84.3125 85.7344 84.6224 86.9375 85.2422 87.9219C85.8984 88.9062 86.7188 89.7083 87.7031 90.3281C88.724 90.9479 89.8542 91.4036 91.0938 91.6953C92.3333 91.9505 93.5547 92.0781 94.7578 92.0781C95.888 92.0781 97.0729 91.9323 98.3125 91.6406C99.5521 91.349 100.701 90.8932 101.758 90.2734C102.815 89.6536 103.69 88.8698 104.383 87.9219C105.076 86.9375 105.422 85.7708 105.422 84.4219C105.422 83.0729 105.094 81.9062 104.438 80.9219C103.781 79.901 102.943 79.0625 101.922 78.4062C100.901 77.7135 99.7526 77.2031 98.4766 76.875C97.237 76.5469 96.0339 76.3828 94.8672 76.3828C93.6641 76.3828 92.4427 76.5469 91.2031 76.875C89.9635 77.1667 88.8333 77.6406 87.8125 78.2969C86.7917 78.9167 85.9531 79.737 85.2969 80.7578C84.6406 81.7422 84.3125 82.9271 84.3125 84.3125Z" fill="white"/>
<path d="M126.203 76.2188C127.078 75.4896 128.081 74.7969 129.211 74.1406C130.378 73.4844 131.581 72.9193 132.82 72.4453C134.096 71.9349 135.372 71.5339 136.648 71.2422C137.961 70.9505 139.182 70.8047 140.312 70.8047V75.5078C139.146 75.5078 137.852 75.763 136.43 76.2734C135.008 76.7839 133.604 77.4401 132.219 78.2422C130.87 79.0443 129.648 79.9557 128.555 80.9766C127.461 81.9974 126.659 83.0365 126.148 84.0938C126.148 84.349 126.148 84.8229 126.148 85.5156C126.185 86.2083 126.203 87.0104 126.203 87.9219C126.24 88.8333 126.276 89.7995 126.312 90.8203C126.349 91.8047 126.404 92.7344 126.477 93.6094C126.549 94.4844 126.622 95.2318 126.695 95.8516C126.768 96.4714 126.859 96.8542 126.969 97H118.109C118.255 96.9271 118.383 96.5443 118.492 95.8516C118.602 95.1224 118.674 94.2474 118.711 93.2266C118.784 92.2057 118.839 91.112 118.875 89.9453C118.948 88.7422 118.984 87.5938 118.984 86.5C119.021 85.4062 119.039 84.4583 119.039 83.6562C119.039 82.8542 119.039 82.3255 119.039 82.0703C119.039 81.7422 119.039 81.0495 119.039 79.9922C119.039 78.9349 119.021 77.8229 118.984 76.6562C118.948 75.4896 118.893 74.4141 118.82 73.4297C118.747 72.4089 118.638 71.7891 118.492 71.5703H126.586C126.513 71.7891 126.458 72.1172 126.422 72.5547C126.385 72.9557 126.349 73.3932 126.312 73.8672C126.276 74.3411 126.24 74.7969 126.203 75.2344C126.203 75.6719 126.203 76 126.203 76.2188Z" fill="white"/>
<path d="M158.031 97.8203C156.245 97.8203 154.349 97.5833 152.344 97.1094C150.339 96.6354 148.479 95.9062 146.766 94.9219C145.089 93.901 143.685 92.625 142.555 91.0938C141.461 89.5625 140.914 87.7396 140.914 85.625C140.914 83.0365 141.424 80.7214 142.445 78.6797C143.466 76.638 144.833 74.9245 146.547 73.5391C148.26 72.1172 150.247 71.0417 152.508 70.3125C154.768 69.5469 157.138 69.1641 159.617 69.1641C161.586 69.1641 163.336 69.4922 164.867 70.1484C166.398 70.7682 167.674 71.6615 168.695 72.8281C169.716 73.9583 170.482 75.3073 170.992 76.875C171.539 78.4427 171.812 80.1745 171.812 82.0703C171.812 83.8932 171.539 85.6432 170.992 87.3203H148.188C148.552 88.4141 149.117 89.3073 149.883 90C150.685 90.6927 151.578 91.2396 152.562 91.6406C153.583 92.0052 154.641 92.2604 155.734 92.4062C156.865 92.5521 157.922 92.625 158.906 92.625C159.526 92.625 160.346 92.5885 161.367 92.5156C162.424 92.4062 163.5 92.2604 164.594 92.0781C165.688 91.8594 166.708 91.6042 167.656 91.3125C168.641 91.0208 169.37 90.6562 169.844 90.2188L172.523 94.9219C170.117 95.8333 167.747 96.5443 165.414 97.0547C163.081 97.5651 160.62 97.8203 158.031 97.8203ZM158.031 74.3047C156.938 74.3047 155.844 74.5234 154.75 74.9609C153.693 75.3984 152.727 75.9818 151.852 76.7109C150.977 77.4036 150.211 78.2422 149.555 79.2266C148.898 80.1745 148.424 81.1589 148.133 82.1797H163.773C163.883 81.0859 163.883 80.0651 163.773 79.1172C163.701 78.1328 163.464 77.2943 163.062 76.6016C162.661 75.8724 162.06 75.3073 161.258 74.9062C160.456 74.5052 159.38 74.3047 158.031 74.3047Z" fill="white"/>
</svg>
