<svg width="894" height="97" viewBox="0 0 894 97" fill="none" xmlns="http://www.w3.org/2000/svg">
<path d="M55.1445 0.673828C62.0846 0.673828 68.8555 1.81641 75.457 4.10156C82.0586 6.38672 87.8984 9.6875 92.9766 14.0039C98.1393 18.2357 102.244 23.3984 105.291 29.4922C108.423 35.5013 109.988 42.2721 109.988 49.8047C109.988 57.2526 108.338 63.8542 105.037 69.6094C101.821 75.3646 97.5892 80.2311 92.3418 84.209C87.0944 88.1022 81.1699 91.0645 74.5684 93.0957C67.9668 95.127 61.3229 96.1426 54.6367 96.1426C47.3581 96.1426 40.418 95.1693 33.8164 93.2227C27.2995 91.1914 21.5443 88.2292 16.5508 84.3359C11.6419 80.3581 7.70638 75.4492 4.74414 69.6094C1.7819 63.6849 0.300781 56.7871 0.300781 48.916C0.300781 41.1296 1.82422 34.2318 4.87109 28.2227C8.0026 22.2135 12.1074 17.1777 17.1855 13.1152C22.2637 9.05273 28.1035 5.96354 34.7051 3.84766C41.3066 1.73177 48.1198 0.673828 55.1445 0.673828ZM21.6289 48.7891C21.6289 53.5286 22.4329 58.0143 24.041 62.2461C25.7337 66.4779 28.0612 70.2018 31.0234 73.418C33.9857 76.5495 37.4557 79.0462 41.4336 80.9082C45.4961 82.7702 49.9395 83.7012 54.7637 83.7012C59.2493 83.7012 63.5234 82.7702 67.5859 80.9082C71.7331 78.9616 75.3301 76.4225 78.377 73.291C81.5085 70.0749 84.0052 66.4355 85.8672 62.373C87.7292 58.2259 88.6602 53.9095 88.6602 49.4238C88.6602 43.2454 87.7715 37.9134 85.9941 33.4277C84.2168 28.8574 81.8047 25.0911 78.7578 22.1289C75.7109 19.082 72.1562 16.8392 68.0938 15.4004C64.0312 13.877 59.7148 13.1152 55.1445 13.1152C50.4049 13.1152 46.0039 14.1309 41.9414 16.1621C37.8789 18.1087 34.3242 20.7324 31.2773 24.0332C28.3151 27.334 25.9453 31.1426 24.168 35.459C22.4753 39.6908 21.6289 44.1341 21.6289 48.7891Z" fill="white"/>
<path d="M195.174 55.8984C195.174 61.7383 194.878 67.5358 194.285 73.291C193.777 79.0462 193.523 84.8438 193.523 90.6836C193.523 92.6302 193.65 94.5345 193.904 96.3965H171.688C172.534 95.0423 173.169 92.7995 173.592 89.668C174.015 86.4518 174.311 83.0664 174.48 79.5117C174.734 75.8724 174.861 72.4023 174.861 69.1016C174.946 65.7161 174.988 63.1348 174.988 61.3574C174.988 56.1947 173.719 52.1745 171.18 49.2969C168.641 46.3346 164.705 44.8535 159.373 44.8535C157.596 44.8535 155.861 45.1921 154.168 45.8691C152.56 46.4616 150.994 47.2656 149.471 48.2812C148.032 49.2969 146.635 50.4395 145.281 51.709C144.012 52.9785 142.869 54.248 141.854 55.5176C141.6 62.8809 141.473 70.2441 141.473 77.6074C141.473 78.1999 141.473 79.3848 141.473 81.1621C141.473 82.8548 141.515 84.6745 141.6 86.6211C141.684 88.5677 141.811 90.3874 141.98 92.0801C142.15 93.6882 142.446 94.6615 142.869 95H120.398C120.737 94.4922 121.076 93.265 121.414 91.3184C121.753 89.2871 122.049 86.9173 122.303 84.209C122.557 81.416 122.768 78.4538 122.938 75.3223C123.107 72.1908 123.234 69.1862 123.318 66.3086C123.488 63.431 123.572 60.8919 123.572 58.6914C123.657 56.4909 123.699 54.9674 123.699 54.1211C123.699 53.444 123.657 52.0475 123.572 49.9316C123.572 47.7311 123.488 45.4883 123.318 43.2031C123.149 40.8333 122.853 38.6751 122.43 36.7285C122.091 34.7819 121.541 33.6816 120.779 33.4277L142.996 33.5547L142.615 39.6484C145.747 37.3633 149.217 35.5013 153.025 34.0625C156.919 32.5391 160.854 31.7773 164.832 31.7773C168.725 31.7773 172.492 32.2005 176.131 33.0469C179.855 33.8086 183.113 35.1628 185.906 37.1094C188.699 38.9714 190.942 41.4258 192.635 44.4727C194.327 47.5195 195.174 51.3281 195.174 55.8984Z" fill="white"/>
<path d="M209.393 96.1426C209.816 95.4655 210.239 93.4342 210.662 90.0488C211.085 86.5788 211.424 82.474 211.678 77.7344C212.016 72.9102 212.312 67.7474 212.566 62.2461C212.82 56.6602 213.032 51.3704 213.201 46.377C213.455 41.3835 213.624 36.9824 213.709 33.1738C213.794 29.3652 213.836 26.7839 213.836 25.4297C213.836 24.668 213.836 23.1445 213.836 20.8594C213.836 18.4896 213.751 15.9928 213.582 13.3691C213.497 10.7454 213.286 8.37565 212.947 6.25977C212.609 4.05924 212.101 2.7474 211.424 2.32422L235.672 2.57812C235.249 2.66276 234.91 3.17057 234.656 4.10156C234.487 5.03255 234.36 5.66732 234.275 6.00586C233.344 10.2376 232.752 14.554 232.498 18.9551C232.244 23.2715 231.99 27.5879 231.736 31.9043C231.313 39.0983 230.975 46.2077 230.721 53.2324C230.551 60.2572 230.467 67.3665 230.467 74.5605C230.467 75.2376 230.467 76.6764 230.467 78.877C230.467 80.9928 230.509 83.2357 230.594 85.6055C230.678 87.9753 230.805 90.2181 230.975 92.334C231.144 94.3652 231.44 95.6348 231.863 96.1426H209.393Z" fill="white"/>
<path d="M248.748 35.5859L271.092 35.7129C270.669 35.7975 270.33 36.1784 270.076 36.8555C269.907 37.4479 269.738 37.9134 269.568 38.252C268.976 40.3678 268.51 42.9492 268.172 45.9961C267.918 48.9583 267.706 52.0898 267.537 55.3906C267.452 58.6068 267.368 61.7383 267.283 64.7852C267.283 67.832 267.283 70.498 267.283 72.7832C267.283 73.5449 267.283 75.1107 267.283 77.4805C267.283 79.7656 267.326 82.2201 267.41 84.8438C267.579 87.4674 267.791 89.8796 268.045 92.0801C268.299 94.196 268.68 95.5078 269.188 96.0156H246.717C247.14 95.4232 247.563 94.0267 247.986 91.8262C248.41 89.6257 248.748 87.002 249.002 83.9551C249.34 80.9082 249.637 77.6497 249.891 74.1797C250.145 70.625 250.356 67.2819 250.525 64.1504C250.779 60.9342 250.949 58.099 251.033 55.6445C251.118 53.1055 251.16 51.3704 251.16 50.4395C251.16 49.9316 251.16 48.916 251.16 47.3926C251.16 45.8691 251.076 44.3034 250.906 42.6953C250.737 41.0026 250.483 39.4792 250.145 38.125C249.806 36.6862 249.34 35.8398 248.748 35.5859ZM259.793 4.86328C260.893 4.86328 262.12 5.03255 263.475 5.37109C264.829 5.70964 266.056 6.21745 267.156 6.89453C268.341 7.48698 269.314 8.33333 270.076 9.43359C270.838 10.4492 271.219 11.6341 271.219 12.9883C271.219 14.3424 270.838 15.5273 270.076 16.543C269.314 17.5586 268.341 18.4049 267.156 19.082C266.056 19.6745 264.829 20.14 263.475 20.4785C262.12 20.8171 260.893 20.9863 259.793 20.9863C258.608 20.9863 257.339 20.8171 255.984 20.4785C254.715 20.14 253.488 19.6745 252.303 19.082C251.202 18.4049 250.271 17.5586 249.51 16.543C248.748 15.5273 248.367 14.3424 248.367 12.9883C248.367 11.6341 248.748 10.4492 249.51 9.43359C250.271 8.33333 251.202 7.48698 252.303 6.89453C253.488 6.21745 254.715 5.70964 255.984 5.37109C257.339 5.03255 258.608 4.86328 259.793 4.86328Z" fill="white"/>
<path d="M358.309 55.8984C358.309 61.7383 358.012 67.5358 357.42 73.291C356.912 79.0462 356.658 84.8438 356.658 90.6836C356.658 92.6302 356.785 94.5345 357.039 96.3965H334.822C335.669 95.0423 336.303 92.7995 336.727 89.668C337.15 86.4518 337.446 83.0664 337.615 79.5117C337.869 75.8724 337.996 72.4023 337.996 69.1016C338.081 65.7161 338.123 63.1348 338.123 61.3574C338.123 56.1947 336.854 52.1745 334.314 49.2969C331.775 46.3346 327.84 44.8535 322.508 44.8535C320.73 44.8535 318.995 45.1921 317.303 45.8691C315.695 46.4616 314.129 47.2656 312.605 48.2812C311.167 49.2969 309.77 50.4395 308.416 51.709C307.146 52.9785 306.004 54.248 304.988 55.5176C304.734 62.8809 304.607 70.2441 304.607 77.6074C304.607 78.1999 304.607 79.3848 304.607 81.1621C304.607 82.8548 304.65 84.6745 304.734 86.6211C304.819 88.5677 304.946 90.3874 305.115 92.0801C305.285 93.6882 305.581 94.6615 306.004 95H283.533C283.872 94.4922 284.21 93.265 284.549 91.3184C284.887 89.2871 285.184 86.9173 285.438 84.209C285.691 81.416 285.903 78.4538 286.072 75.3223C286.242 72.1908 286.368 69.1862 286.453 66.3086C286.622 63.431 286.707 60.8919 286.707 58.6914C286.792 56.4909 286.834 54.9674 286.834 54.1211C286.834 53.444 286.792 52.0475 286.707 49.9316C286.707 47.7311 286.622 45.4883 286.453 43.2031C286.284 40.8333 285.988 38.6751 285.564 36.7285C285.226 34.7819 284.676 33.6816 283.914 33.4277L306.131 33.5547L305.75 39.6484C308.882 37.3633 312.352 35.5013 316.16 34.0625C320.053 32.5391 323.989 31.7773 327.967 31.7773C331.86 31.7773 335.626 32.2005 339.266 33.0469C342.99 33.8086 346.248 35.1628 349.041 37.1094C351.834 38.9714 354.077 41.4258 355.77 44.4727C357.462 47.5195 358.309 51.3281 358.309 55.8984Z" fill="white"/>
<path d="M407.82 96.9043C403.673 96.9043 399.272 96.3542 394.617 95.2539C389.962 94.1536 385.646 92.4609 381.668 90.1758C377.775 87.806 374.516 84.8438 371.893 81.2891C369.354 77.7344 368.084 73.5026 368.084 68.5938C368.084 62.5846 369.269 57.2103 371.639 52.4707C374.008 47.7311 377.182 43.7533 381.16 40.5371C385.138 37.2363 389.751 34.7396 394.998 33.0469C400.245 31.2695 405.747 30.3809 411.502 30.3809C416.072 30.3809 420.135 31.1426 423.689 32.666C427.244 34.1048 430.206 36.1784 432.576 38.8867C434.946 41.5104 436.723 44.6419 437.908 48.2812C439.178 51.9206 439.812 55.9408 439.812 60.3418C439.812 64.5736 439.178 68.6361 437.908 72.5293H384.969C385.815 75.0684 387.127 77.1419 388.904 78.75C390.766 80.3581 392.84 81.6276 395.125 82.5586C397.495 83.4049 399.949 83.9974 402.488 84.3359C405.112 84.6745 407.566 84.8438 409.852 84.8438C411.29 84.8438 413.195 84.7591 415.564 84.5898C418.019 84.3359 420.516 83.9974 423.055 83.5742C425.594 83.0664 427.964 82.474 430.164 81.7969C432.449 81.1198 434.142 80.2734 435.242 79.2578L441.463 90.1758C435.877 92.2917 430.376 93.9421 424.959 95.127C419.542 96.3118 413.829 96.9043 407.82 96.9043ZM407.82 42.3145C405.281 42.3145 402.742 42.8223 400.203 43.8379C397.749 44.8535 395.506 46.2077 393.475 47.9004C391.443 49.5085 389.666 51.4551 388.143 53.7402C386.619 55.9408 385.519 58.2259 384.842 60.5957H421.15C421.404 58.0566 421.404 55.6868 421.15 53.4863C420.981 51.2012 420.431 49.2546 419.5 47.6465C418.569 45.9538 417.173 44.6419 415.311 43.7109C413.449 42.7799 410.952 42.3145 407.82 42.3145Z" fill="white"/>
<path d="M578.318 44.0918C578.742 42.2298 579.122 40.4102 579.461 38.6328C579.799 36.7708 579.969 34.8665 579.969 32.9199C579.969 29.1113 579.292 25.9798 577.938 23.5254C576.583 20.9863 574.721 18.9974 572.352 17.5586C570.066 16.0352 567.4 15.0195 564.354 14.5117C561.391 13.9193 558.26 13.623 554.959 13.623C552.928 13.623 550.6 13.7923 547.977 14.1309C545.353 14.3848 542.645 14.8503 539.852 15.5273C537.143 16.1198 534.435 16.9238 531.727 17.9395C529.018 18.9551 526.606 20.2246 524.49 21.748C522.459 23.2715 520.766 25.0911 519.412 27.207C518.143 29.2383 517.508 31.5658 517.508 34.1895C517.508 36.4746 518.312 38.4635 519.92 40.1562C521.613 41.7643 523.729 43.1608 526.268 44.3457C528.891 45.5306 531.811 46.5039 535.027 47.2656C538.243 48.0273 541.417 48.7044 544.549 49.2969C547.68 49.8047 550.6 50.2279 553.309 50.5664C556.017 50.8203 558.175 51.0742 559.783 51.3281C561.814 51.6667 564.269 52.0898 567.146 52.5977C570.109 53.0208 573.156 53.6133 576.287 54.375C579.419 55.1367 582.508 56.0677 585.555 57.168C588.686 58.2682 591.479 59.6224 593.934 61.2305C596.388 62.7539 598.377 64.5736 599.9 66.6895C601.424 68.7207 602.186 71.0905 602.186 73.7988C602.186 76.6764 601.382 79.2155 599.773 81.416C598.25 83.6165 596.176 85.5632 593.553 87.2559C591.014 88.8639 588.136 90.2181 584.92 91.3184C581.788 92.334 578.572 93.1803 575.271 93.8574C572.055 94.5345 568.966 95 566.004 95.2539C563.042 95.5078 560.545 95.6348 558.514 95.6348C549.542 95.6348 540.656 94.9154 531.854 93.4766C523.051 91.9531 514.461 89.541 506.082 86.2402C505.236 85.9017 504.262 85.5208 503.162 85.0977C502.062 84.5898 500.919 84.082 499.734 83.5742C498.549 83.0664 497.407 82.6432 496.307 82.3047C495.206 81.9661 494.233 81.7546 493.387 81.6699C493.895 81.1621 494.656 80.4427 495.672 79.5117C496.772 78.5807 497.83 77.5651 498.846 76.4648C499.946 75.3646 500.919 74.349 501.766 73.418C502.697 72.4023 503.247 71.6406 503.416 71.1328C510.864 75.7031 518.989 79.0885 527.791 81.2891C536.678 83.4896 545.48 84.5898 554.197 84.5898C555.636 84.5898 557.879 84.5052 560.926 84.3359C564.057 84.082 567.146 83.6165 570.193 82.9395C573.325 82.2624 576.033 81.3314 578.318 80.1465C580.688 78.877 581.873 77.2266 581.873 75.1953C581.873 72.487 580.646 70.3288 578.191 68.7207C575.822 67.1126 572.648 65.8008 568.67 64.7852C564.692 63.6849 560.164 62.8385 555.086 62.2461C550.008 61.569 544.803 60.8496 539.471 60.0879C534.223 59.3262 529.061 58.4375 523.982 57.4219C518.904 56.3216 514.376 54.8828 510.398 53.1055C506.421 51.2435 503.204 48.916 500.75 46.123C498.38 43.3301 497.195 39.8177 497.195 35.5859C497.195 31.1003 498.084 27.1224 499.861 23.6523C501.723 20.1823 504.178 17.1354 507.225 14.5117C510.356 11.888 513.868 9.6875 517.762 7.91016C521.74 6.13281 525.844 4.69401 530.076 3.59375C534.393 2.49349 538.667 1.68945 542.898 1.18164C547.13 0.673828 551.023 0.419922 554.578 0.419922C560.503 0.419922 566.131 0.885417 571.463 1.81641C576.795 2.7474 581.408 4.4401 585.301 6.89453C589.279 9.34896 592.41 12.7767 594.695 17.1777C597.065 21.5788 598.25 27.2493 598.25 34.1895C598.25 35.8822 598.165 37.5326 597.996 39.1406C597.911 40.7487 597.785 42.3991 597.615 44.0918H578.318Z" fill="white"/>
<path d="M642.43 49.1699C642.26 53.4863 642.091 57.8451 641.922 62.2461C641.753 66.5625 641.668 70.8789 641.668 75.1953C641.668 76.6341 641.964 77.8613 642.557 78.877C643.149 79.8926 643.911 80.7389 644.842 81.416C645.857 82.0085 646.958 82.4316 648.143 82.6855C649.412 82.9395 650.682 83.0664 651.951 83.0664C653.559 83.0664 655.125 82.9395 656.648 82.6855C658.257 82.4316 659.822 82.0931 661.346 81.6699L659.314 95.2539C654.406 95.2539 649.793 95.127 645.477 94.873C641.16 94.5345 637.394 93.6035 634.178 92.0801C630.962 90.5566 628.423 88.1445 626.561 84.8438C624.699 81.4583 623.768 76.7188 623.768 70.625C623.768 67.0703 623.852 63.5156 624.021 59.9609C624.275 56.3216 624.572 52.7246 624.91 49.1699L606.121 49.2969L607.01 36.8555C610.057 37.1094 613.146 37.2786 616.277 37.3633C619.409 37.3633 622.54 37.3633 625.672 37.3633C625.841 34.9089 625.968 32.5391 626.053 30.2539C626.137 27.8841 626.18 25.472 626.18 23.0176C626.18 22.5098 626.18 21.4941 626.18 19.9707C626.18 18.4473 626.095 16.8815 625.926 15.2734C625.757 13.5807 625.503 12.0573 625.164 10.7031C624.826 9.34896 624.36 8.54492 623.768 8.29102L647.127 8.67188C646.788 8.67188 646.535 8.92578 646.365 9.43359C646.196 9.94141 646.027 10.3223 645.857 10.5762C645.35 12.1842 644.926 14.1309 644.588 16.416C644.334 18.7012 644.08 21.1133 643.826 23.6523C643.657 26.1068 643.488 28.5189 643.318 30.8887C643.234 33.1738 643.149 35.2051 643.064 36.9824C645.942 36.8132 648.862 36.6862 651.824 36.6016C654.786 36.4323 657.706 36.0091 660.584 35.332V49.043L642.43 49.1699Z" fill="white"/>
<path d="M713.396 33.8086C718.051 33.8086 722.96 34.4857 728.123 35.8398C733.286 37.1094 737.983 39.0983 742.215 41.8066C746.447 44.4303 749.959 47.7734 752.752 51.8359C755.545 55.8984 756.941 60.6803 756.941 66.1816C756.941 69.821 756.264 73.1217 754.91 76.084C753.556 78.9616 751.736 81.543 749.451 83.8281C747.251 86.0286 744.669 87.9753 741.707 89.668C738.745 91.276 735.613 92.6302 732.312 93.7305C729.096 94.7461 725.796 95.5078 722.41 96.0156C719.025 96.5234 715.851 96.7773 712.889 96.7773C708.064 96.7773 703.113 96.2272 698.035 95.127C692.957 94.0267 688.302 92.2493 684.07 89.7949C679.923 87.3405 676.495 84.1667 673.787 80.2734C671.163 76.2956 669.852 71.429 669.852 65.6738C669.852 60.0033 671.206 55.179 673.914 51.2012C676.707 47.1387 680.219 43.8379 684.451 41.2988C688.683 38.6751 693.338 36.7708 698.416 35.5859C703.579 34.401 708.572 33.8086 713.396 33.8086ZM688.895 65.5469C688.895 68.8477 689.614 71.6406 691.053 73.9258C692.576 76.2109 694.48 78.0729 696.766 79.5117C699.135 80.9505 701.759 82.0085 704.637 82.6855C707.514 83.278 710.35 83.5742 713.143 83.5742C715.766 83.5742 718.517 83.2357 721.395 82.5586C724.272 81.8815 726.938 80.8236 729.393 79.3848C731.847 77.946 733.878 76.1263 735.486 73.9258C737.094 71.6406 737.898 68.9323 737.898 65.8008C737.898 62.6693 737.137 59.9609 735.613 57.6758C734.09 55.306 732.143 53.3594 729.773 51.8359C727.404 50.2279 724.738 49.043 721.775 48.2812C718.898 47.5195 716.105 47.1387 713.396 47.1387C710.604 47.1387 707.768 47.5195 704.891 48.2812C702.013 48.9583 699.389 50.0586 697.02 51.582C694.65 53.0208 692.703 54.9251 691.18 57.2949C689.656 59.5801 688.895 62.3307 688.895 65.5469Z" fill="white"/>
<path d="M786.141 46.7578C788.172 45.0651 790.499 43.457 793.123 41.9336C795.831 40.4102 798.624 39.0983 801.502 37.998C804.464 36.8132 807.426 35.8822 810.389 35.2051C813.436 34.528 816.271 34.1895 818.895 34.1895V45.1074C816.186 45.1074 813.182 45.6999 809.881 46.8848C806.58 48.0697 803.322 49.5931 800.105 51.4551C796.974 53.3171 794.139 55.4329 791.6 57.8027C789.061 60.1725 787.199 62.5846 786.014 65.0391C786.014 65.6315 786.014 66.7318 786.014 68.3398C786.098 69.9479 786.141 71.8099 786.141 73.9258C786.225 76.0417 786.31 78.2845 786.395 80.6543C786.479 82.9395 786.606 85.0977 786.775 87.1289C786.945 89.1602 787.114 90.8952 787.283 92.334C787.452 93.7728 787.664 94.6615 787.918 95H767.352C767.69 94.8307 767.986 93.9421 768.24 92.334C768.494 90.6413 768.663 88.61 768.748 86.2402C768.917 83.8704 769.044 81.3314 769.129 78.623C769.298 75.8301 769.383 73.1641 769.383 70.625C769.467 68.0859 769.51 65.8854 769.51 64.0234C769.51 62.1615 769.51 60.9342 769.51 60.3418C769.51 59.5801 769.51 57.972 769.51 55.5176C769.51 53.0632 769.467 50.4818 769.383 47.7734C769.298 45.0651 769.171 42.5684 769.002 40.2832C768.833 37.9134 768.579 36.4746 768.24 35.9668H787.029C786.86 36.4746 786.733 37.2363 786.648 38.252C786.564 39.1829 786.479 40.1986 786.395 41.2988C786.31 42.3991 786.225 43.457 786.141 44.4727C786.141 45.4883 786.141 46.25 786.141 46.7578Z" fill="white"/>
<path d="M860.027 96.9043C855.88 96.9043 851.479 96.3542 846.824 95.2539C842.169 94.1536 837.853 92.4609 833.875 90.1758C829.982 87.806 826.723 84.8438 824.1 81.2891C821.561 77.7344 820.291 73.5026 820.291 68.5938C820.291 62.5846 821.476 57.2103 823.846 52.4707C826.215 47.7311 829.389 43.7533 833.367 40.5371C837.345 37.2363 841.958 34.7396 847.205 33.0469C852.452 31.2695 857.954 30.3809 863.709 30.3809C868.279 30.3809 872.342 31.1426 875.896 32.666C879.451 34.1048 882.413 36.1784 884.783 38.8867C887.153 41.5104 888.93 44.6419 890.115 48.2812C891.385 51.9206 892.02 55.9408 892.02 60.3418C892.02 64.5736 891.385 68.6361 890.115 72.5293H837.176C838.022 75.0684 839.334 77.1419 841.111 78.75C842.973 80.3581 845.047 81.6276 847.332 82.5586C849.702 83.4049 852.156 83.9974 854.695 84.3359C857.319 84.6745 859.773 84.8438 862.059 84.8438C863.497 84.8438 865.402 84.7591 867.771 84.5898C870.226 84.3359 872.723 83.9974 875.262 83.5742C877.801 83.0664 880.171 82.474 882.371 81.7969C884.656 81.1198 886.349 80.2734 887.449 79.2578L893.67 90.1758C888.084 92.2917 882.583 93.9421 877.166 95.127C871.749 96.3118 866.036 96.9043 860.027 96.9043ZM860.027 42.3145C857.488 42.3145 854.949 42.8223 852.41 43.8379C849.956 44.8535 847.713 46.2077 845.682 47.9004C843.65 49.5085 841.873 51.4551 840.35 53.7402C838.826 55.9408 837.726 58.2259 837.049 60.5957H873.357C873.611 58.0566 873.611 55.6868 873.357 53.4863C873.188 51.2012 872.638 49.2546 871.707 47.6465C870.776 45.9538 869.38 44.6419 867.518 43.7109C865.656 42.7799 863.159 42.3145 860.027 42.3145Z" fill="white"/>
</svg>
