<svg width="518" height="123" viewBox="0 0 518 123" fill="none" xmlns="http://www.w3.org/2000/svg">
<path d="M103.006 0.435547C101.906 0.435547 101.017 1.40885 100.34 3.35547C99.6628 5.30208 99.1126 7.75651 98.6895 10.7188C98.2663 13.681 97.9277 16.9818 97.6738 20.6211C97.5046 24.1758 97.3776 27.6035 97.293 30.9043C97.2083 34.2051 97.166 37.125 97.166 39.6641C97.166 42.2031 97.166 43.9382 97.166 44.8691C97.166 49.9473 97.1237 54.9831 97.0391 59.9766C97.0391 64.8854 97.0391 69.8789 97.0391 74.957C97.0391 75.6341 97.0391 76.946 97.0391 78.8926C97.0391 80.8392 97.0814 82.8704 97.166 84.9863C97.2507 87.0176 97.4199 88.9219 97.6738 90.6992C98.0124 92.4766 98.4355 93.5768 98.9434 94H76.7266C77.2344 93.5768 77.6152 92.3496 77.8691 90.3184C78.2077 88.2025 78.4616 85.748 78.6309 82.9551C78.8001 80.0775 78.9271 76.9883 79.0117 73.6875C79.0964 70.3867 79.1387 67.2552 79.1387 64.293C79.1387 61.3307 79.1387 58.7493 79.1387 56.5488C79.1387 54.2637 79.1387 52.7402 79.1387 51.9785C70.5905 51.64 62.0846 51.4284 53.6211 51.3438C45.1576 51.2591 36.6517 51.2168 28.1035 51.2168H23.4062C23.4062 55.1947 23.3639 59.1302 23.2793 63.0234C23.2793 66.9167 23.2793 70.8522 23.2793 74.8301C23.2793 75.5072 23.2793 76.819 23.2793 78.7656C23.2793 80.7122 23.3216 82.7435 23.4062 84.8594C23.4909 86.9753 23.6602 88.9219 23.9141 90.6992C24.2526 92.4766 24.6758 93.5768 25.1836 94H2.9668C3.47461 93.4922 3.89779 91.8841 4.23633 89.1758C4.57487 86.3828 4.82878 83.0397 4.99805 79.1465C5.25195 75.2533 5.37891 71.0215 5.37891 66.4512C5.46354 61.8809 5.50586 57.5221 5.50586 53.375C5.50586 49.2279 5.46354 45.5885 5.37891 42.457C5.37891 39.2409 5.37891 36.998 5.37891 35.7285C5.37891 35.0514 5.37891 33.7396 5.37891 31.793C5.46354 29.7617 5.46354 27.4766 5.37891 24.9375C5.37891 22.3984 5.29427 19.7324 5.125 16.9395C5.04036 14.1465 4.82878 11.5651 4.49023 9.19531C4.15169 6.82552 3.6862 4.83659 3.09375 3.22852C2.5013 1.62044 1.7819 0.689453 0.935547 0.435547H29.373C28.3574 0.435547 27.5111 1.2819 26.834 2.97461C26.1569 4.66732 25.6068 6.82552 25.1836 9.44922C24.7604 12.0729 24.4219 14.9928 24.168 18.209C23.9141 21.3405 23.7448 24.3451 23.6602 27.2227C23.5755 30.1003 23.5332 32.6816 23.5332 34.9668C23.5332 37.1673 23.5332 38.6484 23.5332 39.4102C32.7585 39.5794 41.9837 39.7064 51.209 39.791C60.5189 39.8757 69.8288 39.791 79.1387 39.5371V35.7285C79.1387 34.9668 79.1387 33.6126 79.1387 31.666C79.2233 29.7194 79.2233 27.4766 79.1387 24.9375C79.1387 22.3984 79.054 19.7324 78.8848 16.9395C78.8001 14.1465 78.5885 11.5651 78.25 9.19531C77.9115 6.82552 77.446 4.83659 76.8535 3.22852C76.2611 1.62044 75.5417 0.689453 74.6953 0.435547H103.006Z" fill="white"/>
<path d="M115.447 34.5859L137.791 34.7129C137.368 34.7975 137.029 35.1784 136.775 35.8555C136.606 36.4479 136.437 36.9134 136.268 37.252C135.675 39.3678 135.21 41.9492 134.871 44.9961C134.617 47.9583 134.406 51.0898 134.236 54.3906C134.152 57.6068 134.067 60.7383 133.982 63.7852C133.982 66.832 133.982 69.498 133.982 71.7832C133.982 72.5449 133.982 74.1107 133.982 76.4805C133.982 78.7656 134.025 81.2201 134.109 83.8438C134.279 86.4674 134.49 88.8796 134.744 91.0801C134.998 93.196 135.379 94.5078 135.887 95.0156H113.416C113.839 94.4232 114.262 93.0267 114.686 90.8262C115.109 88.6257 115.447 86.002 115.701 82.9551C116.04 79.9082 116.336 76.6497 116.59 73.1797C116.844 69.625 117.055 66.2819 117.225 63.1504C117.479 59.9342 117.648 57.099 117.732 54.6445C117.817 52.1055 117.859 50.3704 117.859 49.4395C117.859 48.9316 117.859 47.916 117.859 46.3926C117.859 44.8691 117.775 43.3034 117.605 41.6953C117.436 40.0026 117.182 38.4792 116.844 37.125C116.505 35.6862 116.04 34.8398 115.447 34.5859ZM126.492 3.86328C127.592 3.86328 128.82 4.03255 130.174 4.37109C131.528 4.70964 132.755 5.21745 133.855 5.89453C135.04 6.48698 136.014 7.33333 136.775 8.43359C137.537 9.44922 137.918 10.6341 137.918 11.9883C137.918 13.3424 137.537 14.5273 136.775 15.543C136.014 16.5586 135.04 17.4049 133.855 18.082C132.755 18.6745 131.528 19.14 130.174 19.4785C128.82 19.8171 127.592 19.9863 126.492 19.9863C125.307 19.9863 124.038 19.8171 122.684 19.4785C121.414 19.14 120.187 18.6745 119.002 18.082C117.902 17.4049 116.971 16.5586 116.209 15.543C115.447 14.5273 115.066 13.3424 115.066 11.9883C115.066 10.6341 115.447 9.44922 116.209 8.43359C116.971 7.33333 117.902 6.48698 119.002 5.89453C120.187 5.21745 121.414 4.70964 122.684 4.37109C124.038 4.03255 125.307 3.86328 126.492 3.86328Z" fill="white"/>
<path d="M200.506 56.5488C201.014 55.11 201.437 53.6289 201.775 52.1055C202.114 50.4974 202.283 48.8893 202.283 47.2812C202.283 43.7266 201.31 41.1029 199.363 39.4102C197.501 37.6328 194.793 36.7441 191.238 36.7441C189.207 36.7441 186.795 36.998 184.002 37.5059C181.294 37.929 178.712 38.6908 176.258 39.791C173.803 40.8913 171.688 42.3301 169.91 44.1074C168.217 45.8848 167.371 48.0853 167.371 50.709C167.371 52.6556 168.302 54.306 170.164 55.6602C172.111 56.9297 174.354 57.9876 176.893 58.834C179.432 59.5957 181.971 60.1882 184.51 60.6113C187.133 61.0345 189.122 61.373 190.477 61.627C192.592 62.0501 195.258 62.6003 198.475 63.2773C201.775 63.8698 204.949 64.8008 207.996 66.0703C211.043 67.2552 213.667 68.7786 215.867 70.6406C218.068 72.418 219.168 74.7031 219.168 77.4961C219.168 80.6276 217.941 83.2513 215.486 85.3672C213.032 87.4831 210.07 89.1758 206.6 90.4453C203.214 91.7148 199.66 92.6458 195.936 93.2383C192.212 93.7461 189.122 94 186.668 94C181.59 94 176.554 93.6615 171.561 92.9844C166.567 92.2227 161.658 90.9954 156.834 89.3027C156.242 89.0488 155.268 88.668 153.914 88.1602C152.56 87.5677 151.121 86.9753 149.598 86.3828C148.159 85.7057 146.805 85.1133 145.535 84.6055C144.266 84.0977 143.462 83.8438 143.123 83.8438C143.292 83.7591 143.885 83.2513 144.9 82.3203C145.916 81.3893 146.974 80.3737 148.074 79.2734C149.259 78.0885 150.317 76.9883 151.248 75.9727C152.179 74.957 152.687 74.3223 152.771 74.0684C157.088 77.2845 161.87 79.6543 167.117 81.1777C172.449 82.7012 177.781 83.4629 183.113 83.4629C183.706 83.4629 184.848 83.4206 186.541 83.3359C188.234 83.1667 189.969 82.9128 191.746 82.5742C193.608 82.2357 195.258 81.7702 196.697 81.1777C198.136 80.5853 198.855 79.8236 198.855 78.8926C198.855 77.5384 197.671 76.4382 195.301 75.5918C192.931 74.7454 189.926 73.9414 186.287 73.1797C182.732 72.418 178.882 71.5716 174.734 70.6406C170.587 69.7096 166.694 68.5247 163.055 67.0859C159.5 65.5625 156.538 63.7005 154.168 61.5C151.798 59.2995 150.613 56.4642 150.613 52.9941C150.613 47.916 151.967 43.5996 154.676 40.0449C157.469 36.4056 160.939 33.4857 165.086 31.2852C169.233 29 173.719 27.3496 178.543 26.334C183.367 25.3184 187.895 24.8105 192.127 24.8105C195.597 24.8105 198.94 25.1068 202.156 25.6992C205.372 26.207 208.208 27.1803 210.662 28.6191C213.117 30.0579 215.063 32.0469 216.502 34.5859C218.025 37.125 218.787 40.4258 218.787 44.4883C218.787 46.5195 218.618 48.5508 218.279 50.582C218.025 52.6133 217.687 54.6022 217.264 56.5488H200.506Z" fill="white"/>
<path d="M260.682 48.1699C260.512 52.4863 260.343 56.8451 260.174 61.2461C260.005 65.5625 259.92 69.8789 259.92 74.1953C259.92 75.6341 260.216 76.8613 260.809 77.877C261.401 78.8926 262.163 79.7389 263.094 80.416C264.109 81.0085 265.21 81.4316 266.395 81.6855C267.664 81.9395 268.934 82.0664 270.203 82.0664C271.811 82.0664 273.377 81.9395 274.9 81.6855C276.508 81.4316 278.074 81.0931 279.598 80.6699L277.566 94.2539C272.658 94.2539 268.045 94.127 263.729 93.873C259.412 93.5345 255.646 92.6035 252.43 91.0801C249.214 89.5566 246.674 87.1445 244.812 83.8438C242.951 80.4583 242.02 75.7188 242.02 69.625C242.02 66.0703 242.104 62.5156 242.273 58.9609C242.527 55.3216 242.824 51.7246 243.162 48.1699L224.373 48.2969L225.262 35.8555C228.309 36.1094 231.398 36.2786 234.529 36.3633C237.661 36.3633 240.792 36.3633 243.924 36.3633C244.093 33.9089 244.22 31.5391 244.305 29.2539C244.389 26.8841 244.432 24.472 244.432 22.0176C244.432 21.5098 244.432 20.4941 244.432 18.9707C244.432 17.4473 244.347 15.8815 244.178 14.2734C244.008 12.5807 243.755 11.0573 243.416 9.70312C243.077 8.34896 242.612 7.54492 242.02 7.29102L265.379 7.67188C265.04 7.67188 264.786 7.92578 264.617 8.43359C264.448 8.94141 264.279 9.32227 264.109 9.57617C263.602 11.1842 263.178 13.1309 262.84 15.416C262.586 17.7012 262.332 20.1133 262.078 22.6523C261.909 25.1068 261.74 27.5189 261.57 29.8887C261.486 32.1738 261.401 34.2051 261.316 35.9824C264.194 35.8132 267.114 35.6862 270.076 35.6016C273.038 35.4323 275.958 35.0091 278.836 34.332V48.043L260.682 48.1699Z" fill="white"/>
<path d="M331.648 32.8086C336.303 32.8086 341.212 33.4857 346.375 34.8398C351.538 36.1094 356.235 38.0983 360.467 40.8066C364.699 43.4303 368.211 46.7734 371.004 50.8359C373.797 54.8984 375.193 59.6803 375.193 65.1816C375.193 68.821 374.516 72.1217 373.162 75.084C371.808 77.9616 369.988 80.543 367.703 82.8281C365.503 85.0286 362.921 86.9753 359.959 88.668C356.997 90.276 353.865 91.6302 350.564 92.7305C347.348 93.7461 344.048 94.5078 340.662 95.0156C337.277 95.5234 334.103 95.7773 331.141 95.7773C326.316 95.7773 321.365 95.2272 316.287 94.127C311.209 93.0267 306.554 91.2493 302.322 88.7949C298.175 86.3405 294.747 83.1667 292.039 79.2734C289.415 75.2956 288.104 70.429 288.104 64.6738C288.104 59.0033 289.458 54.179 292.166 50.2012C294.959 46.1387 298.471 42.8379 302.703 40.2988C306.935 37.6751 311.59 35.7708 316.668 34.5859C321.831 33.401 326.824 32.8086 331.648 32.8086ZM307.146 64.5469C307.146 67.8477 307.866 70.6406 309.305 72.9258C310.828 75.2109 312.732 77.0729 315.018 78.5117C317.387 79.9505 320.011 81.0085 322.889 81.6855C325.766 82.278 328.602 82.5742 331.395 82.5742C334.018 82.5742 336.769 82.2357 339.646 81.5586C342.524 80.8815 345.19 79.8236 347.645 78.3848C350.099 76.946 352.13 75.1263 353.738 72.9258C355.346 70.6406 356.15 67.9323 356.15 64.8008C356.15 61.6693 355.389 58.9609 353.865 56.6758C352.342 54.306 350.395 52.3594 348.025 50.8359C345.656 49.2279 342.99 48.043 340.027 47.2812C337.15 46.5195 334.357 46.1387 331.648 46.1387C328.855 46.1387 326.02 46.5195 323.143 47.2812C320.265 47.9583 317.641 49.0586 315.271 50.582C312.902 52.0208 310.955 53.9251 309.432 56.2949C307.908 58.5801 307.146 61.3307 307.146 64.5469Z" fill="white"/>
<path d="M404.393 45.7578C406.424 44.0651 408.751 42.457 411.375 40.9336C414.083 39.4102 416.876 38.0983 419.754 36.998C422.716 35.8132 425.678 34.8822 428.641 34.2051C431.688 33.528 434.523 33.1895 437.146 33.1895V44.1074C434.438 44.1074 431.434 44.6999 428.133 45.8848C424.832 47.0697 421.574 48.5931 418.357 50.4551C415.226 52.3171 412.391 54.4329 409.852 56.8027C407.312 59.1725 405.451 61.5846 404.266 64.0391C404.266 64.6315 404.266 65.7318 404.266 67.3398C404.35 68.9479 404.393 70.8099 404.393 72.9258C404.477 75.0417 404.562 77.2845 404.646 79.6543C404.731 81.9395 404.858 84.0977 405.027 86.1289C405.197 88.1602 405.366 89.8952 405.535 91.334C405.704 92.7728 405.916 93.6615 406.17 94H385.604C385.942 93.8307 386.238 92.9421 386.492 91.334C386.746 89.6413 386.915 87.61 387 85.2402C387.169 82.8704 387.296 80.3314 387.381 77.623C387.55 74.8301 387.635 72.1641 387.635 69.625C387.719 67.0859 387.762 64.8854 387.762 63.0234C387.762 61.1615 387.762 59.9342 387.762 59.3418C387.762 58.5801 387.762 56.972 387.762 54.5176C387.762 52.0632 387.719 49.4818 387.635 46.7734C387.55 44.0651 387.423 41.5684 387.254 39.2832C387.085 36.9134 386.831 35.4746 386.492 34.9668H405.281C405.112 35.4746 404.985 36.2363 404.9 37.252C404.816 38.1829 404.731 39.1986 404.646 40.2988C404.562 41.3991 404.477 42.457 404.393 43.4727C404.393 44.4883 404.393 45.25 404.393 45.7578Z" fill="white"/>
<path d="M517.889 30.2695C517.55 30.7773 517.296 31.9622 517.127 33.8242C516.958 35.6862 516.831 37.7174 516.746 39.918C516.661 42.0339 516.619 44.1074 516.619 46.1387C516.619 48.0853 516.619 49.4395 516.619 50.2012C516.619 57.1413 516.661 64.0814 516.746 71.0215C516.831 77.877 516.873 84.7324 516.873 91.5879C516.873 96.8353 515.688 101.406 513.318 105.299C511.033 109.277 508.029 112.535 504.305 115.074C500.581 117.698 496.391 119.645 491.736 120.914C487.081 122.184 482.426 122.818 477.771 122.818C472.609 122.818 467.446 122.776 462.283 122.691C457.205 122.607 452.127 122.522 447.049 122.438L448.318 107.711C449.588 108.219 451.365 108.684 453.65 109.107C456.02 109.615 458.475 109.996 461.014 110.25C463.553 110.589 466.007 110.842 468.377 111.012C470.747 111.181 472.693 111.266 474.217 111.266C478.195 111.266 481.749 110.927 484.881 110.25C488.012 109.573 490.678 108.388 492.879 106.695C495.079 105.087 496.772 102.844 497.957 99.9668C499.142 97.0892 499.734 93.4922 499.734 89.1758C499.734 88.4141 499.692 87.6523 499.607 86.8906C499.607 86.0443 499.565 85.2402 499.48 84.4785C496.095 86.9329 492.371 88.7526 488.309 89.9375C484.246 91.1224 480.141 91.7148 475.994 91.7148C469.9 91.7148 464.822 90.7839 460.76 88.9219C456.782 86.9753 453.608 84.3516 451.238 81.0508C448.868 77.6654 447.176 73.6875 446.16 69.1172C445.229 64.4622 444.764 59.4264 444.764 54.0098C444.764 51.3861 444.848 48.7624 445.018 46.1387C445.187 43.515 445.271 40.8913 445.271 38.2676C445.271 37.0827 445.187 35.8132 445.018 34.459C444.933 33.0202 444.51 31.8353 443.748 30.9043L466.854 31.0312C466.176 32.1315 465.542 33.7396 464.949 35.8555C464.441 37.9714 464.018 40.2142 463.68 42.584C463.341 44.9538 463.087 47.2812 462.918 49.5664C462.749 51.7669 462.664 53.5443 462.664 54.8984C462.664 58.2839 462.876 61.4154 463.299 64.293C463.807 67.1706 464.738 69.7096 466.092 71.9102C467.446 74.026 469.266 75.7188 471.551 76.9883C473.921 78.1732 476.967 78.7656 480.691 78.7656C482.215 78.7656 483.95 78.6387 485.896 78.3848C487.843 78.1309 489.705 77.6654 491.482 76.9883C493.26 76.2266 494.826 75.2533 496.18 74.0684C497.534 72.8835 498.338 71.36 498.592 69.498C498.846 67.9746 498.973 66.4512 498.973 64.9277C498.973 63.3197 498.973 61.7962 498.973 60.3574C498.973 59.0879 498.888 56.972 498.719 54.0098C498.634 50.9629 498.465 47.8737 498.211 44.7422C497.957 41.526 497.576 38.5638 497.068 35.8555C496.645 33.0625 496.095 31.2852 495.418 30.5234L517.889 30.2695Z" fill="white"/>
</svg>
