<svg width="713" height="138" viewBox="0 0 713 138" fill="none" xmlns="http://www.w3.org/2000/svg">
<path d="M85.4707 56.0918C85.8939 54.2298 86.2747 52.4102 86.6133 50.6328C86.9518 48.7708 87.1211 46.8665 87.1211 44.9199C87.1211 41.1113 86.444 37.9798 85.0898 35.5254C83.7357 32.9863 81.8737 30.9974 79.5039 29.5586C77.2188 28.0352 74.5527 27.0195 71.5059 26.5117C68.5436 25.9193 65.4121 25.623 62.1113 25.623C60.0801 25.623 57.7526 25.7923 55.1289 26.1309C52.5052 26.3848 49.7969 26.8503 47.0039 27.5273C44.2956 28.1198 41.5872 28.9238 38.8789 29.9395C36.1706 30.9551 33.7585 32.2246 31.6426 33.748C29.6113 35.2715 27.9186 37.0911 26.5645 39.207C25.2949 41.2383 24.6602 43.5658 24.6602 46.1895C24.6602 48.4746 25.4642 50.4635 27.0723 52.1562C28.765 53.7643 30.8809 55.1608 33.4199 56.3457C36.0436 57.5306 38.9635 58.5039 42.1797 59.2656C45.3958 60.0273 48.5697 60.7044 51.7012 61.2969C54.8327 61.8047 57.7526 62.2279 60.4609 62.5664C63.1693 62.8203 65.3275 63.0742 66.9355 63.3281C68.9668 63.6667 71.4212 64.0898 74.2988 64.5977C77.2611 65.0208 80.3079 65.6133 83.4395 66.375C86.571 67.1367 89.6602 68.0677 92.707 69.168C95.8385 70.2682 98.6315 71.6224 101.086 73.2305C103.54 74.7539 105.529 76.5736 107.053 78.6895C108.576 80.7207 109.338 83.0905 109.338 85.7988C109.338 88.6764 108.534 91.2155 106.926 93.416C105.402 95.6165 103.329 97.5632 100.705 99.2559C98.166 100.864 95.2884 102.218 92.0723 103.318C88.9408 104.334 85.7246 105.18 82.4238 105.857C79.2077 106.535 76.1185 107 73.1562 107.254C70.194 107.508 67.6973 107.635 65.666 107.635C56.6947 107.635 47.8079 106.915 39.0059 105.477C30.2038 103.953 21.6133 101.541 13.2344 98.2402C12.388 97.9017 11.4147 97.5208 10.3145 97.0977C9.21419 96.5898 8.07161 96.082 6.88672 95.5742C5.70182 95.0664 4.55924 94.6432 3.45898 94.3047C2.35872 93.9661 1.38542 93.7546 0.539062 93.6699C1.04688 93.1621 1.80859 92.4427 2.82422 91.5117C3.92448 90.5807 4.98242 89.5651 5.99805 88.4648C7.09831 87.3646 8.07161 86.349 8.91797 85.418C9.84896 84.4023 10.3991 83.6406 10.5684 83.1328C18.0163 87.7031 26.1413 91.0885 34.9434 93.2891C43.8301 95.4896 52.6322 96.5898 61.3496 96.5898C62.7884 96.5898 65.0312 96.5052 68.0781 96.3359C71.2096 96.082 74.2988 95.6165 77.3457 94.9395C80.4772 94.2624 83.1855 93.3314 85.4707 92.1465C87.8405 90.877 89.0254 89.2266 89.0254 87.1953C89.0254 84.487 87.7982 82.3288 85.3438 80.7207C82.974 79.1126 79.8001 77.8008 75.8223 76.7852C71.8444 75.6849 67.3164 74.8385 62.2383 74.2461C57.1602 73.569 51.9551 72.8496 46.623 72.0879C41.3757 71.3262 36.2129 70.4375 31.1348 69.4219C26.0566 68.3216 21.5286 66.8828 17.5508 65.1055C13.5729 63.2435 10.3568 60.916 7.90234 58.123C5.53255 55.3301 4.34766 51.8177 4.34766 47.5859C4.34766 43.1003 5.23633 39.1224 7.01367 35.6523C8.87565 32.1823 11.3301 29.1354 14.377 26.5117C17.5085 23.888 21.0208 21.6875 24.9141 19.9102C28.8919 18.1328 32.9967 16.694 37.2285 15.5938C41.5449 14.4935 45.819 13.6895 50.0508 13.1816C54.2826 12.6738 58.1758 12.4199 61.7305 12.4199C67.6549 12.4199 73.2832 12.8854 78.6152 13.8164C83.9473 14.7474 88.5599 16.4401 92.4531 18.8945C96.431 21.349 99.5625 24.7767 101.848 29.1777C104.217 33.5788 105.402 39.2493 105.402 46.1895C105.402 47.8822 105.318 49.5326 105.148 51.1406C105.064 52.7487 104.937 54.3991 104.768 56.0918H85.4707Z" fill="white"/>
<path d="M167.736 46.0625C171.46 46.0625 174.973 46.6126 178.273 47.7129C181.574 48.7285 184.452 50.2943 186.906 52.4102C189.445 54.526 191.434 57.1074 192.873 60.1543C194.312 63.2012 195.031 66.7135 195.031 70.6914C195.031 71.6224 194.989 73.0612 194.904 75.0078C194.904 76.9544 194.904 79.1549 194.904 81.6094C194.904 83.9792 194.904 86.4759 194.904 89.0996C194.904 91.7233 194.947 94.1777 195.031 96.4629C195.116 98.748 195.243 100.737 195.412 102.43C195.581 104.122 195.835 105.223 196.174 105.73H174.465C175.734 102.091 176.75 98.1556 177.512 93.9238C178.273 89.6921 178.654 85.6296 178.654 81.7363C178.654 78.6048 178.316 75.6426 177.639 72.8496C177.046 70.0566 175.988 67.6445 174.465 65.6133C173.026 63.4974 171.079 61.847 168.625 60.6621C166.255 59.4772 163.293 58.8848 159.738 58.8848C156.014 58.8848 152.417 59.8158 148.947 61.6777C145.562 63.5397 142.684 65.8672 140.314 68.6602C140.23 71.3685 140.188 74.1191 140.188 76.9121C140.188 79.6204 140.188 82.3711 140.188 85.1641C140.188 85.5872 140.188 86.4336 140.188 87.7031C140.188 88.9727 140.188 90.4538 140.188 92.1465C140.188 93.8392 140.23 95.6165 140.314 97.4785C140.399 99.3405 140.484 101.076 140.568 102.684C140.653 104.292 140.78 105.688 140.949 106.873C141.118 107.973 141.33 108.65 141.584 108.904H119.113C119.452 108.481 119.748 107.042 120.002 104.588C120.34 102.133 120.637 99.2135 120.891 95.8281C121.229 92.3581 121.525 88.6341 121.779 84.6562C122.033 80.5938 122.245 76.7852 122.414 73.2305C122.583 69.5911 122.71 66.4173 122.795 63.709C122.964 61.0007 123.091 59.181 123.176 58.25C123.43 51.6484 123.557 44.9622 123.557 38.1914C123.557 37.7682 123.557 36.9642 123.557 35.7793C123.557 34.5098 123.514 33.071 123.43 31.4629C123.43 29.7702 123.387 28.0352 123.303 26.2578C123.218 24.3958 123.091 22.7031 122.922 21.1797C122.753 19.5716 122.499 18.2174 122.16 17.1172C121.906 16.0169 121.568 15.3822 121.145 15.2129L145.393 15.4668C144.969 15.4668 144.631 15.8053 144.377 16.4824C144.123 17.1595 143.954 17.625 143.869 17.8789C143.192 20.0794 142.727 22.4069 142.473 24.8613C142.303 27.2311 142.134 29.5586 141.965 31.8438C141.626 35.4831 141.372 39.1224 141.203 42.7617C141.034 46.3164 140.865 49.9134 140.695 53.5527C144.504 50.8444 148.82 48.9401 153.645 47.8398C158.469 46.6549 163.166 46.0625 167.736 46.0625Z" fill="white"/>
<path d="M248.859 45.8086C253.514 45.8086 258.423 46.4857 263.586 47.8398C268.749 49.1094 273.446 51.0983 277.678 53.8066C281.91 56.4303 285.422 59.7734 288.215 63.8359C291.008 67.8984 292.404 72.6803 292.404 78.1816C292.404 81.821 291.727 85.1217 290.373 88.084C289.019 90.9616 287.199 93.543 284.914 95.8281C282.714 98.0286 280.132 99.9753 277.17 101.668C274.208 103.276 271.076 104.63 267.775 105.73C264.559 106.746 261.258 107.508 257.873 108.016C254.488 108.523 251.314 108.777 248.352 108.777C243.527 108.777 238.576 108.227 233.498 107.127C228.42 106.027 223.765 104.249 219.533 101.795C215.386 99.3405 211.958 96.1667 209.25 92.2734C206.626 88.2956 205.314 83.429 205.314 77.6738C205.314 72.0033 206.669 67.179 209.377 63.2012C212.17 59.1387 215.682 55.8379 219.914 53.2988C224.146 50.6751 228.801 48.7708 233.879 47.5859C239.042 46.401 244.035 45.8086 248.859 45.8086ZM224.357 77.5469C224.357 80.8477 225.077 83.6406 226.516 85.9258C228.039 88.2109 229.943 90.0729 232.229 91.5117C234.598 92.9505 237.222 94.0085 240.1 94.6855C242.977 95.278 245.812 95.5742 248.605 95.5742C251.229 95.5742 253.98 95.2357 256.857 94.5586C259.735 93.8815 262.401 92.8236 264.855 91.3848C267.31 89.946 269.341 88.1263 270.949 85.9258C272.557 83.6406 273.361 80.9323 273.361 77.8008C273.361 74.6693 272.6 71.9609 271.076 69.6758C269.553 67.306 267.606 65.3594 265.236 63.8359C262.867 62.2279 260.201 61.043 257.238 60.2812C254.361 59.5195 251.568 59.1387 248.859 59.1387C246.066 59.1387 243.231 59.5195 240.354 60.2812C237.476 60.9583 234.852 62.0586 232.482 63.582C230.113 65.0208 228.166 66.9251 226.643 69.2949C225.119 71.5801 224.357 74.3307 224.357 77.5469Z" fill="white"/>
<path d="M348.137 43.1426C352.707 43.1426 357.193 43.7773 361.594 45.0469C366.079 46.2318 370.1 48.0938 373.654 50.6328C377.209 53.0872 380.087 56.2188 382.287 60.0273C384.488 63.8359 385.588 68.2793 385.588 73.3574C385.588 78.4355 384.191 82.9635 381.398 86.9414C378.605 90.9193 375.051 94.3047 370.734 97.0977C366.503 99.806 361.848 101.88 356.77 103.318C351.776 104.757 347.036 105.477 342.551 105.477C338.996 105.477 335.484 105.096 332.014 104.334C328.544 103.572 325.243 102.26 322.111 100.398C322.027 103.022 321.984 105.604 321.984 108.143C321.984 110.766 321.984 113.39 321.984 116.014C321.984 116.945 321.984 118.468 321.984 120.584C321.984 122.785 322.027 125.07 322.111 127.439C322.196 129.809 322.323 131.967 322.492 133.914C322.661 135.945 322.915 137.215 323.254 137.723H300.91C301.333 137.046 301.714 135.057 302.053 131.756C302.476 128.455 302.857 124.435 303.195 119.695C303.534 115.04 303.83 110.005 304.084 104.588C304.338 99.0866 304.549 93.8392 304.719 88.8457C304.973 83.8522 305.142 79.3665 305.227 75.3887C305.311 71.3262 305.354 68.4062 305.354 66.6289C305.354 65.6979 305.354 64.0475 305.354 61.6777C305.354 59.3079 305.269 56.8535 305.1 54.3145C304.93 51.6908 304.676 49.321 304.338 47.2051C303.999 45.0892 303.534 43.8197 302.941 43.3965L327.062 43.6504C326.47 44.2428 326.047 45.1315 325.793 46.3164C325.624 47.4167 325.454 48.39 325.285 49.2363C328.755 47.2897 332.395 45.8086 336.203 44.793C340.096 43.6927 344.074 43.1426 348.137 43.1426ZM342.424 92.7812C345.386 92.7812 348.306 92.3581 351.184 91.5117C354.146 90.6654 356.812 89.3958 359.182 87.7031C361.551 86.0104 363.456 83.9368 364.895 81.4824C366.333 78.9434 367.053 76.0234 367.053 72.7227C367.053 69.6758 366.376 67.0521 365.021 64.8516C363.752 62.5664 362.059 60.7044 359.943 59.2656C357.827 57.7422 355.415 56.6419 352.707 55.9648C350.083 55.2878 347.417 54.9492 344.709 54.9492C340.308 54.9492 336.161 55.8802 332.268 57.7422C328.459 59.6042 325.581 62.5664 323.635 66.6289C323.465 69.0833 323.296 71.4954 323.127 73.8652C323.042 76.235 322.915 78.6471 322.746 81.1016C323.423 83.3021 324.439 85.1641 325.793 86.6875C327.147 88.2109 328.671 89.4382 330.363 90.3691C332.141 91.2155 334.045 91.8503 336.076 92.2734C338.192 92.612 340.308 92.7812 342.424 92.7812Z" fill="white"/>
<path d="M440.178 107C440.686 106.492 441.109 104.884 441.447 102.176C441.786 99.3828 442.04 96.0397 442.209 92.1465C442.463 88.2533 442.59 84.0215 442.59 79.4512C442.674 74.8809 442.717 70.5221 442.717 66.375C442.717 62.2279 442.674 58.5885 442.59 55.457C442.59 52.2409 442.59 49.998 442.59 48.7285C442.59 47.9668 442.59 46.6126 442.59 44.666C442.674 42.7194 442.674 40.4766 442.59 37.9375C442.59 35.3984 442.505 32.7324 442.336 29.9395C442.251 27.1465 442.04 24.5651 441.701 22.1953C441.363 19.8255 440.897 17.8366 440.305 16.2285C439.712 14.6204 438.993 13.6895 438.146 13.4355H466.584C465.484 13.4355 464.553 14.4089 463.791 16.3555C463.114 18.3021 462.564 20.7565 462.141 23.7188C461.717 26.681 461.379 29.9818 461.125 33.6211C460.956 37.1758 460.829 40.6035 460.744 43.9043C460.66 47.2051 460.617 50.1673 460.617 52.791C460.617 55.3301 460.617 57.0651 460.617 57.9961C460.617 62.9896 460.575 67.9831 460.49 72.9766C460.49 77.8854 460.49 82.8789 460.49 87.957C460.49 88.6341 460.49 89.946 460.49 91.8926C460.49 93.8392 460.533 95.8704 460.617 97.9863C460.702 100.018 460.871 101.922 461.125 103.699C461.464 105.477 461.887 106.577 462.395 107H440.178Z" fill="white"/>
<path d="M552.277 67.8984C552.277 73.7383 551.981 79.5358 551.389 85.291C550.881 91.0462 550.627 96.8438 550.627 102.684C550.627 104.63 550.754 106.535 551.008 108.396H528.791C529.637 107.042 530.272 104.799 530.695 101.668C531.118 98.4518 531.415 95.0664 531.584 91.5117C531.838 87.8724 531.965 84.4023 531.965 81.1016C532.049 77.7161 532.092 75.1348 532.092 73.3574C532.092 68.1947 530.822 64.1745 528.283 61.2969C525.744 58.3346 521.809 56.8535 516.477 56.8535C514.699 56.8535 512.964 57.1921 511.271 57.8691C509.663 58.4616 508.098 59.2656 506.574 60.2812C505.135 61.2969 503.739 62.4395 502.385 63.709C501.115 64.9785 499.973 66.248 498.957 67.5176C498.703 74.8809 498.576 82.2441 498.576 89.6074C498.576 90.1999 498.576 91.3848 498.576 93.1621C498.576 94.8548 498.618 96.6745 498.703 98.6211C498.788 100.568 498.915 102.387 499.084 104.08C499.253 105.688 499.549 106.661 499.973 107H477.502C477.84 106.492 478.179 105.265 478.518 103.318C478.856 101.287 479.152 98.9173 479.406 96.209C479.66 93.416 479.872 90.4538 480.041 87.3223C480.21 84.1908 480.337 81.1862 480.422 78.3086C480.591 75.431 480.676 72.8919 480.676 70.6914C480.76 68.4909 480.803 66.9674 480.803 66.1211C480.803 65.444 480.76 64.0475 480.676 61.9316C480.676 59.7311 480.591 57.4883 480.422 55.2031C480.253 52.8333 479.956 50.6751 479.533 48.7285C479.195 46.7819 478.645 45.6816 477.883 45.4277L500.1 45.5547L499.719 51.6484C502.85 49.3633 506.32 47.5013 510.129 46.0625C514.022 44.5391 517.958 43.7773 521.936 43.7773C525.829 43.7773 529.595 44.2005 533.234 45.0469C536.958 45.8086 540.217 47.1628 543.01 49.1094C545.803 50.9714 548.046 53.4258 549.738 56.4727C551.431 59.5195 552.277 63.3281 552.277 67.8984Z" fill="white"/>
<path d="M619.309 0.232422C623.371 0.232422 627.137 0.655599 630.607 1.50195C634.162 2.26367 637.209 3.61784 639.748 5.56445C642.287 7.42643 644.276 9.92318 645.715 13.0547C647.238 16.1016 648 19.8678 648 24.3535C648 26.3848 647.873 28.416 647.619 30.4473C647.365 32.4785 647.027 34.5098 646.604 36.541C646.434 37.472 646.223 38.4453 645.969 39.4609C645.715 40.3919 645.588 41.3229 645.588 42.2539V42.6348L625.529 38.8262C626.037 38.0645 626.46 37.1335 626.799 36.0332C627.137 34.9329 627.391 33.7904 627.561 32.6055C627.814 31.3359 627.984 30.1087 628.068 28.9238C628.238 27.7389 628.322 26.681 628.322 25.75C628.322 21.1797 627.222 17.5404 625.021 14.832C622.906 12.0391 619.436 10.6426 614.611 10.6426C610.887 10.6426 607.587 11.5312 604.709 13.3086C601.831 15.0859 599.377 17.3711 597.346 20.1641C595.399 22.957 593.876 26.0885 592.775 29.5586C591.76 33.0286 591.252 36.4141 591.252 39.7148C591.252 41.6615 591.21 43.6081 591.125 45.5547C591.125 47.4167 591.125 49.321 591.125 51.2676C593.833 51.1829 596.584 51.1406 599.377 51.1406C602.17 51.056 604.963 50.929 607.756 50.7598C609.195 50.6751 610.76 50.5905 612.453 50.5059C614.146 50.4212 615.712 50.1673 617.15 49.7441L616.77 62.5664C616.092 62.3125 614.569 62.1009 612.199 61.9316C609.829 61.7624 607.248 61.6354 604.455 61.5508C601.662 61.4661 598.996 61.4238 596.457 61.4238C593.918 61.4238 592.098 61.4238 590.998 61.4238V74.1191C590.998 74.7962 590.998 76.0234 590.998 77.8008C590.998 79.4935 590.998 81.4824 590.998 83.7676C591.083 85.9681 591.125 88.2956 591.125 90.75C591.21 93.2044 591.294 95.4896 591.379 97.6055C591.464 99.7214 591.59 101.541 591.76 103.064C591.929 104.503 592.141 105.392 592.395 105.73H571.955C572.294 105.392 572.548 104.419 572.717 102.811C572.886 101.118 573.013 99.2982 573.098 97.3516C573.182 95.3203 573.225 93.416 573.225 91.6387C573.225 89.7767 573.225 88.5072 573.225 87.8301C573.225 79.1126 573.098 70.3529 572.844 61.5508C570.474 61.5508 568.062 61.5508 565.607 61.5508C563.153 61.4661 560.783 61.6777 558.498 62.1855L558.117 50.6328C558.964 50.8867 560.021 51.0983 561.291 51.2676C562.561 51.3522 563.872 51.4368 565.227 51.5215C566.665 51.5215 568.02 51.5215 569.289 51.5215C570.643 51.5215 571.786 51.5215 572.717 51.5215C572.632 50.252 572.548 49.0247 572.463 47.8398C572.378 46.5703 572.336 45.3431 572.336 44.1582C572.336 37.6413 573.563 31.4206 576.018 25.4961C577.964 20.9258 580.419 17.0326 583.381 13.8164C586.343 10.6003 589.686 7.97656 593.41 5.94531C597.134 3.91406 601.154 2.47526 605.471 1.62891C609.872 0.697917 614.484 0.232422 619.309 0.232422Z" fill="white"/>
<path d="M669.455 45.8086C674.11 45.8086 679.019 46.4857 684.182 47.8398C689.344 49.1094 694.042 51.0983 698.273 53.8066C702.505 56.4303 706.018 59.7734 708.811 63.8359C711.604 67.8984 713 72.6803 713 78.1816C713 81.821 712.323 85.1217 710.969 88.084C709.615 90.9616 707.795 93.543 705.51 95.8281C703.309 98.0286 700.728 99.9753 697.766 101.668C694.803 103.276 691.672 104.63 688.371 105.73C685.155 106.746 681.854 107.508 678.469 108.016C675.083 108.523 671.91 108.777 668.947 108.777C664.123 108.777 659.172 108.227 654.094 107.127C649.016 106.027 644.361 104.249 640.129 101.795C635.982 99.3405 632.554 96.1667 629.846 92.2734C627.222 88.2956 625.91 83.429 625.91 77.6738C625.91 72.0033 627.264 67.179 629.973 63.2012C632.766 59.1387 636.278 55.8379 640.51 53.2988C644.742 50.6751 649.396 48.7708 654.475 47.5859C659.637 46.401 664.631 45.8086 669.455 45.8086ZM644.953 77.5469C644.953 80.8477 645.673 83.6406 647.111 85.9258C648.635 88.2109 650.539 90.0729 652.824 91.5117C655.194 92.9505 657.818 94.0085 660.695 94.6855C663.573 95.278 666.408 95.5742 669.201 95.5742C671.825 95.5742 674.576 95.2357 677.453 94.5586C680.331 93.8815 682.997 92.8236 685.451 91.3848C687.906 89.946 689.937 88.1263 691.545 85.9258C693.153 83.6406 693.957 80.9323 693.957 77.8008C693.957 74.6693 693.195 71.9609 691.672 69.6758C690.148 67.306 688.202 65.3594 685.832 63.8359C683.462 62.2279 680.796 61.043 677.834 60.2812C674.956 59.5195 672.163 59.1387 669.455 59.1387C666.662 59.1387 663.827 59.5195 660.949 60.2812C658.072 60.9583 655.448 62.0586 653.078 63.582C650.708 65.0208 648.762 66.9251 647.238 69.2949C645.715 71.5801 644.953 74.3307 644.953 77.5469Z" fill="white"/>
</svg>
