<svg width="405" height="96" viewBox="0 0 405 96" fill="none" xmlns="http://www.w3.org/2000/svg">
<path d="M125.35 94C125.688 93.5768 125.857 92.8574 125.857 91.8418C125.857 90.8262 125.857 90.0645 125.857 89.5566C125.857 84.3092 125.561 79.0618 124.969 73.8145C124.461 68.5671 123.868 63.362 123.191 58.1992C122.684 53.4596 122.091 48.5508 121.414 43.4727C120.822 38.3945 120.06 33.5703 119.129 29C114.812 35.0938 110.75 41.3145 106.941 47.6621C103.217 54.0098 99.4512 60.3997 95.6426 66.832L89.168 78.0039C88.4909 79.1042 87.8138 80.2467 87.1367 81.4316C86.5443 82.5319 85.8672 83.5898 85.1055 84.6055C83.3281 84.6901 81.5508 84.7324 79.7734 84.7324C77.9961 84.7324 76.2188 84.7324 74.4414 84.7324C72.6641 84.7324 70.8444 84.7747 68.9824 84.8594C67.2051 84.8594 65.4277 84.7747 63.6504 84.6055C62.9733 83.5898 62.2962 82.5319 61.6191 81.4316C61.0267 80.2467 60.3919 79.0618 59.7148 77.877L53.1133 66.7051C49.3047 60.3574 45.4961 54.0098 41.6875 47.6621C37.9635 41.3145 33.9434 35.0938 29.627 29C28.696 33.5703 27.9342 38.3945 27.3418 43.4727C26.7493 48.5508 26.1569 53.4596 25.5645 58.1992C24.8874 63.362 24.2526 68.5671 23.6602 73.8145C23.1523 79.0618 22.8984 84.3092 22.8984 89.5566C22.8984 90.0645 22.8984 90.8262 22.8984 91.8418C22.8984 92.8574 23.11 93.5768 23.5332 94H0.300781C0.808594 93.4922 1.31641 92.2227 1.82422 90.1914C2.33203 88.0755 2.79753 85.5788 3.2207 82.7012C3.72852 79.8236 4.15169 76.7344 4.49023 73.4336C4.91341 70.1328 5.25195 67.0013 5.50586 64.0391C5.8444 60.9922 6.09831 58.3262 6.26758 56.041C6.52148 53.7559 6.69076 52.1901 6.77539 51.3438C7.36784 44.7422 8.0026 38.056 8.67969 31.2852C9.44141 24.5143 9.82227 17.8281 9.82227 11.2266C9.82227 10.7188 9.82227 9.91471 9.82227 8.81445C9.82227 7.62956 9.73763 6.48698 9.56836 5.38672C9.39909 4.20182 9.10286 3.14388 8.67969 2.21289C8.34115 1.2819 7.83333 0.689453 7.15625 0.435547H38.1328C37.7096 0.689453 37.498 1.11263 37.498 1.70508C37.498 3.22852 38.2598 5.68294 39.7832 9.06836C41.3066 12.4538 43.2533 16.347 45.623 20.748C47.9928 25.0645 50.6165 29.6348 53.4941 34.459C56.4564 39.1986 59.2917 43.7689 62 48.1699C64.7083 52.4863 67.1628 56.3796 69.3633 59.8496C71.6484 63.3197 73.3411 65.8587 74.4414 67.4668C75.457 65.8587 77.0651 63.3197 79.2656 59.8496C81.5508 56.3796 84.0475 52.4863 86.7559 48.1699C89.5488 43.7689 92.3841 39.1562 95.2617 34.332C98.1393 29.5078 100.763 24.9375 103.133 20.6211C105.503 16.3047 107.449 12.4538 108.973 9.06836C110.496 5.68294 111.258 3.22852 111.258 1.70508C111.258 1.11263 111.089 0.689453 110.75 0.435547H141.727C140.965 0.689453 140.372 1.2819 139.949 2.21289C139.611 3.14388 139.357 4.20182 139.188 5.38672C139.018 6.48698 138.934 7.62956 138.934 8.81445C138.934 9.91471 138.934 10.7188 138.934 11.2266C138.934 17.8281 139.272 24.5143 139.949 31.2852C140.711 38.056 141.43 44.7422 142.107 51.3438C142.192 52.1901 142.319 53.7559 142.488 56.041C142.658 58.3262 142.869 60.9922 143.123 64.0391C143.462 67.0013 143.8 70.1328 144.139 73.4336C144.562 76.7344 144.985 79.8236 145.408 82.7012C145.916 85.5788 146.424 88.0755 146.932 90.1914C147.439 92.2227 147.99 93.4922 148.582 94H125.35Z" fill="white"/>
<path d="M196.824 95.9043C192.677 95.9043 188.276 95.3542 183.621 94.2539C178.966 93.1536 174.65 91.4609 170.672 89.1758C166.779 86.806 163.52 83.8438 160.896 80.2891C158.357 76.7344 157.088 72.5026 157.088 67.5938C157.088 61.5846 158.273 56.2103 160.643 51.4707C163.012 46.7311 166.186 42.7533 170.164 39.5371C174.142 36.2363 178.755 33.7396 184.002 32.0469C189.249 30.2695 194.751 29.3809 200.506 29.3809C205.076 29.3809 209.139 30.1426 212.693 31.666C216.248 33.1048 219.21 35.1784 221.58 37.8867C223.95 40.5104 225.727 43.6419 226.912 47.2812C228.182 50.9206 228.816 54.9408 228.816 59.3418C228.816 63.5736 228.182 67.6361 226.912 71.5293H173.973C174.819 74.0684 176.131 76.1419 177.908 77.75C179.77 79.3581 181.844 80.6276 184.129 81.5586C186.499 82.4049 188.953 82.9974 191.492 83.3359C194.116 83.6745 196.57 83.8438 198.855 83.8438C200.294 83.8438 202.199 83.7591 204.568 83.5898C207.023 83.3359 209.52 82.9974 212.059 82.5742C214.598 82.0664 216.967 81.474 219.168 80.7969C221.453 80.1198 223.146 79.2734 224.246 78.2578L230.467 89.1758C224.881 91.2917 219.38 92.9421 213.963 94.127C208.546 95.3118 202.833 95.9043 196.824 95.9043ZM196.824 41.3145C194.285 41.3145 191.746 41.8223 189.207 42.8379C186.753 43.8535 184.51 45.2077 182.479 46.9004C180.447 48.5085 178.67 50.4551 177.146 52.7402C175.623 54.9408 174.523 57.2259 173.846 59.5957H210.154C210.408 57.0566 210.408 54.6868 210.154 52.4863C209.985 50.2012 209.435 48.2546 208.504 46.6465C207.573 44.9538 206.176 43.6419 204.314 42.7109C202.452 41.7799 199.956 41.3145 196.824 41.3145Z" fill="white"/>
<path d="M316.287 54.8984C316.287 60.7383 315.991 66.5358 315.398 72.291C314.891 78.0462 314.637 83.8438 314.637 89.6836C314.637 91.6302 314.764 93.5345 315.018 95.3965H292.801C293.647 94.0423 294.282 91.7995 294.705 88.668C295.128 85.4518 295.424 82.0664 295.594 78.5117C295.848 74.8724 295.975 71.4023 295.975 68.1016C296.059 64.7161 296.102 62.1348 296.102 60.3574C296.102 55.1947 294.832 51.1745 292.293 48.2969C289.754 45.3346 285.818 43.8535 280.486 43.8535C278.709 43.8535 276.974 44.1921 275.281 44.8691C273.673 45.4616 272.107 46.2656 270.584 47.2812C269.145 48.2969 267.749 49.4395 266.395 50.709C265.125 51.9785 263.982 53.248 262.967 54.5176C262.713 61.8809 262.586 69.2441 262.586 76.6074C262.586 77.1999 262.586 78.3848 262.586 80.1621C262.586 81.8548 262.628 83.6745 262.713 85.6211C262.798 87.5677 262.924 89.3874 263.094 91.0801C263.263 92.6882 263.559 93.6615 263.982 94H241.512C241.85 93.4922 242.189 92.265 242.527 90.3184C242.866 88.2871 243.162 85.9173 243.416 83.209C243.67 80.416 243.882 77.4538 244.051 74.3223C244.22 71.1908 244.347 68.1862 244.432 65.3086C244.601 62.431 244.686 59.8919 244.686 57.6914C244.77 55.4909 244.812 53.9674 244.812 53.1211C244.812 52.444 244.77 51.0475 244.686 48.9316C244.686 46.7311 244.601 44.4883 244.432 42.2031C244.262 39.8333 243.966 37.6751 243.543 35.7285C243.204 33.7819 242.654 32.6816 241.893 32.4277L264.109 32.5547L263.729 38.6484C266.86 36.3633 270.33 34.5013 274.139 33.0625C278.032 31.5391 281.967 30.7773 285.945 30.7773C289.839 30.7773 293.605 31.2005 297.244 32.0469C300.968 32.8086 304.227 34.1628 307.02 36.1094C309.812 37.9714 312.055 40.4258 313.748 43.4727C315.441 46.5195 316.287 50.3281 316.287 54.8984Z" fill="white"/>
<path d="M404.646 32.1738C404.308 32.7663 403.969 34.0358 403.631 35.9824C403.377 37.929 403.123 40.2565 402.869 42.9648C402.615 45.5885 402.404 48.4661 402.234 51.5977C402.065 54.7292 401.896 57.7337 401.727 60.6113C401.642 63.4043 401.557 65.9434 401.473 68.2285C401.473 70.429 401.473 72.0371 401.473 73.0527C401.473 73.8991 401.473 75.4225 401.473 77.623C401.473 79.7389 401.557 81.9395 401.727 84.2246C401.98 86.5098 402.277 88.5833 402.615 90.4453C403.038 92.3073 403.631 93.4076 404.393 93.7461L382.049 93.6191L382.557 87.5254C379.34 89.8105 375.828 91.7148 372.02 93.2383C368.211 94.6771 364.318 95.3965 360.34 95.3965C356.362 95.3965 352.511 94.931 348.787 94C345.148 92.9844 341.932 91.4609 339.139 89.4297C336.346 87.3984 334.103 84.8171 332.41 81.6855C330.717 78.4694 329.871 74.6185 329.871 70.1328C329.871 64.4622 330.125 58.834 330.633 53.248C331.225 47.6621 331.521 42.0339 331.521 36.3633C331.521 35.4323 331.479 34.5013 331.395 33.5703C331.395 32.6393 331.31 31.7083 331.141 30.7773H352.596C351.749 32.2161 351.115 34.5013 350.691 37.6328C350.268 40.7643 349.93 44.1074 349.676 47.6621C349.507 51.2168 349.38 54.6868 349.295 58.0723C349.295 61.373 349.295 63.9544 349.295 65.8164C349.295 69.0326 349.549 71.6986 350.057 73.8145C350.564 75.9303 351.411 77.623 352.596 78.8926C353.865 80.1621 355.558 81.0508 357.674 81.5586C359.79 82.0664 362.456 82.3203 365.672 82.3203C367.449 82.3203 369.142 82.0241 370.75 81.4316C372.443 80.7546 374.051 79.9082 375.574 78.8926C377.098 77.877 378.494 76.7344 379.764 75.4648C381.033 74.1953 382.176 72.9258 383.191 71.6562C383.361 67.9323 383.488 64.2507 383.572 60.6113C383.657 56.972 383.699 53.2904 383.699 49.5664C383.699 48.8047 383.699 47.5775 383.699 45.8848C383.699 44.1074 383.657 42.2878 383.572 40.4258C383.488 38.5638 383.318 36.8711 383.064 35.3477C382.895 33.7396 382.641 32.6816 382.303 32.1738H404.646Z" fill="white"/>
</svg>
