<?xml version="1.0" encoding="UTF-8"?><svg id="_レイヤー_1" xmlns="http://www.w3.org/2000/svg" viewBox="0 0 153.7 87"><path d="m29.22,46.18c-1.44,1.78-2.83,3.5-4.27,5.33-.19.29-.29.62-.29,1.01-.14.62-.19,1.3-.19,1.97s-.14,1.3-.38,1.87c-.34.96-.72,1.92-1.06,2.83-.14.19-.34.34-.58.38-.67.1-1.34.05-1.92-.24s-1.1-.72-1.54-1.25c-.38-.48-.77-.96-1.1-1.44-.1-.1-.1-.19-.1-.34.14-1.15.24-2.3.34-3.41.34-2.74.86-5.42,1.63-8.06.62-1.92,1.15-3.84,1.63-5.76.82-1.78,1.25-3.6,1.39-5.47-.1-.29-.14-.53-.14-.77.14-.38.38-.72.72-1.01.29-.24.62-.53.96-.77.24-.24.53-.34.82-.38.77.19,1.49.48,2.16.86.67.34,1.3.82,1.87,1.39.53.58.91,1.2,1.1,1.97.1.48,0,.86-.29,1.2-.34.34-.67.53-1.1.58-1.34,0-2.59.38-3.7,1.1-1.54,1.1-2.45,2.59-2.74,4.42-.24.86-.48,1.78-.86,2.64-.19.91-.29,1.87-.34,2.83-.19,1.1-.38,2.16-.48,3.26,0,.53.14,1.06.34,1.58.1.34.24.34.38.05,1.15-.96,2.3-1.92,3.46-2.93,1.39-1.15,2.78-2.35,4.13-3.55l.24-.24c-.05.14-.1.24-.1.34h.01Zm23.71.62c.38,1.3.38,2.59.14,3.89-.48,2.54-1.01,5.14-1.54,7.68-.53,1.92-1.63,3.46-3.36,4.61-.19.05-.38.1-.67.19-.1-.05-.24-.05-.34,0-.48.38-.91.48-1.44.29-.48-.19-.91-.48-1.25-.77-2.98-1.92-5.47-4.32-7.44-7.15-.24-.38-.48-.72-.72-1.06-.24-.14-.43-.19-.67-.19-.43.24-.86.48-1.3.72-.38.1-.72.1-1.06,0-.82-.34-1.34-.91-1.54-1.73-.19-.82.05-1.58.62-2.21.53-.53,1.1-1.01,1.68-1.44.29-.05.53,0,.77.14l.48,1.06c.05.14.19.29.29.43.1-.14.19-.29.24-.38.1-.86.14-1.78.19-2.69.05-.34-.05-.38-.34-.14l-.72.48c-.14.05-.24.1-.29.14,0-.14.05-.24.14-.38.05-.1.14-.14.24-.24.58-.38.91-.86.91-1.49.05-.67,0-1.3-.14-1.87-.05-.05-.14-.1-.24-.1-.53.48-1.1,1.01-1.63,1.54-.34.43-.72.82-1.2,1.2-.43.34-.96.53-1.58.53-.62.05-.86.38-.82.96-.05.53-.24,1.01-.48,1.49-.67,1.15-.96,2.35-.77,3.6.1.53.14,1.01.19,1.49,0,.05.05.1.1.1.19.43.53.72.96.91.48.19.96.19,1.39,0,.38-.1.77-.29,1.1-.48-.05.34-.1.62-.19.91l-.58,1.78c-.14.19-.19.38-.19.62,0,.1-.05.14-.14.24-.34-.1-.62-.19-.91-.38-1.82-1.87-2.64-4.13-2.45-6.77,0-.05,0-.1.05-.19-.05,0-.1,0-.14-.05.1-1.15.24-2.3.38-3.41.1-.48.24-.91.53-1.25.34-.53.67-.53,1.06-.1.14.1.34.1.58.1,1.82-1.49,3.65-2.98,5.42-4.42l.1-.19c-.1-.05-.19-.05-.34,0-.38.14-.86.19-1.34.29-.48.05-.96-.05-1.39-.29-.19-.05-.34-.14-.43-.19-.19-.1-.34-.24-.48-.38-.1-.14-.1-.29,0-.48.14-.19.29-.29.43-.38.38-.34.38-.67.1-1.01-.43-.67-.82-1.39-1.1-2.11-.1-.34-.34-.43-.58-.24-1.34.82-2.74,1.58-4.08,2.35-.29.05-.53.05-.82.1.1-.19.19-.43.34-.67.53-.62,1.1-1.2,1.78-1.68.67-.48,1.39-.96,2.11-1.39.67-.34.96-.82.86-1.49-.1-1.82-.1-3.65-.05-5.57,0-.34.05-.62.24-.91s.48-.43.86-.38c.1,0,.14-.05.19-.14-.05-.24.05-.43.29-.62.19-.19.38-.34.53-.48.24-.24.48-.43.82-.53.38.05.72.14,1.01.38,1.78,1.34,2.69,3.17,2.64,5.42v.53c0,.48.14.58.58.38.1-.1.14-.14.24-.14.62-.05,1.15-.29,1.54-.72.34-.43.53-.96.53-1.54.38-1.68.72-3.36,1.1-5.04.05-.53.34-.96.77-1.25.58-.43,1.15-.82,1.78-1.15.29-.1.53-.05.82.14.67.91,1.34,1.92,1.97,2.98.43.72.82,1.49,1.15,2.26.1.48.05.91-.14,1.34-.19.53-.05.72.48.62.77-.05,1.54-.1,2.3-.05,1.06.1,1.78.62,2.26,1.54.14.48,0,.77-.48.96-1.06.29-2.06.24-3.02-.14,0-.05-.1-.1-.19-.1-.29-.14-.58-.24-.96-.34-.38-.05-.67.05-.86.38-.19.34-.34.67-.43.96-.24.82-.53,1.58-.82,2.35-.34.43-.58.82-.82,1.25-.1.43-.14.82-.14,1.25.05.29,0,.58-.19.72-.58.48-1.2.91-1.82,1.3-.62.38-1.3.67-2.02.77-.19.1-.29.29-.38.48-.1.19-.14.38-.14.58.1.86.48,1.06,1.25.72,1.2-.58,2.45-1.15,3.74-1.73.19-.1.38-.14.62-.1,1.54.29,2.93.96,4.13,2.02,1.1.82,1.82,1.87,2.16,3.17l-.02-.02Zm-13.39,9.79s-.1-.1-.1-.19c-.77-.77-1.54-1.58-2.3-2.4l-.29-.29c-.1.1-.14.14-.24.19,0,.1,0,.19.05.29.48.38.86.82,1.25,1.3.38.48.86.82,1.44,1.06.1,0,.14,0,.19.05h0Zm5.95-12.48c-.62-.1-1.3-.1-1.92,0-.62.14-1.2.38-1.73.72-.1.05-.14.1-.14.24-.24,1.01-.43,1.97-.62,2.98.05.24.1.43.19.62.38-.34.77-.62,1.15-.96.05-.05.05-.14,0-.24,0-.1.05-.19.1-.29.19-.1.43-.24.62-.34.19-.14.38-.1.62.05.72.53,1.34,1.1,1.97,1.68.19.24.24.43.24.72-.14.77-.43,1.54-.77,2.26-.29.48-.58.91-1.01,1.34-.38.38-.86.67-1.44.72-.82.05-1.58.29-2.26.77-.14.05-.29.05-.38.1,0-.14.05-.29.14-.43.29-.72.58-1.39.96-2.11,0-.24,0-.48-.1-.67-.24,0-.43.1-.62.24-.91.53-1.78,1.1-2.64,1.73-.29.14-.29.34-.05.48l4.9,3.79c.48.38.96.29,1.39-.24,1.15-1.15,1.82-2.54,2.02-4.13.29-2.06.53-4.18.77-6.24.14-1.25-.29-2.16-1.39-2.78h0Zm-6.91-9.46c-.24.1-.38.29-.43.58s-.1.58-.1.77c.05.43.1.82.1,1.25,0,.1.05.14.14.24.24,0,.48-.1.67-.24.19-.19.38-.34.48-.58.1-.67.19-1.3.29-1.92.1-.34-.05-.48-.38-.34-.24.05-.48.14-.77.24Z" fill="#fff"/><path d="m94.38,49.66c-1.25-.48-2.5-1.01-3.7-1.63-.48-.19-.96-.34-1.49-.34s-1.06,0-1.58-.05c-.34,0-.72,0-1.1-.05-.62-.1-1.15.1-1.49.53-.19.1-.34.14-.48.19-.14,0-.34.05-.48.1-1.01.29-1.92.77-2.74,1.49-.62.62-1.34,1.1-2.06,1.54-.38.24-.38.48,0,.67.62.43,1.25.82,1.92,1.2.24.1.48.05.67,0,.53-.67,1.06-1.25,1.58-1.87.1-.1.14-.14.14-.24-.14-.43-.1-.77.19-1.06.24-.29.58-.48.91-.67.48-.29,1.01-.58,1.58-.77.48-.29.96-.19,1.34.24.72.77,1.44,1.58,2.11,2.4.53.62.62,1.34.38,2.16-.05.24-.19.43-.38.58-.19.14-.38.24-.53.38-1.01.82-2.02,1.63-3.07,2.45-.05.1-.05.19,0,.34.34.24.62.53.91.77,1.58,1.06,2.88,2.35,3.94,3.89.29.43.38.86.38,1.39-.1.34-.34.53-.72.62-.38.1-.72.1-1.06,0-.48-.19-.96-.48-1.44-.72-.24-.1-.48-.14-.72-.14-.43.19-.91.38-1.34.58-.1.1-.19.1-.29.1.05-.05.1-.14.14-.24.1-.05.14-.1.19-.14,1.15-.86,1.2-1.82.29-2.88-.86-.86-1.78-1.68-2.83-2.35-.34-.14-.77-.19-1.2-.19-.38.05-.82.05-1.2.1h-.91c-.24-.05-.48-.05-.72,0-.53.14-1.1.29-1.73.43-.1-.05-.24-.05-.38-.05.14-.05.24-.1.34-.14.24-.05.48-.1.72-.14.1-.05.19-.1.29-.14l-.29-.1c-.96.19-1.87.38-2.88.58-1.92.38-3.89.77-5.86,1.1h-.24s.1-.05.19-.1c1.58-.53,3.12-1.15,4.66-1.82,1.54-.62,3.02-1.34,4.51-2.11.1-.1.14-.19.24-.24-.1-.05-.24-.1-.34-.1-.24-.05-.53-.14-.77-.29-.38-.19-.82-.24-1.2-.14-.43.1-.82.14-1.25.14-.43.14-.82.1-1.2-.1-1.58-1.06-1.92-2.45-1.06-4.08.05-.14.1-.24.1-.34-.05.05-.14.1-.24.1-.43.1-.82.19-1.25.38-.29.19-.62.48-.91.77-.58.72-1.3,1.15-2.21,1.25-.86.14-1.39.67-1.54,1.54v2.26h-.05c-.1.82-.1,1.63-.1,2.45-.05.1-.05.24,0,.38.19.19.34.38.48.58.09.13.09.15,0,.05l-.14.14c-.05.1-.1.19-.19.29-.14.24-.24.48-.34.77-.1.48-.14.96-.05,1.49,0,.38-.14.53-.43.38-.43-.19-.82-.53-1.1-.91-.19-.77-.34-1.54-.34-2.35-.1-2.26-.19-4.56-.24-6.82-.1-.43-.14-.86-.19-1.3-.05-.48-.24-.58-.67-.34-.72.48-1.49.91-2.3,1.34-.48.19-.96.34-1.44.48s-.91.34-1.34.62c-.24.1-.53.19-.82.29-.34.05-.53.24-.62.58-.1,0-.19-.05-.29-.1-.34-.24-.53-.53-.62-.86-.05-.38-.05-.72.1-1.01.19-.38.43-.77.72-1.1.14-.48.48-.58.91-.34.19,0,.38,0,.53-.1.14-.1.29-.14.43-.19,1.78-1.58,3.12-3.46,4.03-5.66,0-.1.05-.14.05-.24-.14,0-.24,0-.29.05-.82.24-1.63.53-2.5.82-1.06.24-2.06.1-3.07-.43-.14-.24-.24-.48-.24-.77,0-.53.1-1.06.34-1.54.29-.43.53-.86.77-1.3,1.39-1.87,2.69-3.79,3.89-5.76.24-.38.38-.77.48-1.15.1-.43.19-.82.34-1.2.67-1.58,1.06-3.26,1.06-4.94.1-1.34.72-2.35,1.87-2.98.43-.1.77,0,1.1.24,1.2.86,1.73,2.06,1.63,3.55-.14,1.34-.29,2.64-.38,3.94-.1.43.05.67.48.77.48.05.82.29,1.06.72.24.29.29.62.14.91-.1.34-.29.58-.58.82-.34.29-.62.62-.86,1.01-.1.34-.05.67.14,1.01.43.62.82,1.3,1.2,1.97.1.38.05.77-.14,1.06-.19.48-.48.91-.77,1.34,0,.14.1.29.19.38,1.58.29,2.83,1.1,3.7,2.5.24.53.29,1.1.1,1.63-.19.58-.62.86-1.25.96-.91-.1-1.78-.19-2.59-.43-.1-.05-.14-.1-.19-.14-.43.05-.67-.1-.77-.43-.14-.29-.19-.58-.24-.86,0-.19-.05-.34-.14-.48-.1.14-.19.29-.24.48,0,1.58-.05,3.17-.1,4.7-.1.19-.05.34,0,.48.14-.05.29-.1.38-.14,2.16-1.54,4.51-2.83,7.01-3.79.24-.1.48-.24.62-.53,1.44-1.68,2.88-3.36,4.27-5.04.24-.24.24-.53,0-.77-.24-.48-.43-1.01-.58-1.58-.43-1.1-1.1-1.34-2.06-.72-.48.43-.96.82-1.39,1.25-.38.29-.77.67-1.15,1.06-.34.38-.77.67-1.3.82-.96,0-1.87,0-2.78-.14-.05-.14-.05-.24,0-.38.29-.91.91-1.58,1.82-2.02,1.49-.77,2.98-1.58,4.46-2.45.1-.1.14-.19.24-.34-.1-.05-.24-.1-.38-.1-.58-.24-1.15-.43-1.73-.62-.43-.14-.62-.43-.53-.91.1-.38.24-.72.38-1.06,1.25-1.44,2.45-2.88,3.65-4.32.77-.77,1.15-1.68,1.15-2.78-.05-.77-.05-1.54.05-2.35.1-.53.38-1.01.77-1.34.38-.34.86-.58,1.34-.77.77-.24,1.44-.1,1.97.38.53.34,1.01.72,1.44,1.15s.72.96.86,1.54c.19.43.34.91.38,1.39.05.48-.14.86-.58,1.2,0,.19-.05.34-.14.48.14-.1.29-.19.38-.24l.86-1.15c.29-.38.24-.67-.14-.96-.38-.38-.34-.72.1-1.01.82-.48,1.68-.77,2.59-.96.29,0,.53.14.77.34.19.19.38.43.58.62.62.82.82,1.68.58,2.64-.29.38-.58.62-1.01.82-.86.34-1.68.67-2.5.96-.53.34-1.1.67-1.63,1.06-.19.14-.14.34.14.48.48.34.91.72,1.25,1.2.38.43.29.86-.19,1.15-.77.48-1.49.96-2.21,1.44-.19.14-.29.29-.38.48h.58c1.2,0,2.4.05,3.6.14.14.05.29.05.43,0,.43-.19.91-.19,1.34.05.48.19.86.48,1.15.86.34.24.62.53.96.82.29.29.48.67.53,1.15.1.43,0,.91-.19,1.39-.34.1-.62.1-.96.05-1.3-.24-2.59-.48-3.89-.62-.62,0-1.2.19-1.73.48-.48.34-1.01.67-1.49.96-.1.1-.1.19-.05.29.34.43.58.96.62,1.58.1.58.1,1.15.05,1.73.1.43.34.62.82.48,1.3-.1,2.64-.19,3.94-.24,1.15-.1,2.21.14,3.17.77,1.01.58,1.63,1.44,1.92,2.54.19.96-.19,1.34-1.15,1.15l.03-.06Zm-21.99-19.11c-.19-.29-.19-.58.05-.86.24-.29.48-.53.72-.72.67-.67,1.49-1.06,2.45-1.25.14,0,.24.05.34.1v2.02h.1c.05.19.1.38.14.62.05.14.05.29.1.43,0,.19-.05.34-.19.43-.14.05-.29.1-.48.05-.29.1-.53.19-.72.29-.67.34-1.25.24-1.73-.34-.29-.19-.53-.43-.77-.77h-.01Zm12.48,10.37c.96-.82,1.87-1.63,2.78-2.45.34-.34.29-.48-.19-.58-.72-.19-1.44-.34-2.16-.48v.1c-.29.05-.58.05-.86.05-.14.1-.29.14-.38.24-.29.82-.58,1.58-.82,2.45,0,.24.05.48.19.67.48-.34.91-.29,1.3.1.05-.05.1-.1.14-.1Z" fill="#fff"/><path d="m113.88,45.11l-.48,1.87c-.05.1-.14.24-.34.34-.24.1-.43.19-.62.34-.67.91-1.34,1.78-2.06,2.59-.53.62-1.1,1.15-1.78,1.58-.14.1-.34.19-.53.34-.19.14-.24.29-.14.48.1.19.19.34.34.48.67.67,1.15,1.49,1.34,2.45.1.53.1,1.06,0,1.58-.19.38-.53.62-.91.82-.96.43-2.02.53-3.07.29-.34-.1-.53-.34-.62-.72-.05-.14-.1-.29-.19-.48-.05-.14-.19-.19-.38-.1-.14.1-.29.19-.34.34-2.02,1.68-3.94,3.41-5.86,5.14-.29.24-.62.43-1.01.48-.43.1-.82,0-1.2-.24-.1-.24-.1-.48,0-.77,1.06-1.54,2.11-3.07,3.22-4.61.24-.38.48-.77.77-1.15.19-.1.43-.24.67-.34-.05.29-.1.48-.24.72l-1.06,1.58c-.1.24-.19.43-.19.62-.05.14-.05.24,0,.38.1-.05.14-.05.24-.05,1.3-1.1,2.54-2.21,3.84-3.31,0-.14,0-.29-.1-.43-.82-1.1-1.68-2.21-2.54-3.26-.34-.34-.29-.62.05-.91.72-.53,1.44-1.06,2.21-1.54.24-.14.48-.19.72-.19,1.25.1,2.26.62,3.12,1.58.19.24.34.24.53,0,.96-1.34,1.92-2.74,2.88-4.08.05-.14.05-.29-.05-.38-.14-.14-.34-.24-.58-.24-.62.38-1.2.77-1.78,1.15-.29.29-.62.29-1.01,0-.24-.14-.43-.24-.67-.24s-.48-.05-.72-.1c-1.06-.43-2.06-.91-3.12-1.44-.67-.34-1.01-.82-1.06-1.49-.1-.62.19-1.2.72-1.63,1.58-1.34,3.46-2.26,5.47-2.69.19-.05.43-.1.62-.1.24-.1.53-.24.82-.34s.53-.14.82-.1c.53.34.91.77,1.15,1.34l1.01,1.58c.1.14.24.19.43.24,1.82.05,2.4.91,1.68,2.59v.03Zm-15.27-7.44c-.05-.24,0-.48.19-.67.43-.34.82-.72,1.2-1.1.38-.38.82-.67,1.34-.86.58-.1,1.15-.24,1.68-.38,1.01-.34,2.06-.72,3.07-1.1.14-.14.24-.29.24-.48l.1-4.22c.05-.38.19-.67.48-.86s.67-.34,1.06-.34c0-.05.05-.1.1-.19.1-.1.19-.14.29-.14,1.2.14,2.21.72,2.93,1.68.62.72,1.25,1.44,1.78,2.26.1.1.24.1.34.1,1.25-.29,2.5-.58,3.74-.86.24-.14.48-.34.58-.62.24-.86.43-1.73.62-2.54-.14-.1-.24-.14-.34-.14-.72.43-1.44.82-2.16,1.2-.19.05-.38.1-.53.14.05-.14.14-.29.19-.48l1.92-2.02c.24-.19.38-.38.43-.62.14-.48.34-.82.67-1.06.29-.24.67-.48,1.01-.77.38-.34.82-.53,1.3-.43.48.05.86.24,1.25.58.48.38.96.77,1.44,1.1.14.1.24.24.24.43.48,1.06.58,2.21.29,3.36-.24.53-.05.82.58.82.24-.1.53-.24.77-.38.1-.1.19-.14.24-.14,1.82.77,3.65,1.54,5.42,2.3.82.29,1.39.77,1.73,1.54.43.67.24,1.15-.53,1.44-.29.14-.58.29-.91.34-.29-.05-.53,0-.82.05-.24,0-.53,0-.77-.05-1.87-.67-3.79-1.44-5.62-2.3-.48-.19-.82,0-1.01.53-.62,1.2-1.44,2.16-2.54,2.98-.24.14-.48.24-.77.29-.29.1-.58.14-.82.24-1.1.34-2.06.86-2.88,1.58-1.1,1.3-2.21,2.59-3.31,3.84l-.48.19c-.1.05-.19.05-.29.05.05-.05.1-.1.14-.14.34-.43.58-.86.86-1.34,1.63-2.54,2.88-5.28,3.74-8.21.19-.34.1-.43-.29-.34-.67.1-1.39.24-2.06.43-.48.14-.96.29-1.39.48-.19.14-.29.34-.34.58-.43.43-.72,1.01-.77,1.58-.1.62,0,1.2.29,1.73.29.58.58,1.06.96,1.54.34.34.29.62-.14.77v.58c-.29.48-.72.58-1.25.24-.14,0-.29-.1-.48-.19-.14-.05-.29-.05-.48.1,0,.05-.05.05-.1,0-.1,0-.19-.05-.24-.14-.86-.77-1.82-1.58-2.78-2.3-.19-.34-.38-.34-.58-.1-.48.53-1.06.96-1.68,1.25-.62.34-1.25.58-1.92.86-.14,0-.29,0-.38-.05-.91-.14-1.78-.29-2.64-.53-.67-.24-1.34-.58-1.92-1.01v-.08Zm36.82,24.63c-.72.34-1.39.77-2.11,1.25-.34.24-.77.38-1.3.29l-3.74-.1c-1.2-.05-2.35-.29-3.46-.67-1.34-.62-2.64-1.25-3.89-1.97-.1-.1-.24-.14-.34-.14-.53,0-1.06-.14-1.49-.43-.48-.29-.91-.58-1.34-.96l-3.46-2.78c-.24-.29-.34-.62-.43-1.01-.1-.82-.14-1.58-.14-2.4v-.29c.38-1.34.67-2.64.86-3.98.05-1.68.05-3.41,0-5.14,0-.67-.05-1.34-.1-1.97-.14-1.1.34-1.82,1.44-2.21.53-.24,1.01-.48,1.49-.67.19-.1.38-.05.53.1.34.38.67.82,1.06,1.2.14.05.29.05.43,0,1.2-1.39,2.54-2.54,4.08-3.5.77-.53,1.54-.58,2.3-.19,1.15.48,2.21,1.15,3.17,2.02.96.82,1.68,1.87,2.11,3.02.14.48.24.96.24,1.49v.05c0,1.82-.05,3.65-.1,5.47,0,.29-.05.58-.14.86-.29.82-.62,1.58-1.06,2.35-.29.48-.72.86-1.2,1.15-.14.19-.29.29-.53.34h-.38c.05.1.14.24.24.34.43.43.86.91,1.34,1.39.43.43.96.82,1.54,1.1.43.24.82.58,1.15.91.29.34.67.67,1.06.96.29.29.58.62.77.96l1.68,2.06c.34.43.24.82-.29,1.1h0Zm-6.1-5.18c-.72-1.06-1.58-1.97-2.64-2.69s-2.11-1.44-3.17-2.11l-1.97-1.3c-.05-.14-.1-.34-.14-.53-.14-.29-.38-.48-.67-.62-.24.05-.48.19-.62.38-.1.14-.14.34-.19.48-.19.48-.34.96-.53,1.49-.14.53-.43,1.01-.82,1.34-.05,0-.05.05-.1.05-.19.38-.34.82-.38,1.2-.1.43-.05.86.19,1.25.19.38.43.72.82.96.91.77,1.87,1.49,2.83,2.11,1.58,1.2,3.31,1.87,5.28,2.06.72-.38,1.44-.77,2.16-1.2.1-.05.19-.14.19-.24.29-.91.19-1.82-.24-2.64h0Zm-8.74-14.16c-.24.1-.34.29-.34.58s.05.53.1.72c.1.24.14.53.14.77-.05.29,0,.58.19.86.24.24.43.48.62.72.34.58.86.77,1.54.58h.38c.19-.1.38-.19.53-.34.24-.91.43-1.82.58-2.74-.05-.62-.14-1.3-.29-1.97.05-.34-.05-.43-.34-.24-.24.19-.48.29-.77.38-.58.05-1.1.14-1.63.34-.24.1-.48.19-.72.34h0Z" fill="#fff"/><path d="m76.85,0C34.41,0,0,19.48,0,43.5s34.41,43.5,76.85,43.5,76.85-19.48,76.85-43.5S119.3,0,76.85,0Zm0,83.74c-39.26,0-71.09-18.02-71.09-40.24S37.59,3.26,76.85,3.26s71.09,18.02,71.09,40.24-31.83,40.24-71.09,40.24Z" fill="#fff"/></svg>